# Blender 3.6.1
# www.blender.org
mtllib фикс2.mtl
o Cylinder.001
v -49.226562 -5.655607 20.443081
v -49.226562 -5.655607 22.599163
v -49.809307 -5.903906 20.443081
v -49.809307 -5.903906 22.599163
v -50.392052 -6.152205 20.443081
v -50.392052 -6.152205 22.599163
v -50.974796 -6.400505 20.443081
v -50.974796 -6.400505 22.599163
v -51.557545 -6.648804 20.443083
v -51.557545 -6.648804 22.599165
v -52.140289 -6.897103 20.443083
v -52.140289 -6.897103 22.599163
v -52.723034 -7.145402 20.443083
v -52.723034 -7.145402 22.599163
v -53.296455 -7.455778 20.443083
v -53.296455 -7.455778 22.599163
vn 0.3920 -0.9200 -0.0000
vn 0.4760 -0.8794 -0.0000
vt 0.484234 0.288844
vt 0.000348 0.288844
vt 0.000348 0.146682
vt 0.484234 0.146682
vt 0.484234 0.431005
vt 0.000348 0.431005
vt 0.000348 0.573167
vt 0.484234 0.573167
vt 0.484234 0.715329
vt 0.000348 0.715329
vt 0.000348 0.857491
vt 0.484234 0.857491
vt 0.000348 0.999652
vt 0.484234 0.999652
vt 0.000348 0.000348
vt 0.484234 0.000348
s 0
f 11/1/1 12/2/1 14/3/1 13/4/1
f 11/1/1 9/5/1 10/6/1 12/2/1
f 8/7/1 10/6/1 9/5/1 7/8/1
f 7/8/1 5/9/1 6/10/1 8/7/1
f 4/11/1 6/10/1 5/9/1 3/12/1
f 2/13/1 4/11/1 3/12/1 1/14/1
f 14/3/2 16/15/2 15/16/2 13/4/2
