# Blender 3.6.1
# www.blender.org
mtllib Ñ„Ğ¸ĞºÑ.mtl
o Cube.018
v 37.208683 -13.646029 14.795292
v 37.208683 2.996111 14.795292
v 37.208683 -13.646029 14.480030
v 37.208683 2.996111 14.480030
v 37.278454 -13.646029 14.795292
v 37.278454 2.996111 14.795292
v 37.278454 -13.646029 14.480030
v 37.278454 2.996111 14.480030
v 24.803762 -13.646029 14.795292
v 24.803762 2.996111 14.795292
v 24.803762 -13.646029 14.480030
v 24.803762 2.996111 14.480030
v 24.873537 -13.646029 14.795292
v 24.873537 2.996111 14.795292
v 24.873537 -13.646029 14.480030
v 24.873537 2.996111 14.480030
v 24.803762 -6.914019 14.795292
v 24.803762 -6.914019 14.480030
v 24.873537 -6.914019 14.480030
v 24.873537 -6.914019 14.795292
v 37.208683 -1.000000 14.795292
v 37.208683 -1.000000 14.480030
v 37.278454 -1.000000 14.480030
v 37.278454 -1.000000 14.795292
v 37.208683 -7.190251 14.480030
v 37.278454 -7.190251 14.480030
v 37.278454 -7.190251 14.795292
v 37.208683 -7.190251 14.795292
v 24.803762 -1.000000 14.795292
v 24.803762 -1.000000 14.480030
v 24.873537 -1.000000 14.480030
v 24.873537 -1.000000 14.795292
vn -1.0000 -0.0000 -0.0000
vn -0.0000 -0.0000 -1.0000
vn 1.0000 -0.0000 -0.0000
vn -0.0000 -0.0000 1.0000
vn -0.0000 -1.0000 -0.0000
vn -0.0000 1.0000 -0.0000
vt 0.661113 0.001761
vt 0.661113 0.593269
vt 0.614448 0.593269
vt 0.614448 0.001761
vt 0.739003 0.001761
vt 0.739003 0.593269
vt 0.728675 0.593269
vt 0.728675 0.001761
vt 0.560737 0.001761
vt 0.560737 0.593269
vt 0.514072 0.593269
vt 0.514072 0.001761
vt 0.766704 0.001761
vt 0.766704 0.593269
vt 0.756376 0.593269
vt 0.756376 0.001761
vt 0.514072 0.596792
vt 0.524400 0.596792
vt 0.524400 0.643457
vt 0.514072 0.643457
vt 0.541774 0.596791
vt 0.552102 0.596791
vt 0.552102 0.643457
vt 0.541774 0.643457
vt 0.711301 0.001761
vt 0.711301 0.593269
vt 0.664636 0.593269
vt 0.664636 0.001761
vt 0.725152 0.001761
vt 0.725152 0.593273
vt 0.714824 0.593273
vt 0.714824 0.001761
vt 0.610925 0.001761
vt 0.610925 0.593269
vt 0.564260 0.593269
vt 0.564260 0.001761
vt 0.752853 0.001761
vt 0.752853 0.593269
vt 0.742525 0.593269
vt 0.742525 0.001761
vt 0.564260 0.596791
vt 0.574588 0.596791
vt 0.574588 0.643457
vt 0.564260 0.643457
vt 0.527923 0.596791
vt 0.538251 0.596791
vt 0.538251 0.643457
vt 0.527923 0.643457
vt 0.112466 0.001761
vt 0.112465 0.998239
vt 0.102137 0.998239
vt 0.102137 0.001761
vt 0.048427 0.001761
vt 0.048427 0.998239
vt 0.001761 0.998239
vt 0.001761 0.001761
vt 0.126316 0.001761
vt 0.126317 0.998239
vt 0.115988 0.998239
vt 0.115988 0.001761
vt 0.098615 0.001761
vt 0.098615 0.998239
vt 0.051949 0.998239
vt 0.051949 0.001761
vt 0.382471 0.001761
vt 0.382471 0.918047
vt 0.372143 0.918047
vt 0.372143 0.001761
vt 0.304582 0.001761
vt 0.304582 0.918047
vt 0.257917 0.918047
vt 0.257917 0.001761
vt 0.368620 0.001761
vt 0.368620 0.918047
vt 0.358292 0.918047
vt 0.358292 0.001761
vt 0.354770 0.001761
vt 0.354770 0.918047
vt 0.308105 0.918047
vt 0.308105 0.001761
vt 0.176504 0.001761
vt 0.176504 0.957350
vt 0.129839 0.957350
vt 0.129839 0.001762
vt 0.240543 0.001761
vt 0.240543 0.957350
vt 0.230215 0.957350
vt 0.230215 0.001761
vt 0.226692 0.001761
vt 0.226692 0.957350
vt 0.180027 0.957350
vt 0.180027 0.001761
vt 0.254394 0.001761
vt 0.254394 0.957350
vt 0.244066 0.957350
vt 0.244066 0.001761
vt 0.496698 0.001761
vt 0.496698 0.877159
vt 0.486370 0.877159
vt 0.486370 0.001761
vt 0.432659 0.001761
vt 0.432659 0.877159
vt 0.385994 0.877159
vt 0.385994 0.001761
vt 0.510549 0.001761
vt 0.510549 0.877156
vt 0.500221 0.877156
vt 0.500221 0.001761
vt 0.482847 0.001761
vt 0.482847 0.877159
vt 0.436182 0.877159
vt 0.436182 0.001761
s 0
f 21/1/1 2/2/1 4/3/1 22/4/1
f 22/5/2 4/6/2 8/7/2 23/8/2
f 23/9/3 8/10/3 6/11/3 24/12/3
f 24/13/4 6/14/4 2/15/4 21/16/4
f 3/17/5 7/18/5 5/19/5 1/20/5
f 8/21/6 4/22/6 2/23/6 6/24/6
f 29/25/1 10/26/1 12/27/1 30/28/1
f 30/29/2 12/30/2 16/31/2 31/32/2
f 31/33/3 16/34/3 14/35/3 32/36/3
f 32/37/4 14/38/4 10/39/4 29/40/4
f 11/41/5 15/42/5 13/43/5 9/44/5
f 16/45/6 12/46/6 10/47/6 14/48/6
f 13/49/4 20/50/4 17/51/4 9/52/4
f 15/53/3 19/54/3 20/55/3 13/56/3
f 11/57/2 18/58/2 19/59/2 15/60/2
f 9/61/1 17/62/1 18/63/1 11/64/1
f 27/65/4 24/66/4 21/67/4 28/68/4
f 26/69/3 23/70/3 24/71/3 27/72/3
f 25/73/2 22/74/2 23/75/2 26/76/2
f 28/77/1 21/78/1 22/79/1 25/80/1
f 1/81/1 28/82/1 25/83/1 3/84/1
f 3/85/2 25/86/2 26/87/2 7/88/2
f 7/89/3 26/90/3 27/91/3 5/92/3
f 5/93/4 27/94/4 28/95/4 1/96/4
f 20/97/4 32/98/4 29/99/4 17/100/4
f 19/101/3 31/102/3 32/103/3 20/104/3
f 18/105/2 30/106/2 31/107/2 19/108/2
f 17/109/1 29/110/1 30/111/1 18/112/1
