# Blender 3.6.1
# www.blender.org
mtllib дверь 6 .mtl
o Cube.012
v 117.369255 -7.145404 8.215066
v 117.369255 -5.037702 8.215066
v 117.369255 -7.145404 8.147104
v 117.369255 -5.037702 8.147104
v 117.369255 -6.406956 8.147104
v 117.369255 -6.406956 8.215066
v 116.559631 -5.125763 8.150498
v 117.266815 -5.125763 8.150498
v 117.266815 -5.125763 8.211673
v 116.559631 -5.125763 8.211673
v 116.561684 -7.051113 8.203179
v 117.264763 -7.051113 8.203179
v 116.561684 -7.051113 8.158991
v 117.264763 -7.051113 8.158991
v 117.266815 -6.355318 8.150498
v 116.559631 -6.355318 8.150498
v 117.264763 -6.460774 8.158991
v 116.561684 -6.460774 8.158991
v 117.264763 -6.460774 8.203179
v 116.561684 -6.460774 8.203179
v 116.559631 -6.355318 8.211673
v 117.266815 -6.355318 8.211673
v 116.498360 -7.145404 8.147104
v 116.498360 -7.145404 8.215066
v 116.498360 -6.406956 8.215066
v 116.498360 -5.037702 8.147104
v 116.498360 -5.037702 8.215066
v 116.498360 -6.406956 8.147104
v 117.286919 -6.988426 8.196445
v 116.539528 -6.988426 8.196445
v 117.286919 -5.125764 8.196445
v 116.539528 -5.125764 8.196445
v 117.286919 -6.988426 8.169182
v 116.539528 -6.988426 8.169182
v 117.286919 -5.125764 8.169182
v 116.539528 -5.125764 8.169182
v 116.539528 -7.074711 8.215066
v 117.286919 -7.074711 8.215066
v 117.286919 -6.437177 8.147104
v 116.539528 -6.437177 8.147104
v 116.539528 -7.074711 8.147104
v 117.286919 -7.074711 8.147104
v 117.286919 -6.437177 8.215066
v 116.539528 -6.437177 8.215066
v 116.539528 -5.104347 8.215066
v 117.286919 -5.104347 8.215066
v 116.539528 -6.376735 8.215066
v 117.286919 -6.376735 8.147104
v 117.286919 -5.104347 8.147104
v 116.539528 -5.104347 8.147104
v 117.286919 -6.376735 8.215066
v 116.539528 -6.376735 8.147104
v 117.348694 -6.092473 8.226437
v 117.337090 -6.102612 8.226437
v 117.345299 -6.099643 8.226437
v 117.337090 -6.037804 8.226437
v 117.348694 -6.047945 8.226437
v 117.345299 -6.040774 8.226437
v 117.337090 -6.102612 8.215068
v 117.348694 -6.092473 8.215068
v 117.345299 -6.099643 8.215068
v 117.348694 -6.047945 8.215068
v 117.337090 -6.037804 8.215068
v 117.345299 -6.040774 8.215068
v 117.310448 -6.102612 8.226437
v 117.298843 -6.092473 8.226437
v 117.302238 -6.099643 8.226437
v 117.298843 -6.047945 8.226437
v 117.310448 -6.037804 8.226437
v 117.302238 -6.040774 8.226437
v 117.298843 -6.092473 8.215068
v 117.310448 -6.102612 8.215068
v 117.302238 -6.099643 8.215068
v 117.310448 -6.037804 8.215068
v 117.298843 -6.047945 8.215068
v 117.302238 -6.040774 8.215068
v 117.335823 -6.080285 8.226439
v 117.335823 -6.059873 8.226439
v 117.310997 -6.080285 8.245428
v 117.310997 -6.059873 8.245428
v 117.310997 -6.080285 8.226439
v 117.310997 -6.059873 8.226439
v 117.214935 -6.059873 8.245428
v 117.214935 -6.080285 8.245428
v 117.214935 -6.059873 8.259554
v 117.214935 -6.080285 8.259554
v 117.314728 -6.080285 8.259554
v 117.335823 -6.080285 8.241120
v 117.329643 -6.080285 8.254154
v 117.335823 -6.059873 8.241120
v 117.314728 -6.059873 8.259554
v 117.329643 -6.059873 8.254154
v 117.348694 -6.092473 8.136118
v 117.337090 -6.102612 8.136118
v 117.345299 -6.099643 8.136118
v 117.337090 -6.037804 8.136118
v 117.348694 -6.047945 8.136118
v 117.345299 -6.040774 8.136118
v 117.337090 -6.102612 8.147487
v 117.348694 -6.092473 8.147487
v 117.345299 -6.099643 8.147487
v 117.348694 -6.047945 8.147487
v 117.337090 -6.037804 8.147487
v 117.345299 -6.040774 8.147487
v 117.310448 -6.102612 8.136118
v 117.298843 -6.092473 8.136118
v 117.302238 -6.099643 8.136118
v 117.298843 -6.047945 8.136118
v 117.310448 -6.037804 8.136118
v 117.302238 -6.040774 8.136118
v 117.298843 -6.092473 8.147487
v 117.310448 -6.102612 8.147487
v 117.302238 -6.099643 8.147487
v 117.310448 -6.037804 8.147487
v 117.298843 -6.047945 8.147487
v 117.302238 -6.040774 8.147487
v 117.335823 -6.080285 8.136115
v 117.335823 -6.059873 8.136115
v 117.310997 -6.080285 8.117126
v 117.310997 -6.059873 8.117126
v 117.310997 -6.080285 8.136115
v 117.310997 -6.059873 8.136115
v 117.214935 -6.059873 8.117126
v 117.214935 -6.080285 8.117126
v 117.214935 -6.059873 8.103001
v 117.214935 -6.080285 8.103001
v 117.314728 -6.080285 8.103001
v 117.335823 -6.080285 8.121434
v 117.329643 -6.080285 8.108400
v 117.335823 -6.059873 8.121434
v 117.314728 -6.059873 8.103001
v 117.329643 -6.059873 8.108400
vn -0.0000 -0.0000 -1.0000
vn -0.0000 -0.0000 1.0000
vn 1.0000 -0.0000 -0.0000
vn -0.0202 0.0205 -0.9996
vn -0.0202 0.0205 0.9996
vn 0.0202 0.0205 0.9996
vn 0.0202 0.0205 -0.9996
vn 0.0202 -0.0205 0.9996
vn -0.0202 -0.0205 0.9996
vn -0.0000 -1.0000 -0.0000
vn -0.0000 1.0000 -0.0000
vn -0.0202 -0.0205 -0.9996
vn 0.0202 -0.0205 -0.9996
vn -1.0000 -0.0000 -0.0000
vn -0.0000 0.4499 0.8931
vn -0.0000 -0.4499 -0.8931
vn 0.4728 -0.0000 -0.8812
vn -0.0000 0.4499 -0.8931
vn -0.4728 -0.0000 -0.8812
vn -0.0000 -0.4499 0.8931
vn -0.4728 -0.0000 0.8812
vn 0.4728 -0.0000 0.8812
vn -0.0849 -0.0777 0.9934
vn 0.0849 -0.0777 0.9934
vn 0.0849 0.0777 0.9934
vn -0.0849 -0.0777 -0.9934
vn -0.0849 0.0777 -0.9934
vn 0.0849 -0.0777 -0.9934
vn -0.0849 0.0777 0.9934
vn 0.0849 0.0777 -0.9934
vn -0.1728 0.9850 -0.0000
vn 0.1728 0.9850 -0.0000
vn 0.9756 -0.2195 -0.0000
vn 0.9756 0.2195 -0.0000
vn -0.9756 -0.2195 -0.0000
vn -0.9756 0.2195 -0.0000
vn 0.1728 -0.9850 -0.0000
vn 0.3403 -0.9403 -0.0000
vn 0.9036 -0.4284 -0.0000
vn 0.3403 0.9403 -0.0000
vn 0.9036 0.4284 -0.0000
vn -0.1728 -0.9850 -0.0000
vn -0.3403 -0.9403 -0.0000
vn -0.9036 -0.4284 -0.0000
vn -0.3403 0.9403 -0.0000
vn -0.9036 0.4284 -0.0000
vn 0.9756 -0.0000 0.2195
vn 0.1728 -0.0000 0.9850
vn 0.3403 -0.0000 0.9403
vn 0.9036 -0.0000 0.4284
vn 0.9756 -0.0000 -0.2195
vn 0.1728 -0.0000 -0.9850
vn 0.3403 -0.0000 -0.9403
vn 0.9036 -0.0000 -0.4284
vt 0.003279 0.003176
vt 0.031760 0.027643
vt 0.031683 0.248222
vt 0.003206 0.258660
vt 0.310556 0.003207
vt 0.324797 0.027671
vt 0.324759 0.248250
vt 0.310519 0.258700
vt 0.619186 0.003294
vt 0.642704 0.003294
vt 0.642704 0.258830
vt 0.619186 0.258830
vt 0.031672 0.269137
vt 0.611975 0.258676
vt 0.583524 0.269139
vt 0.583514 0.248248
vt 0.583457 0.027691
vt 0.611939 0.003232
vt 0.331218 0.032197
vt 0.574516 0.032197
vt 0.574516 0.236480
vt 0.331218 0.236480
vt 0.324752 0.269165
vt 0.290442 0.269124
vt 0.290436 0.248232
vt 0.324796 0.709601
vt 0.583719 0.709574
vt 0.612237 0.732653
vt 0.310554 0.732653
vt 0.281455 0.032197
vt 0.281455 0.236480
vt 0.038156 0.236480
vt 0.038156 0.032197
vt 0.066737 0.281854
vt 0.066737 0.583221
vt 0.043219 0.583221
vt 0.043219 0.281854
vt 0.094302 0.281854
vt 0.094302 0.583221
vt 0.070784 0.583221
vt 0.070784 0.281854
vt 0.290425 0.027682
vt 0.304668 0.003222
vt 0.031503 0.709569
vt 0.290424 0.709554
vt 0.304668 0.732603
vt 0.002987 0.732653
vt 0.642704 0.732653
vt 0.619186 0.732653
vt 0.304667 0.258672
vt 0.120416 0.525189
vt 0.099247 0.525189
vt 0.099247 0.280473
vt 0.120416 0.280473
vt 0.958978 0.427986
vt 0.937809 0.427986
vt 0.937809 0.002505
vt 0.958978 0.002505
vt 0.646751 0.732653
vt 0.646751 0.258830
vt 0.670269 0.258830
vt 0.670269 0.732653
vt 0.646751 0.003294
vt 0.670269 0.003294
vt 0.932864 0.002492
vt 0.932864 0.647056
vt 0.674233 0.647056
vt 0.674233 0.002492
vt 0.002492 0.998150
vt 0.002492 0.739519
vt 0.647056 0.739519
vt 0.647056 0.998150
vt 0.890202 0.662371
vt 0.899495 0.653653
vt 0.899495 0.914003
vt 0.890310 0.905110
vt 0.346572 0.532961
vt 0.337278 0.541679
vt 0.337279 0.281328
vt 0.346464 0.290222
vt 0.550823 0.533705
vt 0.560008 0.542599
vt 0.550715 0.290966
vt 0.560008 0.282248
vt 0.686059 0.904365
vt 0.676766 0.913083
vt 0.676766 0.652733
vt 0.685951 0.661626
vt 0.576664 0.702061
vt 0.331859 0.702100
vt 0.331803 0.276674
vt 0.038569 0.702069
vt 0.038719 0.276647
vt 0.283373 0.702041
vt 0.576465 0.276638
vt 0.283380 0.276622
vt 0.937809 0.434843
vt 0.958978 0.434843
vt 0.958978 0.860324
vt 0.937809 0.860324
vt 0.125362 0.280474
vt 0.146531 0.280473
vt 0.146531 0.525189
vt 0.125362 0.525189
vt 0.230012 0.347077
vt 0.230012 0.337857
vt 0.231040 0.335018
vt 0.233521 0.333842
vt 0.248930 0.333842
vt 0.251411 0.335018
vt 0.252439 0.337857
vt 0.252439 0.347077
vt 0.251411 0.349917
vt 0.248930 0.351093
vt 0.233521 0.351093
vt 0.231040 0.349917
vt 0.218773 0.337569
vt 0.223423 0.335429
vt 0.223423 0.347190
vt 0.219167 0.345923
vt 0.200367 0.353976
vt 0.202125 0.349862
vt 0.216112 0.349484
vt 0.218618 0.353995
vt 0.201356 0.334485
vt 0.199000 0.329976
vt 0.217150 0.329786
vt 0.215395 0.333837
vt 0.198691 0.346325
vt 0.199844 0.348630
vt 0.196939 0.352078
vt 0.194053 0.348417
vt 0.221827 0.351008
vt 0.218295 0.348282
vt 0.194018 0.336605
vt 0.195758 0.332767
vt 0.199210 0.335497
vt 0.198254 0.337977
vt 0.217497 0.335140
vt 0.220520 0.331716
vt 0.191505 0.330782
vt 0.184934 0.330782
vt 0.184934 0.323719
vt 0.191505 0.323719
vt 0.248087 0.296110
vt 0.248087 0.301191
vt 0.239497 0.302682
vt 0.239497 0.296110
vt 0.184366 0.319176
vt 0.184366 0.312605
vt 0.192956 0.319176
vt 0.240786 0.307569
vt 0.206254 0.307569
vt 0.206254 0.302681
vt 0.151124 0.312605
vt 0.151124 0.307717
vt 0.185656 0.307717
vt 0.151692 0.330782
vt 0.151692 0.323719
vt 0.207655 0.298865
vt 0.207655 0.293977
vt 0.214718 0.293977
vt 0.214718 0.298865
vt 0.192956 0.314096
vt 0.228459 0.283096
vt 0.233540 0.283096
vt 0.233540 0.290160
vt 0.228459 0.290160
vt 0.245948 0.305701
vt 0.190818 0.309585
vt 0.244021 0.290160
vt 0.238531 0.290160
vt 0.238531 0.283096
vt 0.244021 0.283096
vt 0.278553 0.283096
vt 0.278553 0.290160
vt 0.151669 0.340759
vt 0.152697 0.337919
vt 0.155178 0.336743
vt 0.170587 0.336743
vt 0.173068 0.337919
vt 0.174096 0.340759
vt 0.174096 0.349979
vt 0.173068 0.352819
vt 0.170587 0.353995
vt 0.155178 0.353995
vt 0.152697 0.352819
vt 0.151669 0.349979
vt 0.163342 0.287258
vt 0.154122 0.287258
vt 0.154122 0.283324
vt 0.163342 0.283324
vt 0.205268 0.283324
vt 0.220677 0.283324
vt 0.220677 0.287258
vt 0.205268 0.287258
vt 0.184517 0.287258
vt 0.169108 0.287258
vt 0.169108 0.283324
vt 0.184517 0.283324
vt 0.199503 0.287258
vt 0.199503 0.283324
vt 0.202523 0.283324
vt 0.202523 0.287258
vt 0.151102 0.287258
vt 0.151102 0.283324
vt 0.223423 0.283324
vt 0.223423 0.287258
vt 0.190283 0.283324
vt 0.190283 0.287258
vt 0.187263 0.287258
vt 0.187263 0.283324
vt 0.166362 0.283324
vt 0.166362 0.287258
vt 0.271490 0.296771
vt 0.278553 0.296771
vt 0.278553 0.303343
vt 0.271490 0.303342
vt 0.199000 0.313520
vt 0.207590 0.320091
vt 0.199000 0.318600
vt 0.207590 0.313520
vt 0.265496 0.327996
vt 0.265496 0.336585
vt 0.258925 0.327996
vt 0.206300 0.324979
vt 0.240833 0.320091
vt 0.240833 0.324979
vt 0.254037 0.329285
vt 0.254037 0.294753
vt 0.258925 0.294753
vt 0.278553 0.336585
vt 0.271490 0.336585
vt 0.227775 0.298865
vt 0.220712 0.298865
vt 0.220712 0.293977
vt 0.227775 0.293977
vt 0.260416 0.336585
vt 0.201661 0.294703
vt 0.201661 0.301766
vt 0.196581 0.301766
vt 0.196581 0.294703
vt 0.201138 0.323111
vt 0.255906 0.334447
vt 0.186100 0.301766
vt 0.186100 0.294703
vt 0.191589 0.294703
vt 0.191589 0.301766
vt 0.151567 0.301766
vt 0.151567 0.294703
s 1
f 3/1/1 42/2/1 39/3/1 5/4/1
f 24/5/2 37/6/2 44/7/2 25/8/2
f 1/9/3 3/10/3 5/11/3 6/12/3
f 5/4/1 39/3/1 48/13/4
f 6/14/2 51/15/5 43/16/2
f 38/17/2 1/18/2 6/14/2 43/16/2
f 38/17/2 37/6/2 24/5/2 1/18/2
f 11/19/2 12/20/2 19/21/2 20/22/2
f 44/7/2 43/16/2 51/15/5 47/23/6
f 52/24/7 48/13/4 39/3/1 40/25/1
f 45/26/8 46/27/9 2/28/2 27/29/2
f 17/30/1 14/31/1 13/32/1 18/33/1
f 23/34/10 3/35/10 1/36/10 24/37/10
f 4/38/11 26/39/11 27/40/11 2/41/11
f 41/42/1 42/2/1 3/1/1 23/43/1
f 49/44/12 50/45/13 26/46/1 4/47/1
f 48/13/4 49/44/12 4/47/1 5/4/1
f 6/14/2 2/28/2 46/27/9 51/15/5
f 5/11/3 4/48/3 2/49/3 6/12/3
f 28/50/1 26/46/1 50/45/13 52/24/7
f 16/51/11 21/52/11 22/53/11 15/54/11
f 7/55/3 10/56/3 21/57/3 16/58/3
f 47/23/6 45/26/8 27/29/2 25/8/2
f 44/7/2 47/23/6 25/8/2
f 41/42/1 23/43/1 28/50/1 40/25/1
f 52/24/7 40/25/1 28/50/1
f 26/59/14 28/60/14 25/61/14 27/62/14
f 23/63/14 24/64/14 25/61/14 28/60/14
f 29/65/2 31/66/2 32/67/2 30/68/2
f 33/69/1 34/70/1 36/71/1 35/72/1
f 11/73/15 37/74/15 38/75/15 12/76/15
f 18/77/16 40/78/16 39/79/16 17/80/16
f 13/81/17 41/82/17 40/78/17 18/77/17
f 14/83/18 42/84/18 41/82/18 13/81/18
f 17/80/19 39/79/19 42/84/19 14/83/19
f 19/85/20 43/86/20 44/87/20 20/88/20
f 12/76/21 38/75/21 43/86/21 19/85/21
f 20/88/22 44/87/22 37/74/22 11/73/22
f 9/89/23 46/27/9 45/26/8 10/90/24
f 10/90/24 45/26/8 47/23/6 21/91/25
f 8/92/26 49/44/12 48/13/4 15/93/27
f 7/94/28 50/45/13 49/44/12 8/92/26
f 21/91/25 47/23/6 51/15/5 22/95/29
f 15/93/27 48/13/4 52/24/7 16/96/30
f 22/95/29 51/15/5 46/27/9 9/89/23
f 16/96/30 52/24/7 50/45/13 7/94/28
f 15/97/14 22/98/14 9/99/14 8/100/14
f 8/101/10 9/102/10 10/103/10 7/104/10
f 65/105/2 54/106/2 55/107/2 53/108/2 57/109/2 58/110/2 56/111/2 69/112/2 70/113/2 68/114/2 66/115/2 67/116/2
f 74/117/31 69/118/31 56/119/32 63/120/32
f 53/121/33 60/122/33 62/123/34 57/124/34
f 71/125/35 66/126/35 68/127/36 75/128/36
f 59/129/37 61/130/38 55/131/38 54/132/37
f 61/130/39 60/122/33 53/121/33 55/131/39
f 56/119/32 58/133/40 64/134/40 63/120/32
f 58/133/41 57/124/34 62/123/34 64/134/41
f 65/135/42 67/136/43 73/137/43 72/138/42
f 67/136/44 66/126/35 71/125/35 73/137/44
f 74/117/31 76/139/45 70/140/45 69/118/31
f 76/139/46 75/128/36 68/127/36 70/140/46
f 59/129/37 54/132/37 65/135/42 72/138/42
f 81/141/14 79/142/14 80/143/14 82/144/14
f 77/145/10 88/146/10 79/147/10
f 77/145/10 79/147/10 81/148/10
f 82/149/11 80/150/11 78/151/11
f 87/152/10 86/153/10 84/154/10 79/147/10
f 80/150/11 83/155/11 85/156/11 91/157/11
f 79/142/1 84/158/1 83/159/1 80/143/1
f 84/160/14 86/161/14 85/162/14 83/163/14
f 80/150/11 90/164/11 78/151/11
f 78/165/3 90/166/47 88/167/47 77/168/3
f 87/152/10 79/147/10 89/169/10
f 89/169/10 79/147/10 88/146/10
f 90/164/11 80/150/11 92/170/11
f 92/170/11 80/150/11 91/157/11
f 87/171/48 89/172/49 92/173/49 91/174/48
f 89/172/50 88/167/47 90/166/47 92/173/50
f 91/174/48 85/175/2 86/176/2 87/171/48
f 105/177/1 107/178/1 106/179/1 108/180/1 110/181/1 109/182/1 96/183/1 98/184/1 97/185/1 93/186/1 95/187/1 94/188/1
f 114/189/31 103/190/32 96/191/32 109/192/31
f 93/193/33 97/194/34 102/195/34 100/196/33
f 111/197/35 115/198/36 108/199/36 106/200/35
f 99/201/37 94/202/37 95/203/38 101/204/38
f 101/204/39 95/203/39 93/193/33 100/196/33
f 96/191/32 103/190/32 104/205/40 98/206/40
f 98/207/41 104/208/41 102/195/34 97/194/34
f 105/209/42 112/210/42 113/211/43 107/212/43
f 107/212/44 113/211/44 111/197/35 106/200/35
f 114/189/31 109/192/31 110/213/45 116/214/45
f 116/214/46 110/213/46 108/199/36 115/198/36
f 99/201/37 112/210/42 105/209/42 94/202/37
f 121/215/14 122/216/14 120/217/14 119/218/14
f 117/219/10 119/220/10 128/221/10
f 117/219/10 121/222/10 119/220/10
f 122/223/11 118/224/11 120/225/11
f 127/226/10 119/220/10 124/227/10 126/228/10
f 120/225/11 131/229/11 125/230/11 123/231/11
f 119/218/2 120/217/2 123/232/2 124/233/2
f 124/234/14 123/235/14 125/236/14 126/237/14
f 120/225/11 118/224/11 130/238/11
f 118/239/3 117/240/3 128/241/51 130/242/51
f 127/226/10 129/243/10 119/220/10
f 129/243/10 128/221/10 119/220/10
f 130/238/11 132/244/11 120/225/11
f 132/244/11 131/229/11 120/225/11
f 127/245/52 131/246/52 132/247/53 129/248/53
f 129/248/54 132/247/54 130/242/51 128/241/51
f 131/246/52 127/245/52 126/249/1 125/250/1
