# Blender 3.6.1
# www.blender.org
mtllib дверь 3.mtl
o Cube.005
v -0.692520 -7.145404 14.323331
v -0.692520 -5.037702 14.323331
v -0.692520 -7.145404 14.255369
v -0.692520 -5.037702 14.255369
v -0.692520 -6.406956 14.255369
v -0.692520 -6.406956 14.323331
v -1.502144 -5.125763 14.258763
v -0.794968 -5.125763 14.258763
v -0.794968 -5.125763 14.319938
v -1.502144 -5.125763 14.319938
v -1.500092 -7.051113 14.311444
v -0.797012 -7.051113 14.311444
v -1.500092 -7.051113 14.267256
v -0.797012 -7.051113 14.267256
v -0.794968 -6.355318 14.258763
v -1.502144 -6.355318 14.258763
v -0.797012 -6.460774 14.267256
v -1.500092 -6.460774 14.267256
v -0.797012 -6.460774 14.311444
v -1.500092 -6.460774 14.311444
v -1.502144 -6.355318 14.319938
v -0.794968 -6.355318 14.319938
v -1.563416 -7.145404 14.255369
v -1.563416 -7.145404 14.323331
v -1.563416 -6.406956 14.323331
v -1.563416 -5.037702 14.255369
v -1.563416 -5.037702 14.323331
v -1.563416 -6.406956 14.255369
v -0.774857 -6.988426 14.304710
v -1.522247 -6.988426 14.304710
v -0.774857 -5.125764 14.304710
v -1.522247 -5.125764 14.304710
v -0.774857 -6.988426 14.277447
v -1.522247 -6.988426 14.277447
v -0.774857 -5.125764 14.277447
v -1.522247 -5.125764 14.277447
v -1.522247 -7.074711 14.323331
v -0.774857 -7.074711 14.323331
v -0.774857 -6.437177 14.255369
v -1.522247 -6.437177 14.255369
v -1.522247 -7.074711 14.255369
v -0.774857 -7.074711 14.255369
v -0.774857 -6.437177 14.323331
v -1.522247 -6.437177 14.323331
v -1.522247 -5.104347 14.323331
v -0.774857 -5.104347 14.323331
v -1.522247 -6.376735 14.323331
v -0.774857 -6.376735 14.255369
v -0.774857 -5.104347 14.255369
v -1.522247 -5.104347 14.255369
v -0.774857 -6.376735 14.323331
v -1.522247 -6.376735 14.255369
v -0.713081 -6.092473 14.334702
v -0.724686 -6.102613 14.334702
v -0.716476 -6.099643 14.334702
v -0.724686 -6.037804 14.334702
v -0.713081 -6.047945 14.334702
v -0.716476 -6.040774 14.334702
v -0.724686 -6.102613 14.323333
v -0.713081 -6.092473 14.323333
v -0.716476 -6.099643 14.323333
v -0.713081 -6.047945 14.323333
v -0.724686 -6.037804 14.323333
v -0.716476 -6.040774 14.323333
v -0.751328 -6.102613 14.334702
v -0.762939 -6.092473 14.334702
v -0.759537 -6.099643 14.334702
v -0.762939 -6.047945 14.334702
v -0.751328 -6.037804 14.334702
v -0.759537 -6.040774 14.334702
v -0.762939 -6.092473 14.323333
v -0.751328 -6.102613 14.323333
v -0.759537 -6.099643 14.323333
v -0.751328 -6.037804 14.323333
v -0.762939 -6.047945 14.323333
v -0.759537 -6.040774 14.323333
v -0.725952 -6.080285 14.334704
v -0.725952 -6.059873 14.334704
v -0.750778 -6.080285 14.353693
v -0.750778 -6.059873 14.353693
v -0.750778 -6.080285 14.334704
v -0.750778 -6.059873 14.334704
v -0.846848 -6.059873 14.353693
v -0.846848 -6.080285 14.353693
v -0.846848 -6.059873 14.367819
v -0.846848 -6.080285 14.367819
v -0.747055 -6.080285 14.367819
v -0.725952 -6.080285 14.349385
v -0.732132 -6.080285 14.362419
v -0.725952 -6.059873 14.349385
v -0.747055 -6.059873 14.367819
v -0.732132 -6.059873 14.362419
v -0.713081 -6.092473 14.244382
v -0.724686 -6.102613 14.244382
v -0.716476 -6.099643 14.244382
v -0.724686 -6.037804 14.244382
v -0.713081 -6.047945 14.244382
v -0.716476 -6.040774 14.244382
v -0.724686 -6.102613 14.255752
v -0.713081 -6.092473 14.255752
v -0.716476 -6.099643 14.255752
v -0.713081 -6.047945 14.255752
v -0.724686 -6.037804 14.255752
v -0.716476 -6.040774 14.255752
v -0.751328 -6.102613 14.244382
v -0.762939 -6.092473 14.244382
v -0.759537 -6.099643 14.244382
v -0.762939 -6.047945 14.244382
v -0.751328 -6.037804 14.244382
v -0.759537 -6.040774 14.244382
v -0.762939 -6.092473 14.255752
v -0.751328 -6.102613 14.255752
v -0.759537 -6.099643 14.255752
v -0.751328 -6.037804 14.255752
v -0.762939 -6.047945 14.255752
v -0.759537 -6.040774 14.255752
v -0.725952 -6.080285 14.244380
v -0.725952 -6.059873 14.244380
v -0.750778 -6.080285 14.225391
v -0.750778 -6.059873 14.225391
v -0.750778 -6.080285 14.244380
v -0.750778 -6.059873 14.244380
v -0.846848 -6.059873 14.225391
v -0.846848 -6.080285 14.225391
v -0.846848 -6.059873 14.211266
v -0.846848 -6.080285 14.211266
v -0.747055 -6.080285 14.211266
v -0.725952 -6.080285 14.229699
v -0.732132 -6.080285 14.216665
v -0.725952 -6.059873 14.229699
v -0.747055 -6.059873 14.211266
v -0.732132 -6.059873 14.216665
vn -0.0000 -0.0000 -1.0000
vn -0.0000 -0.0000 1.0000
vn 1.0000 -0.0000 -0.0000
vn -0.0202 0.0205 -0.9996
vn -0.0202 0.0205 0.9996
vn 0.0202 0.0205 0.9996
vn 0.0202 0.0205 -0.9996
vn 0.0202 -0.0205 0.9996
vn -0.0202 -0.0205 0.9996
vn -0.0000 -1.0000 -0.0000
vn -0.0000 1.0000 -0.0000
vn -0.0202 -0.0205 -0.9996
vn 0.0202 -0.0205 -0.9996
vn -1.0000 -0.0000 -0.0000
vn 0.2531 0.2351 0.9384
vn 0.2418 0.2458 0.9387
vn -0.2418 0.2458 0.9387
vn -0.2531 0.2351 0.9384
vn 0.2531 -0.2351 -0.9384
vn 0.2418 -0.2458 -0.9387
vn -0.2418 -0.2458 -0.9387
vn -0.2531 -0.2351 -0.9384
vn 0.2531 0.2351 -0.9384
vn 0.2418 0.2458 -0.9387
vn -0.2531 0.2351 -0.9384
vn -0.2418 0.2458 -0.9387
vn -0.2531 -0.2351 0.9384
vn -0.2418 -0.2458 0.9387
vn 0.2418 -0.2458 0.9387
vn 0.2531 -0.2351 0.9384
vn -0.0848 -0.0777 0.9934
vn 0.0849 -0.0777 0.9934
vn 0.0849 0.0777 0.9934
vn -0.0849 -0.0777 -0.9934
vn -0.0849 0.0777 -0.9934
vn 0.0849 -0.0777 -0.9934
vn -0.0848 0.0777 0.9934
vn 0.0849 0.0777 -0.9934
vn -0.1727 0.9850 -0.0000
vn 0.1727 0.9850 -0.0000
vn 0.9757 -0.2193 -0.0000
vn 0.9757 0.2193 -0.0000
vn -0.9756 -0.2197 -0.0000
vn -0.9756 0.2197 -0.0000
vn 0.1727 -0.9850 -0.0000
vn 0.6727 -0.7399 -0.0000
vn 0.6727 0.7399 -0.0000
vn -0.1727 -0.9850 -0.0000
vn -0.6724 -0.7402 -0.0000
vn -0.6724 0.7402 -0.0000
vn 0.9756 -0.0000 0.2196
vn 0.1727 -0.0000 0.9850
vn 0.6725 -0.0000 0.7401
vn 0.9756 -0.0000 -0.2196
vn 0.1727 -0.0000 -0.9850
vn 0.6725 -0.0000 -0.7401
vt 0.310588 0.002340
vt 0.339084 0.026820
vt 0.339009 0.247500
vt 0.310517 0.257948
vt 0.002421 0.002335
vt 0.016665 0.026813
vt 0.016596 0.247500
vt 0.002347 0.257952
vt 0.619486 0.002437
vt 0.643016 0.002437
vt 0.643016 0.258101
vt 0.619486 0.258101
vt 0.339000 0.268425
vt 0.303954 0.257966
vt 0.275484 0.268426
vt 0.275478 0.247525
vt 0.275458 0.026855
vt 0.303959 0.002386
vt 0.265975 0.235285
vt 0.022556 0.235285
vt 0.022556 0.030899
vt 0.265975 0.030899
vt 0.016583 0.268426
vt 0.597899 0.268433
vt 0.597891 0.247530
vt 0.016400 0.709098
vt 0.275449 0.709069
vt 0.303971 0.732161
vt 0.002138 0.732161
vt 0.344064 0.235285
vt 0.344064 0.030899
vt 0.587483 0.030899
vt 0.587483 0.235285
vt 0.055386 0.583098
vt 0.055386 0.281579
vt 0.078916 0.281579
vt 0.078916 0.583098
vt 0.051149 0.281579
vt 0.051149 0.583098
vt 0.027620 0.583098
vt 0.027619 0.281579
vt 0.597877 0.026864
vt 0.612127 0.002392
vt 0.339017 0.709069
vt 0.598066 0.709099
vt 0.612326 0.732161
vt 0.310494 0.732161
vt 0.643016 0.732161
vt 0.619486 0.732161
vt 0.612129 0.257972
vt 0.084041 0.281267
vt 0.105221 0.281267
vt 0.105221 0.526104
vt 0.084041 0.526104
vt 0.960140 0.428190
vt 0.938960 0.428190
vt 0.938960 0.002496
vt 0.960140 0.002496
vt 0.647253 0.732161
vt 0.647253 0.258101
vt 0.670782 0.258101
vt 0.670782 0.732161
vt 0.647253 0.002437
vt 0.670782 0.002437
vt 0.933834 0.002513
vt 0.933834 0.647400
vt 0.675074 0.647400
vt 0.675074 0.002513
vt 0.002513 0.998136
vt 0.002513 0.739376
vt 0.647400 0.739376
vt 0.647400 0.998136
vt 0.360789 0.566996
vt 0.351492 0.575791
vt 0.351492 0.315307
vt 0.360688 0.324130
vt 0.685220 0.906040
vt 0.675923 0.914836
vt 0.675923 0.654352
vt 0.685119 0.663174
vt 0.889565 0.905066
vt 0.898761 0.913888
vt 0.889464 0.662200
vt 0.898761 0.653404
vt 0.565033 0.323155
vt 0.574330 0.314360
vt 0.574330 0.574844
vt 0.565134 0.566021
vt 0.268402 0.701575
vt 0.023478 0.701570
vt 0.023633 0.275941
vt 0.346085 0.701565
vt 0.346046 0.275917
vt 0.591009 0.701581
vt 0.268416 0.275927
vt 0.590829 0.275957
vt 0.940421 0.435070
vt 0.961601 0.435070
vt 0.961601 0.860764
vt 0.940421 0.860764
vt 0.110346 0.281267
vt 0.131526 0.281267
vt 0.131526 0.526104
vt 0.110346 0.526104
vt 0.248349 0.328298
vt 0.257573 0.328298
vt 0.260415 0.329326
vt 0.261591 0.331809
vt 0.261591 0.347225
vt 0.260415 0.349708
vt 0.257573 0.350736
vt 0.248349 0.350736
vt 0.245507 0.349708
vt 0.244329 0.347225
vt 0.244329 0.331809
vt 0.245507 0.329326
vt 0.215180 0.294189
vt 0.215180 0.298126
vt 0.205956 0.298126
vt 0.205956 0.294189
vt 0.164336 0.339045
vt 0.164336 0.335108
vt 0.179752 0.335108
vt 0.179752 0.339045
vt 0.236367 0.294189
vt 0.236367 0.298126
vt 0.220950 0.298126
vt 0.220950 0.294189
vt 0.041367 0.242592
vt 0.041367 0.239570
vt 0.045303 0.239570
vt 0.045303 0.242592
vt 0.061827 0.242592
vt 0.061827 0.239846
vt 0.065763 0.239846
vt 0.065763 0.242592
vt 0.055533 0.239570
vt 0.055533 0.242592
vt 0.051597 0.242592
vt 0.051597 0.239570
vt 0.075993 0.239846
vt 0.075993 0.242592
vt 0.072056 0.242592
vt 0.072056 0.239846
vt 0.242137 0.298126
vt 0.239114 0.298126
vt 0.239114 0.294189
vt 0.242137 0.294189
vt 0.218202 0.294189
vt 0.218202 0.298126
vt 0.251361 0.294189
vt 0.251361 0.298126
vt 0.198373 0.326132
vt 0.204947 0.326132
vt 0.204947 0.333199
vt 0.198373 0.333199
vt 0.192905 0.318812
vt 0.192905 0.323894
vt 0.184310 0.325386
vt 0.184310 0.318812
vt 0.145030 0.307120
vt 0.145030 0.313695
vt 0.136435 0.307120
vt 0.185598 0.330276
vt 0.151049 0.330276
vt 0.151049 0.325386
vt 0.178291 0.313695
vt 0.178291 0.318585
vt 0.143741 0.318585
vt 0.238208 0.326132
vt 0.238208 0.333199
vt 0.141756 0.330276
vt 0.136865 0.330276
vt 0.136865 0.323209
vt 0.141756 0.323209
vt 0.136435 0.312203
vt 0.136938 0.282290
vt 0.142021 0.282290
vt 0.142021 0.289357
vt 0.136938 0.289357
vt 0.190765 0.328407
vt 0.138574 0.316716
vt 0.152509 0.289357
vt 0.147015 0.289357
vt 0.147015 0.282290
vt 0.152509 0.282290
vt 0.187059 0.282290
vt 0.187059 0.289357
vt 0.136855 0.340417
vt 0.137883 0.337575
vt 0.140365 0.336397
vt 0.155782 0.336397
vt 0.158264 0.337575
vt 0.159293 0.340417
vt 0.159293 0.349641
vt 0.158264 0.352483
vt 0.155782 0.353659
vt 0.140365 0.353659
vt 0.137883 0.352483
vt 0.136855 0.349641
vt 0.146494 0.301048
vt 0.137270 0.301048
vt 0.137270 0.297112
vt 0.146494 0.297112
vt 0.184795 0.338031
vt 0.200212 0.338031
vt 0.200212 0.341967
vt 0.184795 0.341967
vt 0.167681 0.301048
vt 0.152264 0.301048
vt 0.152264 0.297112
vt 0.167681 0.297112
vt 0.024844 0.242592
vt 0.020907 0.242592
vt 0.020907 0.239570
vt 0.024844 0.239570
vt 0.086223 0.242592
vt 0.082286 0.242592
vt 0.082286 0.239846
vt 0.086223 0.239846
vt 0.031137 0.239570
vt 0.035074 0.239570
vt 0.035074 0.242592
vt 0.031137 0.242592
vt 0.092516 0.239846
vt 0.096452 0.239846
vt 0.096452 0.242592
vt 0.092516 0.242592
vt 0.173451 0.297112
vt 0.173451 0.301048
vt 0.170429 0.301048
vt 0.170429 0.297112
vt 0.149517 0.297112
vt 0.149517 0.301048
vt 0.182675 0.301048
vt 0.182675 0.297112
vt 0.257446 0.281673
vt 0.264513 0.281673
vt 0.264513 0.288247
vt 0.257446 0.288247
vt 0.189045 0.298352
vt 0.197640 0.304926
vt 0.189045 0.303435
vt 0.197640 0.298352
vt 0.236920 0.310043
vt 0.245515 0.310043
vt 0.236920 0.316618
vt 0.196351 0.309817
vt 0.230901 0.304926
vt 0.230901 0.309817
vt 0.238209 0.321508
vt 0.203659 0.321508
vt 0.203659 0.316618
vt 0.264513 0.321508
vt 0.257446 0.321508
vt 0.209935 0.344890
vt 0.209935 0.337823
vt 0.214826 0.337823
vt 0.214826 0.344890
vt 0.245515 0.315126
vt 0.193932 0.289357
vt 0.193932 0.282290
vt 0.199015 0.282290
vt 0.199015 0.289357
vt 0.191185 0.307948
vt 0.243376 0.319639
vt 0.209504 0.282290
vt 0.209504 0.289357
vt 0.204009 0.289357
vt 0.204009 0.282290
vt 0.244054 0.282290
vt 0.244054 0.289357
s 1
f 3/1/1 42/2/1 39/3/1 5/4/1
f 24/5/2 37/6/2 44/7/2 25/8/2
f 1/9/3 3/10/3 5/11/3 6/12/3
f 5/4/1 39/3/1 48/13/4
f 6/14/2 51/15/5 43/16/2
f 38/17/2 1/18/2 6/14/2 43/16/2
f 38/17/2 37/6/2 24/5/2 1/18/2
f 11/19/2 12/20/2 19/21/2 20/22/2
f 44/7/2 43/16/2 51/15/5 47/23/6
f 52/24/7 48/13/4 39/3/1 40/25/1
f 45/26/8 46/27/9 2/28/2 27/29/2
f 17/30/1 14/31/1 13/32/1 18/33/1
f 23/34/10 3/35/10 1/36/10 24/37/10
f 4/38/11 26/39/11 27/40/11 2/41/11
f 41/42/1 42/2/1 3/1/1 23/43/1
f 49/44/12 50/45/13 26/46/1 4/47/1
f 48/13/4 49/44/12 4/47/1 5/4/1
f 6/14/2 2/28/2 46/27/9 51/15/5
f 5/11/3 4/48/3 2/49/3 6/12/3
f 28/50/1 26/46/1 50/45/13 52/24/7
f 16/51/11 21/52/11 22/53/11 15/54/11
f 7/55/3 10/56/3 21/57/3 16/58/3
f 47/23/6 45/26/8 27/29/2 25/8/2
f 44/7/2 47/23/6 25/8/2
f 41/42/1 23/43/1 28/50/1 40/25/1
f 52/24/7 40/25/1 28/50/1
f 26/59/14 28/60/14 25/61/14 27/62/14
f 23/63/14 24/64/14 25/61/14 28/60/14
f 29/65/2 31/66/2 32/67/2 30/68/2
f 33/69/1 34/70/1 36/71/1 35/72/1
f 11/73/15 37/74/16 38/75/17 12/76/18
f 18/77/19 40/78/20 39/79/21 17/80/22
f 13/81/23 41/82/24 40/78/20 18/77/19
f 14/83/25 42/84/26 41/82/24 13/81/23
f 17/80/22 39/79/21 42/84/26 14/83/25
f 19/85/27 43/86/28 44/87/29 20/88/30
f 12/76/18 38/75/17 43/86/28 19/85/27
f 20/88/30 44/87/29 37/74/16 11/73/15
f 9/89/31 46/27/9 45/26/8 10/90/32
f 10/90/32 45/26/8 47/23/6 21/91/33
f 8/92/34 49/44/12 48/13/4 15/93/35
f 7/94/36 50/45/13 49/44/12 8/92/34
f 21/91/33 47/23/6 51/15/5 22/95/37
f 15/93/35 48/13/4 52/24/7 16/96/38
f 22/95/37 51/15/5 46/27/9 9/89/31
f 16/96/38 52/24/7 50/45/13 7/94/36
f 15/97/14 22/98/14 9/99/14 8/100/14
f 8/101/10 9/102/10 10/103/10 7/104/10
f 65/105/2 54/106/2 55/107/2 53/108/2 57/109/2 58/110/2 56/111/2 69/112/2 70/113/2 68/114/2 66/115/2 67/116/2
f 74/117/39 69/118/39 56/119/40 63/120/40
f 53/121/41 60/122/41 62/123/42 57/124/42
f 71/125/43 66/126/43 68/127/44 75/128/44
f 59/129/45 61/130/46 55/131/46 54/132/45
f 61/133/46 60/134/41 53/135/41 55/136/46
f 56/137/40 58/138/47 64/139/47 63/140/40
f 58/141/47 57/142/42 62/143/42 64/144/47
f 65/145/48 67/146/49 73/147/49 72/148/48
f 67/146/49 66/126/43 71/125/43 73/147/49
f 74/117/39 76/149/50 70/150/50 69/118/39
f 76/149/50 75/128/44 68/127/44 70/150/50
f 59/151/45 54/152/45 65/145/48 72/148/48
f 81/153/14 79/154/14 80/155/14 82/156/14
f 77/157/10 88/158/10 79/159/10
f 77/157/10 79/159/10 81/160/10
f 82/161/11 80/162/11 78/163/11
f 87/164/10 86/165/10 84/166/10 79/159/10
f 80/162/11 83/167/11 85/168/11 91/169/11
f 79/154/1 84/170/1 83/171/1 80/155/1
f 84/172/14 86/173/14 85/174/14 83/175/14
f 80/162/11 90/176/11 78/163/11
f 78/177/3 90/178/51 88/179/51 77/180/3
f 87/164/10 79/159/10 89/181/10
f 89/181/10 79/159/10 88/158/10
f 90/176/11 80/162/11 92/182/11
f 92/182/11 80/162/11 91/169/11
f 87/183/52 89/184/53 92/185/53 91/186/52
f 89/184/53 88/179/51 90/178/51 92/185/53
f 91/186/52 85/187/2 86/188/2 87/183/52
f 105/189/1 107/190/1 106/191/1 108/192/1 110/193/1 109/194/1 96/195/1 98/196/1 97/197/1 93/198/1 95/199/1 94/200/1
f 114/201/39 103/202/40 96/203/40 109/204/39
f 93/205/41 97/206/42 102/207/42 100/208/41
f 111/209/43 115/210/44 108/211/44 106/212/43
f 99/213/45 94/214/45 95/215/46 101/216/46
f 101/217/46 95/218/46 93/219/41 100/220/41
f 96/221/40 103/222/40 104/223/47 98/224/47
f 98/225/47 104/226/47 102/227/42 97/228/42
f 105/229/48 112/230/48 113/231/49 107/232/49
f 107/232/49 113/231/49 111/209/43 106/212/43
f 114/201/39 109/204/39 110/233/50 116/234/50
f 116/234/50 110/233/50 108/211/44 115/210/44
f 99/235/45 112/230/48 105/229/48 94/236/45
f 121/237/14 122/238/14 120/239/14 119/240/14
f 117/241/10 119/242/10 128/243/10
f 117/241/10 121/244/10 119/242/10
f 122/245/11 118/246/11 120/247/11
f 127/248/10 119/242/10 124/249/10 126/250/10
f 120/247/11 131/251/11 125/252/11 123/253/11
f 119/240/2 120/239/2 123/254/2 124/255/2
f 124/256/14 123/257/14 125/258/14 126/259/14
f 120/247/11 118/246/11 130/260/11
f 118/261/3 117/262/3 128/263/54 130/264/54
f 127/248/10 129/265/10 119/242/10
f 129/265/10 128/243/10 119/242/10
f 130/260/11 132/266/11 120/247/11
f 132/266/11 131/251/11 120/247/11
f 127/267/55 131/268/55 132/269/56 129/270/56
f 129/270/56 132/269/56 130/264/54 128/263/54
f 131/268/55 127/267/55 126/271/1 125/272/1
