# Blender 3.6.1
# www.blender.org
mtllib дверь 8.mtl
o Cube.003
v 71.625031 -7.145403 6.104422
v 71.625031 -5.037702 6.104422
v 71.625031 -7.145403 6.172384
v 71.625031 -5.037702 6.172384
v 71.625031 -6.406956 6.172384
v 71.625031 -6.406956 6.104422
v 72.434662 -5.125764 6.168997
v 71.727478 -5.125764 6.168997
v 71.727478 -5.125764 6.107809
v 72.434662 -5.125764 6.107809
v 72.432587 -7.051113 6.116323
v 71.729523 -7.051113 6.116323
v 72.432587 -7.051113 6.160513
v 71.729523 -7.051113 6.160513
v 71.727478 -6.355318 6.168997
v 72.434662 -6.355318 6.168997
v 71.729523 -6.460774 6.160513
v 72.432587 -6.460774 6.160513
v 71.729523 -6.460774 6.116323
v 72.432587 -6.460774 6.116323
v 72.434662 -6.355318 6.107809
v 71.727478 -6.355318 6.107809
v 72.495911 -7.145403 6.172384
v 72.495911 -7.145403 6.104422
v 72.495911 -6.406956 6.104422
v 72.495911 -5.037702 6.172384
v 72.495911 -5.037702 6.104422
v 72.495911 -6.406956 6.172384
v 71.707367 -6.988425 6.123037
v 72.454742 -6.988425 6.123037
v 71.707367 -5.125764 6.123037
v 72.454742 -5.125764 6.123037
v 71.707367 -6.988425 6.150320
v 72.454742 -6.988425 6.150320
v 71.707367 -5.125764 6.150320
v 72.454742 -5.125764 6.150320
v 72.454742 -7.074710 6.104422
v 71.707367 -7.074710 6.104422
v 71.707367 -6.437177 6.172384
v 72.454742 -6.437177 6.172384
v 72.454742 -7.074710 6.172384
v 71.707367 -7.074710 6.172384
v 71.707367 -6.437177 6.104422
v 72.454742 -6.437177 6.104422
v 72.454742 -5.104347 6.104422
v 71.707367 -5.104347 6.104422
v 72.454742 -6.376735 6.104422
v 71.707367 -6.376735 6.172384
v 71.707367 -5.104347 6.172384
v 72.454742 -5.104347 6.172384
v 71.707367 -6.376735 6.104422
v 72.454742 -6.376735 6.172384
v 71.645599 -6.092473 6.093069
v 71.657196 -6.102613 6.093069
v 71.648987 -6.099643 6.093069
v 71.657196 -6.037805 6.093069
v 71.645599 -6.047945 6.093069
v 71.648987 -6.040774 6.093069
v 71.657196 -6.102613 6.104422
v 71.645599 -6.092473 6.104422
v 71.648987 -6.099643 6.104422
v 71.645599 -6.047945 6.104422
v 71.657196 -6.037805 6.104422
v 71.648987 -6.040774 6.104422
v 71.683838 -6.102613 6.093069
v 71.695435 -6.092473 6.093069
v 71.692047 -6.099643 6.093069
v 71.695435 -6.047945 6.093069
v 71.683838 -6.037805 6.093069
v 71.692047 -6.040774 6.093069
v 71.695435 -6.092473 6.104422
v 71.683838 -6.102613 6.104422
v 71.692047 -6.099643 6.104422
v 71.683838 -6.037805 6.104422
v 71.695435 -6.047945 6.104422
v 71.692047 -6.040774 6.104422
v 71.658447 -6.080285 6.093069
v 71.658447 -6.059873 6.093069
v 71.683289 -6.080285 6.074057
v 71.683289 -6.059873 6.074057
v 71.683289 -6.080285 6.093069
v 71.683289 -6.059873 6.093069
v 71.779358 -6.059873 6.074057
v 71.779358 -6.080285 6.074057
v 71.779358 -6.059873 6.059927
v 71.779358 -6.080285 6.059927
v 71.679565 -6.080285 6.059927
v 71.658447 -6.080285 6.078360
v 71.664642 -6.080285 6.065329
v 71.658447 -6.059873 6.078360
v 71.679565 -6.059873 6.059927
v 71.664642 -6.059873 6.065329
v 71.645599 -6.092473 6.183371
v 71.657196 -6.102613 6.183371
v 71.648987 -6.099643 6.183371
v 71.657196 -6.037805 6.183371
v 71.645599 -6.047945 6.183371
v 71.648987 -6.040774 6.183371
v 71.657196 -6.102613 6.172018
v 71.645599 -6.092473 6.172018
v 71.648987 -6.099643 6.172018
v 71.645599 -6.047945 6.172018
v 71.657196 -6.037805 6.172018
v 71.648987 -6.040774 6.172018
v 71.683838 -6.102613 6.183371
v 71.695435 -6.092473 6.183371
v 71.692047 -6.099643 6.183371
v 71.695435 -6.047945 6.183371
v 71.683838 -6.037805 6.183371
v 71.692047 -6.040774 6.183371
v 71.695435 -6.092473 6.172018
v 71.683838 -6.102613 6.172018
v 71.692047 -6.099643 6.172018
v 71.683838 -6.037805 6.172018
v 71.695435 -6.047945 6.172018
v 71.692047 -6.040774 6.172018
v 71.658447 -6.080285 6.183371
v 71.658447 -6.059873 6.183371
v 71.683289 -6.080285 6.202383
v 71.683289 -6.059873 6.202383
v 71.683289 -6.080285 6.183371
v 71.683289 -6.059873 6.183371
v 71.779358 -6.059873 6.202383
v 71.779358 -6.080285 6.202383
v 71.779358 -6.059873 6.216482
v 71.779358 -6.080285 6.216482
v 71.679565 -6.080285 6.216482
v 71.658447 -6.080285 6.198050
v 71.664642 -6.080285 6.211081
v 71.658447 -6.059873 6.198050
v 71.679565 -6.059873 6.216482
v 71.664642 -6.059873 6.211081
vn -0.0000 -0.0000 1.0000
vn -0.0000 -0.0000 -1.0000
vn -1.0000 -0.0000 -0.0000
vn 0.0201 0.0205 0.9996
vn 0.0201 0.0205 -0.9996
vn -0.0201 0.0205 -0.9996
vn -0.0201 0.0205 0.9996
vn -0.0201 -0.0205 -0.9996
vn 0.0201 -0.0205 -0.9996
vn -0.0000 -1.0000 -0.0000
vn -0.0000 1.0000 -0.0000
vn 0.0201 -0.0205 0.9996
vn -0.0201 -0.0205 0.9996
vn 1.0000 -0.0000 -0.0000
vn -0.2534 0.2353 -0.9383
vn -0.2421 0.2461 -0.9385
vn 0.2421 0.2461 -0.9385
vn 0.2534 0.2353 -0.9383
vn -0.2528 -0.2348 0.9386
vn -0.2415 -0.2455 0.9388
vn 0.2415 -0.2455 0.9388
vn 0.2528 -0.2348 0.9386
vn -0.2528 0.2348 0.9386
vn -0.2415 0.2455 0.9388
vn 0.2528 0.2348 0.9386
vn 0.2415 0.2455 0.9388
vn 0.2534 -0.2353 -0.9383
vn 0.2421 -0.2461 -0.9385
vn -0.2421 -0.2461 -0.9385
vn -0.2534 -0.2353 -0.9383
vn 0.0847 -0.0776 -0.9934
vn -0.0848 -0.0776 -0.9934
vn -0.0848 0.0776 -0.9934
vn 0.0847 -0.0776 0.9934
vn 0.0847 0.0776 0.9934
vn -0.0848 -0.0776 0.9934
vn 0.0847 0.0776 -0.9934
vn -0.0848 0.0776 0.9934
vn 0.1727 0.9850 -0.0000
vn -0.1727 0.9850 -0.0000
vn -0.9757 -0.2189 -0.0000
vn -0.9757 0.2189 -0.0000
vn 0.9757 -0.2189 -0.0000
vn 0.9757 0.2189 -0.0000
vn -0.1727 -0.9850 -0.0000
vn -0.6730 -0.7396 -0.0000
vn -0.6730 0.7396 -0.0000
vn 0.1727 -0.9850 -0.0000
vn 0.6730 -0.7396 -0.0000
vn 0.6730 0.7396 -0.0000
vn -0.9755 -0.0000 -0.2201
vn -0.1728 -0.0000 -0.9850
vn -0.6722 -0.0000 -0.7404
vn -0.9755 -0.0000 0.2201
vn -0.1728 -0.0000 0.9850
vn -0.6722 -0.0000 0.7404
vt 0.002238 0.002306
vt 0.030735 0.026788
vt 0.030653 0.247482
vt 0.002158 0.257930
vt 0.310769 0.002312
vt 0.325014 0.026790
vt 0.324946 0.247485
vt 0.310697 0.257937
vt 0.619485 0.002412
vt 0.643016 0.002412
vt 0.643016 0.258085
vt 0.619485 0.258085
vt 0.030642 0.268408
vt 0.612309 0.257950
vt 0.583837 0.268410
vt 0.583831 0.247509
vt 0.583810 0.026831
vt 0.612313 0.002361
vt 0.037167 0.030893
vt 0.280589 0.030893
vt 0.280589 0.235285
vt 0.037167 0.235285
vt 0.324934 0.268412
vt 0.289546 0.268418
vt 0.289538 0.247514
vt 0.324751 0.709097
vt 0.583803 0.709068
vt 0.612326 0.732161
vt 0.310489 0.732161
vt 0.329447 0.235285
vt 0.329447 0.030893
vt 0.572869 0.030893
vt 0.572869 0.235285
vt 0.065763 0.281574
vt 0.065763 0.583098
vt 0.042232 0.583098
vt 0.042232 0.281574
vt 0.069999 0.583098
vt 0.069999 0.281574
vt 0.093530 0.281574
vt 0.093530 0.583098
vt 0.289527 0.026849
vt 0.303778 0.002378
vt 0.030658 0.709068
vt 0.289710 0.709098
vt 0.303971 0.732161
vt 0.002133 0.732161
vt 0.643016 0.732161
vt 0.619485 0.732161
vt 0.303775 0.257957
vt 0.124955 0.281256
vt 0.146140 0.281256
vt 0.146140 0.526104
vt 0.124955 0.526104
vt 0.960140 0.428190
vt 0.938955 0.428190
vt 0.938955 0.002482
vt 0.960140 0.002482
vt 0.647252 0.732161
vt 0.647252 0.258085
vt 0.670782 0.258085
vt 0.670782 0.732161
vt 0.647252 0.002412
vt 0.670782 0.002412
vt 0.933834 0.002491
vt 0.933834 0.647400
vt 0.675071 0.647400
vt 0.675071 0.002491
vt 0.002491 0.998136
vt 0.002491 0.739372
vt 0.647400 0.739372
vt 0.647400 0.998136
vt 0.550417 0.308757
vt 0.559716 0.299972
vt 0.559693 0.560344
vt 0.550542 0.551658
vt 0.889468 0.662423
vt 0.898761 0.653643
vt 0.898738 0.914007
vt 0.889592 0.905326
vt 0.685097 0.663084
vt 0.675902 0.654249
vt 0.685244 0.905896
vt 0.675902 0.914836
vt 0.346195 0.552231
vt 0.336847 0.561177
vt 0.336847 0.300582
vt 0.346047 0.309422
vt 0.576756 0.701574
vt 0.331821 0.701570
vt 0.331975 0.275926
vt 0.037726 0.701564
vt 0.037689 0.275900
vt 0.282661 0.701580
vt 0.576770 0.275911
vt 0.282483 0.275941
vt 0.938955 0.435056
vt 0.960140 0.435056
vt 0.960140 0.860764
vt 0.938955 0.860764
vt 0.119835 0.526104
vt 0.098650 0.526104
vt 0.098650 0.281256
vt 0.119835 0.281256
vt 0.255227 0.343798
vt 0.255227 0.334574
vt 0.256256 0.331732
vt 0.258738 0.330559
vt 0.274155 0.330559
vt 0.276638 0.331732
vt 0.277666 0.334574
vt 0.277666 0.343798
vt 0.276638 0.346640
vt 0.274155 0.347813
vt 0.258738 0.347813
vt 0.256256 0.346640
vt 0.188065 0.301048
vt 0.188065 0.297118
vt 0.197289 0.297118
vt 0.197289 0.301048
vt 0.247635 0.321508
vt 0.247635 0.317577
vt 0.263052 0.317577
vt 0.263052 0.321508
vt 0.166880 0.301048
vt 0.166880 0.297118
vt 0.182297 0.297118
vt 0.182297 0.301048
vt 0.049688 0.239570
vt 0.049688 0.242592
vt 0.045757 0.242592
vt 0.045757 0.239570
vt 0.059917 0.239847
vt 0.059917 0.242592
vt 0.055987 0.242592
vt 0.055987 0.239847
vt 0.035527 0.242592
vt 0.035527 0.239570
vt 0.039458 0.239570
vt 0.039458 0.242592
vt 0.066217 0.242592
vt 0.066217 0.239847
vt 0.070147 0.239847
vt 0.070147 0.242592
vt 0.161111 0.297118
vt 0.164134 0.297118
vt 0.164134 0.301048
vt 0.161111 0.301048
vt 0.185042 0.301048
vt 0.185042 0.297118
vt 0.151887 0.301048
vt 0.151887 0.297118
vt 0.191443 0.333199
vt 0.184861 0.333199
vt 0.184861 0.326132
vt 0.191443 0.326132
vt 0.264513 0.301265
vt 0.264513 0.306358
vt 0.255913 0.307847
vt 0.255913 0.301265
vt 0.159643 0.307110
vt 0.159643 0.313693
vt 0.151042 0.307110
vt 0.257202 0.312739
vt 0.222650 0.312739
vt 0.222650 0.307847
vt 0.192905 0.313693
vt 0.192905 0.318585
vt 0.158354 0.318585
vt 0.151599 0.333199
vt 0.151599 0.326132
vt 0.337075 0.280829
vt 0.341968 0.280829
vt 0.341968 0.287896
vt 0.337075 0.287896
vt 0.151042 0.312203
vt 0.201673 0.289357
vt 0.196580 0.289357
vt 0.196580 0.282290
vt 0.201673 0.282290
vt 0.262368 0.310869
vt 0.153187 0.316715
vt 0.186090 0.282290
vt 0.191585 0.282290
vt 0.191585 0.289357
vt 0.186090 0.289357
vt 0.151539 0.289357
vt 0.151539 0.282290
vt 0.151468 0.343342
vt 0.152496 0.340500
vt 0.154979 0.339327
vt 0.170396 0.339327
vt 0.172878 0.340500
vt 0.173907 0.343342
vt 0.173907 0.352566
vt 0.172878 0.355409
vt 0.170396 0.356582
vt 0.154979 0.356582
vt 0.152496 0.355409
vt 0.151468 0.352566
vt 0.240675 0.297118
vt 0.249899 0.297118
vt 0.249899 0.301048
vt 0.240675 0.301048
vt 0.201673 0.329473
vt 0.201673 0.344890
vt 0.197743 0.344890
vt 0.197743 0.329473
vt 0.219490 0.297118
vt 0.234907 0.297118
vt 0.234907 0.301048
vt 0.219490 0.301048
vt 0.191443 0.340960
vt 0.191443 0.344890
vt 0.188421 0.344890
vt 0.188421 0.340960
vt 0.076446 0.239847
vt 0.080377 0.239847
vt 0.080377 0.242592
vt 0.076446 0.242592
vt 0.211803 0.344890
vt 0.211803 0.340960
vt 0.214826 0.340960
vt 0.214826 0.344890
vt 0.090607 0.242592
vt 0.086676 0.242592
vt 0.086676 0.239847
vt 0.090607 0.239847
vt 0.213722 0.301048
vt 0.213722 0.297118
vt 0.216744 0.297118
vt 0.216744 0.301048
vt 0.237653 0.301048
vt 0.237653 0.297118
vt 0.204498 0.297118
vt 0.204498 0.301048
vt 0.210055 0.336122
vt 0.210055 0.329055
vt 0.216637 0.329055
vt 0.216637 0.336122
vt 0.199268 0.312966
vt 0.207869 0.319549
vt 0.199268 0.318049
vt 0.207869 0.312966
vt 0.264740 0.291169
vt 0.264740 0.282568
vt 0.271323 0.291169
vt 0.206580 0.324431
vt 0.241131 0.319549
vt 0.241131 0.324431
vt 0.276205 0.289880
vt 0.276205 0.324431
vt 0.271323 0.324431
vt 0.249899 0.329055
vt 0.249899 0.336122
vt 0.184136 0.337823
vt 0.184136 0.344890
vt 0.179255 0.344890
vt 0.179255 0.337823
vt 0.269823 0.282568
vt 0.257206 0.282290
vt 0.257206 0.289357
vt 0.252124 0.289357
vt 0.252124 0.282290
vt 0.201413 0.322560
vt 0.274334 0.284713
vt 0.241634 0.289357
vt 0.241634 0.282290
vt 0.247128 0.282290
vt 0.247128 0.289357
vt 0.207082 0.289357
vt 0.207082 0.282290
s 1
f 3/1/1 42/2/1 39/3/1 5/4/1
f 24/5/2 37/6/2 44/7/2 25/8/2
f 1/9/3 3/10/3 5/11/3 6/12/3
f 5/4/1 39/3/1 48/13/4
f 6/14/2 51/15/5 43/16/2
f 38/17/2 1/18/2 6/14/2 43/16/2
f 38/17/2 37/6/2 24/5/2 1/18/2
f 11/19/2 12/20/2 19/21/2 20/22/2
f 44/7/2 43/16/2 51/15/5 47/23/6
f 52/24/7 48/13/4 39/3/1 40/25/1
f 45/26/8 46/27/9 2/28/2 27/29/2
f 17/30/1 14/31/1 13/32/1 18/33/1
f 23/34/10 3/35/10 1/36/10 24/37/10
f 4/38/11 26/39/11 27/40/11 2/41/11
f 41/42/1 42/2/1 3/1/1 23/43/1
f 49/44/12 50/45/13 26/46/1 4/47/1
f 48/13/4 49/44/12 4/47/1 5/4/1
f 6/14/2 2/28/2 46/27/9 51/15/5
f 5/11/3 4/48/3 2/49/3 6/12/3
f 28/50/1 26/46/1 50/45/13 52/24/7
f 16/51/11 21/52/11 22/53/11 15/54/11
f 7/55/3 10/56/3 21/57/3 16/58/3
f 47/23/6 45/26/8 27/29/2 25/8/2
f 44/7/2 47/23/6 25/8/2
f 41/42/1 23/43/1 28/50/1 40/25/1
f 52/24/7 40/25/1 28/50/1
f 26/59/14 28/60/14 25/61/14 27/62/14
f 23/63/14 24/64/14 25/61/14 28/60/14
f 29/65/2 31/66/2 32/67/2 30/68/2
f 33/69/1 34/70/1 36/71/1 35/72/1
f 11/73/15 37/74/16 38/75/17 12/76/18
f 18/77/19 40/78/20 39/79/21 17/80/22
f 13/81/23 41/82/24 40/78/20 18/77/19
f 14/83/25 42/84/26 41/82/24 13/81/23
f 17/80/22 39/79/21 42/84/26 14/83/25
f 19/85/27 43/86/28 44/87/29 20/88/30
f 12/76/18 38/75/17 43/86/28 19/85/27
f 20/88/30 44/87/29 37/74/16 11/73/15
f 9/89/31 46/27/9 45/26/8 10/90/32
f 10/90/32 45/26/8 47/23/6 21/91/33
f 8/92/34 49/44/12 48/13/4 15/93/35
f 7/94/36 50/45/13 49/44/12 8/92/34
f 21/91/33 47/23/6 51/15/5 22/95/37
f 15/93/35 48/13/4 52/24/7 16/96/38
f 22/95/37 51/15/5 46/27/9 9/89/31
f 16/96/38 52/24/7 50/45/13 7/94/36
f 15/97/14 22/98/14 9/99/14 8/100/14
f 8/101/10 9/102/10 10/103/10 7/104/10
f 65/105/2 54/106/2 55/107/2 53/108/2 57/109/2 58/110/2 56/111/2 69/112/2 70/113/2 68/114/2 66/115/2 67/116/2
f 74/117/39 69/118/39 56/119/40 63/120/40
f 53/121/41 60/122/41 62/123/42 57/124/42
f 71/125/43 66/126/43 68/127/44 75/128/44
f 59/129/45 61/130/46 55/131/46 54/132/45
f 61/133/46 60/134/41 53/135/41 55/136/46
f 56/137/40 58/138/47 64/139/47 63/140/40
f 58/141/47 57/142/42 62/143/42 64/144/47
f 65/145/48 67/146/49 73/147/49 72/148/48
f 67/146/49 66/126/43 71/125/43 73/147/49
f 74/117/39 76/149/50 70/150/50 69/118/39
f 76/149/50 75/128/44 68/127/44 70/150/50
f 59/151/45 54/152/45 65/145/48 72/148/48
f 81/153/14 79/154/14 80/155/14 82/156/14
f 77/157/10 88/158/10 79/159/10
f 77/157/10 79/159/10 81/160/10
f 82/161/11 80/162/11 78/163/11
f 87/164/10 86/165/10 84/166/10 79/159/10
f 80/162/11 83/167/11 85/168/11 91/169/11
f 79/154/1 84/170/1 83/171/1 80/155/1
f 84/172/14 86/173/14 85/174/14 83/175/14
f 80/162/11 90/176/11 78/163/11
f 78/177/3 90/178/51 88/179/51 77/180/3
f 87/164/10 79/159/10 89/181/10
f 89/181/10 79/159/10 88/158/10
f 90/176/11 80/162/11 92/182/11
f 92/182/11 80/162/11 91/169/11
f 87/183/52 89/184/53 92/185/53 91/186/52
f 89/184/53 88/179/51 90/178/51 92/185/53
f 91/186/52 85/187/2 86/188/2 87/183/52
f 105/189/1 107/190/1 106/191/1 108/192/1 110/193/1 109/194/1 96/195/1 98/196/1 97/197/1 93/198/1 95/199/1 94/200/1
f 114/201/39 103/202/40 96/203/40 109/204/39
f 93/205/41 97/206/42 102/207/42 100/208/41
f 111/209/43 115/210/44 108/211/44 106/212/43
f 99/213/45 94/214/45 95/215/46 101/216/46
f 101/217/46 95/218/46 93/219/41 100/220/41
f 96/221/40 103/222/40 104/223/47 98/224/47
f 98/225/47 104/226/47 102/227/42 97/228/42
f 105/229/48 112/230/48 113/231/49 107/232/49
f 107/232/49 113/231/49 111/209/43 106/212/43
f 114/201/39 109/204/39 110/233/50 116/234/50
f 116/234/50 110/233/50 108/211/44 115/210/44
f 99/235/45 112/230/48 105/229/48 94/236/45
f 121/237/14 122/238/14 120/239/14 119/240/14
f 117/241/10 119/242/10 128/243/10
f 117/241/10 121/244/10 119/242/10
f 122/245/11 118/246/11 120/247/11
f 127/248/10 119/242/10 124/249/10 126/250/10
f 120/247/11 131/251/11 125/252/11 123/253/11
f 119/240/2 120/239/2 123/254/2 124/255/2
f 124/256/14 123/257/14 125/258/14 126/259/14
f 120/247/11 118/246/11 130/260/11
f 118/261/3 117/262/3 128/263/54 130/264/54
f 127/248/10 129/265/10 119/242/10
f 129/265/10 128/243/10 119/242/10
f 130/260/11 132/266/11 120/247/11
f 132/266/11 131/251/11 120/247/11
f 127/267/55 131/268/55 132/269/56 129/270/56
f 129/270/56 132/269/56 130/264/54 128/263/54
f 131/268/55 127/267/55 126/271/1 125/272/1
