# Blender 3.6.1
# www.blender.org
mtllib дверь 1.mtl
o Cube.063
v -55.690201 -7.145403 12.358228
v -55.690201 -5.037702 12.358228
v -55.690201 -7.145403 12.290266
v -55.690201 -5.037702 12.290266
v -55.690201 -6.406956 12.290266
v -55.690201 -6.406956 12.358228
v -56.499832 -5.125763 12.293660
v -55.792648 -5.125763 12.293660
v -55.792648 -5.125763 12.354835
v -56.499832 -5.125763 12.354835
v -55.772537 -7.145403 12.290266
v -56.519928 -7.145403 12.290266
v -56.497772 -7.051113 12.346341
v -55.794693 -7.051113 12.346341
v -55.772537 -7.145403 12.358228
v -56.519928 -7.145403 12.358228
v -56.497772 -7.051113 12.302153
v -55.794693 -7.051113 12.302153
v -55.792648 -6.355318 12.293660
v -56.499832 -6.355318 12.293660
v -55.794693 -6.460774 12.302153
v -56.497772 -6.460774 12.302153
v -55.794693 -6.460774 12.346341
v -56.497772 -6.460774 12.346341
v -56.499832 -6.355318 12.354835
v -55.792648 -6.355318 12.354835
v -56.561096 -7.145403 12.290266
v -56.561096 -7.145403 12.358228
v -56.561096 -6.406956 12.358228
v -56.561096 -5.037702 12.290266
v -56.561096 -5.037702 12.358228
v -56.561096 -6.406956 12.290266
v -55.772537 -6.988425 12.339607
v -56.519928 -6.988425 12.339607
v -55.772537 -5.125763 12.339607
v -56.519928 -5.125763 12.339607
v -55.772537 -6.988425 12.312344
v -56.519928 -6.988425 12.312344
v -55.772537 -5.125763 12.312344
v -56.519928 -5.125763 12.312344
v -56.519928 -7.074711 12.358228
v -55.772537 -7.074711 12.358228
v -55.772537 -6.437177 12.290266
v -56.519928 -6.437177 12.290266
v -56.519928 -7.074711 12.290266
v -55.772537 -7.074711 12.290266
v -55.772537 -6.437177 12.358228
v -56.519928 -6.437177 12.358228
v -56.519928 -5.104347 12.358228
v -55.772537 -5.104347 12.358228
v -56.519928 -6.376734 12.358228
v -55.772537 -6.376734 12.290266
v -55.772537 -5.104347 12.290266
v -56.519928 -5.104347 12.290266
v -55.772537 -6.376734 12.358228
v -56.519928 -6.376734 12.290266
v -55.710770 -6.092473 12.369599
v -55.722366 -6.102612 12.369599
v -55.714157 -6.099643 12.369599
v -55.722366 -6.037804 12.369599
v -55.710770 -6.047944 12.369599
v -55.714157 -6.040774 12.369599
v -55.722366 -6.102612 12.358230
v -55.710770 -6.092473 12.358230
v -55.714157 -6.099643 12.358230
v -55.710770 -6.047944 12.358230
v -55.722366 -6.037804 12.358230
v -55.714157 -6.040774 12.358230
v -55.749008 -6.102612 12.369599
v -55.760620 -6.092473 12.369599
v -55.757217 -6.099643 12.369599
v -55.760620 -6.047944 12.369599
v -55.749008 -6.037804 12.369599
v -55.757217 -6.040774 12.369599
v -55.760620 -6.092473 12.358230
v -55.749008 -6.102612 12.358230
v -55.757217 -6.099643 12.358230
v -55.749008 -6.037804 12.358230
v -55.760620 -6.047944 12.358230
v -55.757217 -6.040774 12.358230
v -55.723633 -6.080285 12.369601
v -55.723633 -6.059873 12.369601
v -55.748459 -6.080285 12.388590
v -55.748459 -6.059873 12.388590
v -55.748459 -6.080285 12.369601
v -55.748459 -6.059873 12.369601
v -55.844528 -6.059873 12.388590
v -55.844528 -6.080285 12.388590
v -55.844528 -6.059873 12.402716
v -55.844528 -6.080285 12.402716
v -55.744736 -6.080285 12.402716
v -55.723633 -6.080285 12.384282
v -55.729813 -6.080285 12.397316
v -55.723633 -6.059873 12.384282
v -55.744736 -6.059873 12.402716
v -55.729813 -6.059873 12.397316
v -55.710770 -6.092473 12.279279
v -55.722366 -6.102612 12.279279
v -55.714157 -6.099643 12.279279
v -55.722366 -6.037804 12.279279
v -55.710770 -6.047944 12.279279
v -55.714157 -6.040774 12.279279
v -55.722366 -6.102612 12.290648
v -55.710770 -6.092473 12.290648
v -55.714157 -6.099643 12.290648
v -55.710770 -6.047944 12.290648
v -55.722366 -6.037804 12.290648
v -55.714157 -6.040774 12.290648
v -55.749008 -6.102612 12.279279
v -55.760620 -6.092473 12.279279
v -55.757217 -6.099643 12.279279
v -55.760620 -6.047944 12.279279
v -55.749008 -6.037804 12.279279
v -55.757217 -6.040774 12.279279
v -55.760620 -6.092473 12.290648
v -55.749008 -6.102612 12.290648
v -55.757217 -6.099643 12.290648
v -55.749008 -6.037804 12.290648
v -55.760620 -6.047944 12.290648
v -55.757217 -6.040774 12.290648
v -55.723633 -6.080285 12.279277
v -55.723633 -6.059873 12.279277
v -55.748459 -6.080285 12.260288
v -55.748459 -6.059873 12.260288
v -55.748459 -6.080285 12.279277
v -55.748459 -6.059873 12.279277
v -55.844528 -6.059873 12.260288
v -55.844528 -6.080285 12.260288
v -55.844528 -6.059873 12.246162
v -55.844528 -6.080285 12.246162
v -55.744736 -6.080285 12.246162
v -55.723633 -6.080285 12.264596
v -55.729813 -6.080285 12.251562
v -55.723633 -6.059873 12.264596
v -55.744736 -6.059873 12.246162
v -55.729813 -6.059873 12.251562
vn -0.0000 -0.0000 -1.0000
vn -0.0619 0.0630 -0.9961
vn -0.0619 -0.0630 -0.9961
vn -0.0000 -0.0000 1.0000
vn 0.0620 0.0630 0.9961
vn 0.0620 -0.0630 0.9961
vn -0.0000 -1.0000 -0.0000
vn 1.0000 -0.0000 -0.0000
vn -0.0202 0.0205 -0.9996
vn -0.0202 0.0205 0.9996
vn -0.0619 -0.0630 0.9961
vn -0.0619 0.0630 0.9961
vn 0.1882 0.1747 0.9665
vn -0.1880 0.1747 0.9665
vn -0.1880 -0.1747 0.9665
vn 0.1882 -0.1747 0.9665
vn 0.0202 0.0205 0.9996
vn 0.0202 0.0205 -0.9996
vn 0.0620 -0.0630 -0.9961
vn 0.0202 -0.0205 0.9996
vn -0.0202 -0.0205 0.9996
vn -0.1881 -0.1747 -0.9665
vn -0.1881 0.1747 -0.9665
vn 0.1882 0.1747 -0.9665
vn 0.1882 -0.1747 -0.9665
vn -0.0000 1.0000 -0.0000
vn 0.0620 0.0630 -0.9961
vn -0.0202 -0.0205 -0.9996
vn 0.0202 -0.0205 -0.9996
vn -1.0000 -0.0000 -0.0000
vn -0.0848 -0.0777 0.9934
vn 0.0850 -0.0777 0.9934
vn 0.0850 0.0777 0.9934
vn -0.0848 -0.0777 -0.9934
vn -0.0848 0.0777 -0.9934
vn 0.0849 -0.0777 -0.9933
vn -0.0848 0.0777 0.9934
vn 0.0849 0.0777 -0.9933
vn -0.1727 0.9850 -0.0000
vn 0.1727 0.9850 -0.0000
vn 0.9757 -0.2189 -0.0000
vn 0.9757 0.2189 -0.0000
vn -0.9756 -0.2197 -0.0000
vn -0.9756 0.2197 -0.0000
vn 0.1727 -0.9850 -0.0000
vn 0.6730 -0.7396 -0.0000
vn 0.6730 0.7396 -0.0000
vn -0.1727 -0.9850 -0.0000
vn -0.6724 -0.7402 -0.0000
vn -0.6724 0.7402 -0.0000
vn 0.9756 -0.0000 0.2195
vn 0.1726 -0.0000 0.9850
vn 0.6725 -0.0000 0.7401
vn 0.9756 -0.0000 -0.2195
vn 0.1726 -0.0000 -0.9850
vn 0.6725 -0.0000 -0.7401
vt 0.001855 0.002103
vt 0.030529 0.026861
vt 0.030150 0.249432
vt 0.001855 0.259880
vt 0.309305 0.002292
vt 0.323721 0.026924
vt 0.324547 0.249297
vt 0.310469 0.259760
vt 0.064463 0.582839
vt 0.040912 0.582844
vt 0.040913 0.554313
vt 0.064464 0.554308
vt 0.646128 0.002457
vt 0.669679 0.002457
vt 0.669679 0.258349
vt 0.646128 0.258349
vt 0.030187 0.270177
vt 0.613105 0.259652
vt 0.584680 0.270072
vt 0.584712 0.249145
vt 0.323562 0.002251
vt 0.584076 0.026752
vt 0.612533 0.002251
vt 0.584145 0.002366
vt 0.332398 0.036155
vt 0.575309 0.035842
vt 0.576045 0.239918
vt 0.333309 0.240212
vt 0.324616 0.270066
vt 0.290291 0.269939
vt 0.290344 0.248995
vt 0.324801 0.710998
vt 0.584357 0.711015
vt 0.612888 0.734147
vt 0.310533 0.734089
vt 0.038960 0.240341
vt 0.039164 0.036097
vt 0.282109 0.035764
vt 0.281730 0.239778
vt 0.064468 0.295313
vt 0.040917 0.295313
vt 0.093413 0.282372
vt 0.093413 0.584160
vt 0.069863 0.584160
vt 0.069862 0.282372
vt 0.290929 0.026679
vt 0.030492 0.002180
vt 0.291114 0.002280
vt 0.030899 0.711019
vt 0.290320 0.710947
vt 0.304588 0.734030
vt 0.002390 0.734147
vt 0.669679 0.732831
vt 0.646128 0.732831
vt 0.304493 0.259536
vt 0.118411 0.526270
vt 0.097212 0.526270
vt 0.097212 0.281215
vt 0.118411 0.281215
vt 0.956496 0.427594
vt 0.935297 0.427594
vt 0.935297 0.001522
vt 0.956496 0.001522
vt 0.040917 0.281056
vt 0.064468 0.281056
vt 0.305237 0.002301
vt 0.618499 0.732831
vt 0.618499 0.258349
vt 0.642049 0.258349
vt 0.642049 0.732831
vt 0.618499 0.002457
vt 0.642049 0.002457
vt 0.931498 0.262355
vt 0.931498 0.907816
vt 0.672503 0.907816
vt 0.672503 0.262355
vt 0.001851 0.998597
vt 0.001851 0.739607
vt 0.647312 0.739607
vt 0.647312 0.998597
vt 0.577278 0.703499
vt 0.331869 0.703460
vt 0.331678 0.277605
vt 0.037962 0.703506
vt 0.037258 0.277687
vt 0.283263 0.703424
vt 0.577612 0.277588
vt 0.283207 0.277496
vt 0.935297 0.433063
vt 0.956496 0.433063
vt 0.956496 0.859136
vt 0.935297 0.859136
vt 0.122210 0.281215
vt 0.143409 0.281215
vt 0.143409 0.526270
vt 0.122210 0.526270
vt 0.339355 0.281463
vt 0.348583 0.281463
vt 0.351431 0.282492
vt 0.352601 0.284977
vt 0.352601 0.300407
vt 0.351431 0.302892
vt 0.348583 0.303921
vt 0.339355 0.303921
vt 0.336506 0.302892
vt 0.335331 0.300407
vt 0.335331 0.284977
vt 0.336506 0.282492
vt 0.224291 0.293403
vt 0.224291 0.297343
vt 0.215059 0.297343
vt 0.215059 0.293403
vt 0.197709 0.305237
vt 0.197709 0.301297
vt 0.213139 0.301297
vt 0.213139 0.305237
vt 0.245496 0.293403
vt 0.245496 0.297343
vt 0.230066 0.297343
vt 0.230066 0.293403
vt 0.280239 0.299974
vt 0.277214 0.299974
vt 0.277214 0.296034
vt 0.280239 0.296034
vt 0.177616 0.305120
vt 0.177616 0.307868
vt 0.173676 0.307868
vt 0.173676 0.305120
vt 0.149987 0.307868
vt 0.146962 0.307868
vt 0.146962 0.303928
vt 0.149987 0.303928
vt 0.209192 0.313131
vt 0.206444 0.313131
vt 0.206444 0.309191
vt 0.209192 0.309191
vt 0.251272 0.297343
vt 0.248246 0.297343
vt 0.248246 0.293403
vt 0.251272 0.293403
vt 0.227316 0.293403
vt 0.227316 0.297343
vt 0.260504 0.293403
vt 0.260504 0.297343
vt 0.239057 0.327108
vt 0.245638 0.327106
vt 0.245643 0.334181
vt 0.239057 0.334179
vt 0.277600 0.309549
vt 0.277607 0.314636
vt 0.269003 0.316130
vt 0.269008 0.309548
vt 0.156167 0.314813
vt 0.156167 0.321393
vt 0.147564 0.314813
vt 0.270295 0.321025
vt 0.235713 0.321025
vt 0.235717 0.316129
vt 0.189457 0.321393
vt 0.189457 0.326287
vt 0.154880 0.326287
vt 0.278923 0.327108
vt 0.278923 0.334181
vt 0.218770 0.300795
vt 0.223665 0.300795
vt 0.223665 0.307868
vt 0.218770 0.307868
vt 0.147564 0.319900
vt 0.147183 0.282375
vt 0.152271 0.282373
vt 0.152281 0.289446
vt 0.147183 0.289449
vt 0.275462 0.319153
vt 0.149708 0.324417
vt 0.162769 0.289443
vt 0.157274 0.289445
vt 0.157269 0.282372
vt 0.162775 0.282369
vt 0.197351 0.282357
vt 0.197351 0.289430
vt 0.147264 0.334084
vt 0.148294 0.331241
vt 0.150779 0.330063
vt 0.166209 0.330060
vt 0.168695 0.331238
vt 0.169722 0.334087
vt 0.169720 0.343317
vt 0.168695 0.346160
vt 0.166207 0.347338
vt 0.150779 0.347336
vt 0.148294 0.346163
vt 0.147264 0.343317
vt 0.155875 0.299974
vt 0.146643 0.299974
vt 0.146643 0.296034
vt 0.155875 0.296034
vt 0.259546 0.282877
vt 0.274976 0.282877
vt 0.274976 0.286817
vt 0.259546 0.286817
vt 0.177081 0.299974
vt 0.161651 0.299974
vt 0.161651 0.296034
vt 0.177081 0.296034
vt 0.202620 0.294320
vt 0.206561 0.294325
vt 0.206561 0.297343
vt 0.202620 0.297343
vt 0.214338 0.315762
vt 0.214338 0.311822
vt 0.217086 0.311822
vt 0.217086 0.315762
vt 0.198667 0.293398
vt 0.198666 0.297337
vt 0.195640 0.297343
vt 0.195640 0.293398
vt 0.227495 0.315762
vt 0.227495 0.311822
vt 0.230243 0.311822
vt 0.230243 0.315762
vt 0.182857 0.296034
vt 0.182857 0.299974
vt 0.179831 0.299974
vt 0.179831 0.296034
vt 0.158901 0.296034
vt 0.158901 0.299974
vt 0.192089 0.299974
vt 0.192089 0.296034
vt 0.235506 0.324477
vt 0.235506 0.331550
vt 0.228925 0.331550
vt 0.228925 0.324477
vt 0.160715 0.304289
vt 0.169318 0.310868
vt 0.160715 0.309375
vt 0.169324 0.304289
vt 0.263736 0.296394
vt 0.272338 0.296394
vt 0.263741 0.302975
vt 0.168032 0.315762
vt 0.202609 0.310865
vt 0.202614 0.315762
vt 0.265031 0.307868
vt 0.230444 0.307867
vt 0.230448 0.302973
vt 0.195635 0.331549
vt 0.195635 0.324476
vt 0.182384 0.302973
vt 0.189457 0.302973
vt 0.189457 0.307868
vt 0.182384 0.307868
vt 0.272345 0.301482
vt 0.203762 0.289447
vt 0.203762 0.282377
vt 0.208850 0.282374
vt 0.208850 0.289447
vt 0.162859 0.313893
vt 0.270199 0.305998
vt 0.219349 0.282374
vt 0.219349 0.289447
vt 0.213853 0.289447
vt 0.213853 0.282374
vt 0.253925 0.282374
vt 0.253925 0.289449
s 1
f 3/1/1 46/2/2 43/3/3 5/4/1
f 28/5/4 41/6/5 48/7/6 29/8/4
f 3/9/7 1/10/7 15/11/7 11/12/7
f 1/13/8 3/14/8 5/15/8 6/16/8
f 5/4/1 43/3/3 52/17/9
f 6/18/4 55/19/10 47/20/11
f 28/5/4 16/21/4 41/6/5
f 42/22/12 1/23/4 6/18/4 47/20/11
f 15/24/4 1/23/4 42/22/12
f 42/22/12 41/6/5 16/21/4 15/24/4
f 13/25/13 14/26/14 23/27/15 24/28/16
f 48/7/6 47/20/11 55/19/10 51/29/17
f 56/30/18 52/17/9 43/3/3 44/31/19
f 49/32/20 50/33/21 2/34/4 31/35/4
f 21/36/22 18/37/23 17/38/24 22/39/25
f 12/40/7 11/12/7 15/11/7 16/41/7
f 4/42/26 30/43/26 31/44/26 2/45/26
f 45/46/27 46/2/2 11/47/1 12/48/1
f 53/49/28 54/50/29 30/51/1 4/52/1
f 3/1/1 11/47/1 46/2/2
f 52/17/9 53/49/28 4/52/1 5/4/1
f 6/18/4 2/34/4 50/33/21 55/19/10
f 5/15/8 4/53/8 2/54/8 6/16/8
f 32/55/1 30/51/1 54/50/29 56/30/18
f 20/56/26 25/57/26 26/58/26 19/59/26
f 7/60/8 10/61/8 25/62/8 20/63/8
f 51/29/17 49/32/20 31/35/4 29/8/4
f 12/40/7 16/41/7 28/64/7 27/65/7
f 12/48/1 27/66/1 45/46/27
f 48/7/6 51/29/17 29/8/4
f 45/46/27 27/66/1 32/55/1 44/31/19
f 56/30/18 44/31/19 32/55/1
f 30/67/30 32/68/30 29/69/30 31/70/30
f 27/71/30 28/72/30 29/69/30 32/68/30
f 33/73/4 35/74/4 36/75/4 34/76/4
f 37/77/1 38/78/1 40/79/1 39/80/1
f 13/25/13 41/6/5 42/22/12 14/26/14
f 22/39/25 44/31/19 43/3/3 21/36/22
f 17/38/24 45/46/27 44/31/19 22/39/25
f 18/37/23 46/2/2 45/46/27 17/38/24
f 21/36/22 43/3/3 46/2/2 18/37/23
f 23/27/15 47/20/11 48/7/6 24/28/16
f 14/26/14 42/22/12 47/20/11 23/27/15
f 24/28/16 48/7/6 41/6/5 13/25/13
f 9/81/31 50/33/21 49/32/20 10/82/32
f 10/82/32 49/32/20 51/29/17 25/83/33
f 8/84/34 53/49/28 52/17/9 19/85/35
f 7/86/36 54/50/29 53/49/28 8/84/34
f 25/83/33 51/29/17 55/19/10 26/87/37
f 19/85/35 52/17/9 56/30/18 20/88/38
f 26/87/37 55/19/10 50/33/21 9/81/31
f 20/88/38 56/30/18 54/50/29 7/86/36
f 19/89/30 26/90/30 9/91/30 8/92/30
f 8/93/7 9/94/7 10/95/7 7/96/7
f 69/97/4 58/98/4 59/99/4 57/100/4 61/101/4 62/102/4 60/103/4 73/104/4 74/105/4 72/106/4 70/107/4 71/108/4
f 78/109/39 73/110/39 60/111/40 67/112/40
f 57/113/41 64/114/41 66/115/42 61/116/42
f 75/117/43 70/118/43 72/119/44 79/120/44
f 63/121/45 65/122/46 59/123/46 58/124/45
f 65/125/46 64/126/41 57/127/41 59/128/46
f 60/129/40 62/130/47 68/131/47 67/132/40
f 62/133/47 61/134/42 66/135/42 68/136/47
f 69/137/48 71/138/49 77/139/49 76/140/48
f 71/138/49 70/118/43 75/117/43 77/139/49
f 78/109/39 80/141/50 74/142/50 73/110/39
f 80/141/50 79/120/44 72/119/44 74/142/50
f 63/143/45 58/144/45 69/137/48 76/140/48
f 85/145/30 83/146/30 84/147/30 86/148/30
f 81/149/7 92/150/7 83/151/7
f 81/149/7 83/151/7 85/152/7
f 86/153/26 84/154/26 82/155/26
f 91/156/7 90/157/7 88/158/7 83/151/7
f 84/154/26 87/159/26 89/160/26 95/161/26
f 83/146/1 88/162/1 87/163/1 84/147/1
f 88/164/30 90/165/30 89/166/30 87/167/30
f 84/154/26 94/168/26 82/155/26
f 82/169/8 94/170/51 92/171/51 81/172/8
f 91/156/7 83/151/7 93/173/7
f 93/173/7 83/151/7 92/150/7
f 94/168/26 84/154/26 96/174/26
f 96/174/26 84/154/26 95/161/26
f 91/175/52 93/176/53 96/177/53 95/178/52
f 93/176/53 92/171/51 94/170/51 96/177/53
f 95/178/52 89/179/4 90/180/4 91/175/52
f 109/181/1 111/182/1 110/183/1 112/184/1 114/185/1 113/186/1 100/187/1 102/188/1 101/189/1 97/190/1 99/191/1 98/192/1
f 118/193/39 107/194/40 100/195/40 113/196/39
f 97/197/41 101/198/42 106/199/42 104/200/41
f 115/201/43 119/202/44 112/203/44 110/204/43
f 103/205/45 98/206/45 99/207/46 105/208/46
f 105/209/46 99/210/46 97/211/41 104/212/41
f 100/213/40 107/214/40 108/215/47 102/216/47
f 102/217/47 108/218/47 106/219/42 101/220/42
f 109/221/48 116/222/48 117/223/49 111/224/49
f 111/224/49 117/223/49 115/201/43 110/204/43
f 118/193/39 113/196/39 114/225/50 120/226/50
f 120/226/50 114/225/50 112/203/44 119/202/44
f 103/227/45 116/222/48 109/221/48 98/228/45
f 125/229/30 126/230/30 124/231/30 123/232/30
f 121/233/7 123/234/7 132/235/7
f 121/233/7 125/236/7 123/234/7
f 126/237/26 122/238/26 124/239/26
f 131/240/7 123/234/7 128/241/7 130/242/7
f 124/239/26 135/243/26 129/244/26 127/245/26
f 123/232/4 124/231/4 127/246/4 128/247/4
f 128/248/30 127/249/30 129/250/30 130/251/30
f 124/239/26 122/238/26 134/252/26
f 122/253/8 121/254/8 132/255/54 134/256/54
f 131/240/7 133/257/7 123/234/7
f 133/257/7 132/235/7 123/234/7
f 134/252/26 136/258/26 124/239/26
f 136/258/26 135/243/26 124/239/26
f 131/259/55 135/260/55 136/261/56 133/262/56
f 133/262/56 136/261/56 134/256/54 132/255/54
f 135/260/55 131/259/55 130/263/1 129/264/1
