# Blender 3.6.1
# www.blender.org
mtllib дверь 2.mtl
o Cube.004
v -19.362595 -7.145404 14.323331
v -19.362595 -5.037702 14.323331
v -19.362595 -7.145404 14.255369
v -19.362595 -5.037702 14.255369
v -19.362595 -6.406956 14.255369
v -19.362595 -6.406956 14.323331
v -20.172226 -5.125763 14.258763
v -19.465042 -5.125763 14.258763
v -19.465042 -5.125763 14.319938
v -20.172226 -5.125763 14.319938
v -19.444931 -7.145404 14.255369
v -20.192322 -7.145404 14.255369
v -20.170166 -7.051113 14.311444
v -19.467087 -7.051113 14.311444
v -19.444931 -7.145404 14.323331
v -20.192322 -7.145404 14.323331
v -20.170166 -7.051113 14.267256
v -19.467087 -7.051113 14.267256
v -19.465042 -6.355318 14.258763
v -20.172226 -6.355318 14.258763
v -19.467087 -6.460774 14.267256
v -20.170166 -6.460774 14.267256
v -19.467087 -6.460774 14.311444
v -20.170166 -6.460774 14.311444
v -20.172226 -6.355318 14.319938
v -19.465042 -6.355318 14.319938
v -20.233490 -7.145404 14.255369
v -20.233490 -7.145404 14.323331
v -20.233490 -6.406956 14.323331
v -20.233490 -5.037702 14.255369
v -20.233490 -5.037702 14.323331
v -20.233490 -6.406956 14.255369
v -19.444931 -6.988426 14.304710
v -20.192322 -6.988426 14.304710
v -19.444931 -5.125764 14.304710
v -20.192322 -5.125764 14.304710
v -19.444931 -6.988426 14.277447
v -20.192322 -6.988426 14.277447
v -19.444931 -5.125764 14.277447
v -20.192322 -5.125764 14.277447
v -20.192322 -7.074711 14.323331
v -19.444931 -7.074711 14.323331
v -19.444931 -6.437177 14.255369
v -20.192322 -6.437177 14.255369
v -20.192322 -7.074711 14.255369
v -19.444931 -7.074711 14.255369
v -19.444931 -6.437177 14.323331
v -20.192322 -6.437177 14.323331
v -20.192322 -5.104347 14.323331
v -19.444931 -5.104347 14.323331
v -20.192322 -6.376735 14.323331
v -19.444931 -6.376735 14.255369
v -19.444931 -5.104347 14.255369
v -20.192322 -5.104347 14.255369
v -19.444931 -6.376735 14.323331
v -20.192322 -6.376735 14.255369
v -19.383163 -6.092473 14.334702
v -19.394760 -6.102613 14.334702
v -19.386551 -6.099643 14.334702
v -19.394760 -6.037804 14.334702
v -19.383163 -6.047945 14.334702
v -19.386551 -6.040774 14.334702
v -19.394760 -6.102613 14.323333
v -19.383163 -6.092473 14.323333
v -19.386551 -6.099643 14.323333
v -19.383163 -6.047945 14.323333
v -19.394760 -6.037804 14.323333
v -19.386551 -6.040774 14.323333
v -19.421402 -6.102613 14.334702
v -19.433014 -6.092473 14.334702
v -19.429611 -6.099643 14.334702
v -19.433014 -6.047945 14.334702
v -19.421402 -6.037804 14.334702
v -19.429611 -6.040774 14.334702
v -19.433014 -6.092473 14.323333
v -19.421402 -6.102613 14.323333
v -19.429611 -6.099643 14.323333
v -19.421402 -6.037804 14.323333
v -19.433014 -6.047945 14.323333
v -19.429611 -6.040774 14.323333
v -19.396027 -6.080285 14.334704
v -19.396027 -6.059873 14.334704
v -19.420853 -6.080285 14.353693
v -19.420853 -6.059873 14.353693
v -19.420853 -6.080285 14.334704
v -19.420853 -6.059873 14.334704
v -19.516922 -6.059873 14.353693
v -19.516922 -6.080285 14.353693
v -19.516922 -6.059873 14.367819
v -19.516922 -6.080285 14.367819
v -19.417130 -6.080285 14.367819
v -19.396027 -6.080285 14.349385
v -19.402206 -6.080285 14.362419
v -19.396027 -6.059873 14.349385
v -19.417130 -6.059873 14.367819
v -19.402206 -6.059873 14.362419
v -19.383163 -6.092473 14.244382
v -19.394760 -6.102613 14.244382
v -19.386551 -6.099643 14.244382
v -19.394760 -6.037804 14.244382
v -19.383163 -6.047945 14.244382
v -19.386551 -6.040774 14.244382
v -19.394760 -6.102613 14.255752
v -19.383163 -6.092473 14.255752
v -19.386551 -6.099643 14.255752
v -19.383163 -6.047945 14.255752
v -19.394760 -6.037804 14.255752
v -19.386551 -6.040774 14.255752
v -19.421402 -6.102613 14.244382
v -19.433014 -6.092473 14.244382
v -19.429611 -6.099643 14.244382
v -19.433014 -6.047945 14.244382
v -19.421402 -6.037804 14.244382
v -19.429611 -6.040774 14.244382
v -19.433014 -6.092473 14.255752
v -19.421402 -6.102613 14.255752
v -19.429611 -6.099643 14.255752
v -19.421402 -6.037804 14.255752
v -19.433014 -6.047945 14.255752
v -19.429611 -6.040774 14.255752
v -19.396027 -6.080285 14.244380
v -19.396027 -6.059873 14.244380
v -19.420853 -6.080285 14.225391
v -19.420853 -6.059873 14.225391
v -19.420853 -6.080285 14.244380
v -19.420853 -6.059873 14.244380
v -19.516922 -6.059873 14.225391
v -19.516922 -6.080285 14.225391
v -19.516922 -6.059873 14.211266
v -19.516922 -6.080285 14.211266
v -19.417130 -6.080285 14.211266
v -19.396027 -6.080285 14.229699
v -19.402206 -6.080285 14.216665
v -19.396027 -6.059873 14.229699
v -19.417130 -6.059873 14.211266
v -19.402206 -6.059873 14.216665
vn -0.0000 -0.0000 -1.0000
vn -0.0000 -0.0000 1.0000
vn -0.0000 -1.0000 -0.0000
vn 1.0000 -0.0000 -0.0000
vn -0.0202 0.0205 -0.9996
vn -0.0202 0.0205 0.9996
vn 0.0202 0.0205 0.9996
vn 0.0202 0.0205 -0.9996
vn 0.0202 -0.0205 0.9996
vn -0.0202 -0.0205 0.9996
vn -0.0000 1.0000 -0.0000
vn -0.0202 -0.0205 -0.9996
vn 0.0202 -0.0205 -0.9996
vn -1.0000 -0.0000 -0.0000
vn 0.2531 0.2351 0.9384
vn 0.2418 0.2458 0.9387
vn -0.2418 0.2458 0.9387
vn -0.2531 0.2351 0.9384
vn 0.2531 -0.2351 -0.9384
vn 0.2418 -0.2458 -0.9387
vn -0.2418 -0.2458 -0.9387
vn -0.2531 -0.2351 -0.9384
vn 0.2531 0.2351 -0.9384
vn 0.2418 0.2458 -0.9387
vn -0.2531 0.2351 -0.9384
vn -0.2418 0.2458 -0.9387
vn -0.2531 -0.2351 0.9384
vn -0.2418 -0.2458 0.9387
vn 0.2418 -0.2458 0.9387
vn 0.2531 -0.2351 0.9384
vn -0.0848 -0.0777 0.9934
vn 0.0849 -0.0777 0.9934
vn 0.0849 0.0777 0.9934
vn -0.0849 -0.0777 -0.9934
vn -0.0849 0.0777 -0.9934
vn 0.0849 -0.0777 -0.9934
vn -0.0848 0.0777 0.9934
vn 0.0849 0.0777 -0.9934
vn -0.1727 0.9850 -0.0000
vn 0.1727 0.9850 -0.0000
vn 0.9757 -0.2189 -0.0000
vn 0.9757 0.2189 -0.0000
vn -0.9756 -0.2197 -0.0000
vn -0.9756 0.2197 -0.0000
vn 0.1727 -0.9850 -0.0000
vn 0.6730 -0.7396 -0.0000
vn 0.6730 0.7396 -0.0000
vn -0.1727 -0.9850 -0.0000
vn -0.6724 -0.7402 -0.0000
vn -0.6724 0.7402 -0.0000
vn 0.9756 -0.0000 0.2196
vn 0.1727 -0.0000 0.9850
vn 0.6725 -0.0000 0.7401
vn 0.9756 -0.0000 -0.2196
vn 0.1727 -0.0000 -0.9850
vn 0.6725 -0.0000 -0.7401
vt 0.003444 0.002589
vt 0.031926 0.027062
vt 0.031830 0.247659
vt 0.003345 0.258099
vt 0.311601 0.002604
vt 0.325840 0.027071
vt 0.325772 0.247665
vt 0.311529 0.258112
vt 0.044763 0.281166
vt 0.068287 0.281166
vt 0.068287 0.309666
vt 0.044763 0.309666
vt 0.647723 0.002706
vt 0.671248 0.002706
vt 0.671248 0.258314
vt 0.647723 0.258314
vt 0.031819 0.268576
vt 0.613005 0.258117
vt 0.584544 0.268577
vt 0.584538 0.247683
vt 0.325846 0.002607
vt 0.584503 0.027106
vt 0.612990 0.002644
vt 0.584503 0.002643
vt 0.281866 0.235373
vt 0.038501 0.235373
vt 0.038501 0.031032
vt 0.281866 0.031032
vt 0.325760 0.268584
vt 0.290604 0.268592
vt 0.290596 0.247696
vt 0.325489 0.709204
vt 0.584603 0.709175
vt 0.613131 0.732270
vt 0.311223 0.732270
vt 0.331990 0.235373
vt 0.331990 0.031032
vt 0.575355 0.031032
vt 0.575355 0.235373
vt 0.044763 0.568370
vt 0.068287 0.568370
vt 0.098798 0.281166
vt 0.098798 0.582620
vt 0.075274 0.582620
vt 0.075274 0.281166
vt 0.290586 0.027134
vt 0.031934 0.002599
vt 0.290587 0.002673
vt 0.031732 0.709175
vt 0.290848 0.709204
vt 0.305113 0.732270
vt 0.003203 0.732270
vt 0.671248 0.732270
vt 0.647723 0.732270
vt 0.304828 0.258134
vt 0.124951 0.525956
vt 0.103776 0.525956
vt 0.103776 0.281170
vt 0.124951 0.281170
vt 0.960378 0.428610
vt 0.939203 0.428610
vt 0.939203 0.003010
vt 0.960378 0.003010
vt 0.068287 0.582620
vt 0.044763 0.582620
vt 0.304830 0.002674
vt 0.620118 0.732270
vt 0.620118 0.258314
vt 0.643642 0.258314
vt 0.643642 0.732270
vt 0.620118 0.002706
vt 0.643642 0.002706
vt 0.934225 0.003255
vt 0.934226 0.648001
vt 0.675522 0.648001
vt 0.675522 0.003256
vt 0.003256 0.998154
vt 0.003256 0.739451
vt 0.648001 0.739451
vt 0.648001 0.998154
vt 0.890061 0.662757
vt 0.899356 0.653963
vt 0.899355 0.914390
vt 0.890162 0.905570
vt 0.347332 0.533144
vt 0.338037 0.541938
vt 0.338037 0.281511
vt 0.347231 0.290331
vt 0.551632 0.532170
vt 0.560826 0.540991
vt 0.551531 0.289358
vt 0.560826 0.280564
vt 0.685861 0.906544
vt 0.676567 0.915338
vt 0.676567 0.654911
vt 0.685760 0.663731
vt 0.577534 0.701671
vt 0.332566 0.701675
vt 0.332804 0.276095
vt 0.038802 0.701670
vt 0.038862 0.276066
vt 0.283771 0.701676
vt 0.577500 0.276066
vt 0.283559 0.276103
vt 0.939203 0.434526
vt 0.960378 0.434526
vt 0.960378 0.860127
vt 0.939203 0.860127
vt 0.129928 0.281170
vt 0.151103 0.281170
vt 0.151103 0.525956
vt 0.129928 0.525956
vt 0.202769 0.353398
vt 0.202769 0.344176
vt 0.203797 0.341335
vt 0.206279 0.340162
vt 0.221692 0.340162
vt 0.224174 0.341335
vt 0.225202 0.344176
vt 0.225202 0.353398
vt 0.224174 0.356240
vt 0.221692 0.357418
vt 0.206279 0.357418
vt 0.203797 0.356240
vt 0.168010 0.280836
vt 0.168010 0.284772
vt 0.158788 0.284772
vt 0.158788 0.280836
vt 0.209950 0.284772
vt 0.209950 0.280836
vt 0.225363 0.280836
vt 0.225363 0.284772
vt 0.189192 0.280836
vt 0.189192 0.284772
vt 0.173779 0.284772
vt 0.173779 0.280836
vt 0.204183 0.280836
vt 0.207205 0.280836
vt 0.207205 0.284772
vt 0.204183 0.284772
vt 0.155767 0.284772
vt 0.155767 0.280836
vt 0.228108 0.284772
vt 0.228108 0.280836
vt 0.194961 0.284772
vt 0.191940 0.284772
vt 0.191940 0.280836
vt 0.194961 0.280836
vt 0.171032 0.280836
vt 0.171032 0.284772
vt 0.156317 0.338729
vt 0.162890 0.338729
vt 0.162890 0.345794
vt 0.156317 0.345794
vt 0.220843 0.311085
vt 0.220843 0.316167
vt 0.212250 0.317658
vt 0.212250 0.311085
vt 0.164343 0.322709
vt 0.164343 0.329282
vt 0.155750 0.322709
vt 0.213539 0.322548
vt 0.178996 0.322547
vt 0.178996 0.317658
vt 0.197597 0.329282
vt 0.197597 0.334171
vt 0.163054 0.334171
vt 0.196144 0.338729
vt 0.196144 0.345794
vt 0.274071 0.312576
vt 0.278960 0.312576
vt 0.278960 0.319642
vt 0.274071 0.319642
vt 0.155750 0.327790
vt 0.227397 0.300953
vt 0.232479 0.300953
vt 0.232479 0.308018
vt 0.227397 0.308018
vt 0.218704 0.320679
vt 0.157889 0.332302
vt 0.242965 0.308018
vt 0.237472 0.308018
vt 0.237472 0.300953
vt 0.242965 0.300953
vt 0.277507 0.300953
vt 0.277507 0.308018
vt 0.249263 0.335464
vt 0.250291 0.332623
vt 0.252773 0.331445
vt 0.268186 0.331445
vt 0.270667 0.332623
vt 0.271695 0.335464
vt 0.271695 0.344686
vt 0.270667 0.347528
vt 0.268186 0.348700
vt 0.252773 0.348700
vt 0.250291 0.347528
vt 0.249262 0.344686
vt 0.168010 0.296395
vt 0.158788 0.296395
vt 0.158788 0.292460
vt 0.168010 0.292460
vt 0.209950 0.292460
vt 0.225363 0.292460
vt 0.225363 0.296395
vt 0.209950 0.296395
vt 0.189192 0.296395
vt 0.173779 0.296395
vt 0.173779 0.292460
vt 0.189192 0.292460
vt 0.204183 0.296395
vt 0.204183 0.292460
vt 0.207205 0.292460
vt 0.207205 0.296395
vt 0.155767 0.296395
vt 0.155767 0.292460
vt 0.228108 0.292460
vt 0.228108 0.296395
vt 0.194961 0.292460
vt 0.194961 0.296395
vt 0.191940 0.296395
vt 0.191940 0.292460
vt 0.171032 0.292460
vt 0.171032 0.296395
vt 0.244090 0.327105
vt 0.244090 0.334171
vt 0.237517 0.334171
vt 0.237517 0.327105
vt 0.268790 0.325453
vt 0.260196 0.318880
vt 0.268790 0.320372
vt 0.260196 0.325453
vt 0.267461 0.282027
vt 0.276054 0.282027
vt 0.267461 0.288600
vt 0.261485 0.313991
vt 0.226943 0.318880
vt 0.226943 0.313991
vt 0.268750 0.293489
vt 0.234207 0.293489
vt 0.234207 0.288600
vt 0.204263 0.334171
vt 0.204263 0.327105
vt 0.229760 0.340905
vt 0.236825 0.340905
vt 0.236825 0.345794
vt 0.229760 0.345794
vt 0.276054 0.287109
vt 0.156204 0.310924
vt 0.156204 0.303859
vt 0.161286 0.303859
vt 0.161286 0.310924
vt 0.266651 0.315860
vt 0.273915 0.291620
vt 0.171772 0.303859
vt 0.171772 0.310924
vt 0.166279 0.310924
vt 0.166279 0.303859
vt 0.206314 0.303859
vt 0.206314 0.310924
s 1
f 3/1/1 46/2/1 43/3/1 5/4/1
f 28/5/2 41/6/2 48/7/2 29/8/2
f 3/9/3 1/10/3 15/11/3 11/12/3
f 1/13/4 3/14/4 5/15/4 6/16/4
f 5/4/1 43/3/1 52/17/5
f 6/18/2 55/19/6 47/20/2
f 28/5/2 16/21/2 41/6/2
f 42/22/2 1/23/2 6/18/2 47/20/2
f 15/24/2 1/23/2 42/22/2
f 42/22/2 41/6/2 16/21/2 15/24/2
f 13/25/2 14/26/2 23/27/2 24/28/2
f 48/7/2 47/20/2 55/19/6 51/29/7
f 56/30/8 52/17/5 43/3/1 44/31/1
f 49/32/9 50/33/10 2/34/2 31/35/2
f 21/36/1 18/37/1 17/38/1 22/39/1
f 12/40/3 11/12/3 15/11/3 16/41/3
f 4/42/11 30/43/11 31/44/11 2/45/11
f 45/46/1 46/2/1 11/47/1 12/48/1
f 53/49/12 54/50/13 30/51/1 4/52/1
f 3/1/1 11/47/1 46/2/1
f 52/17/5 53/49/12 4/52/1 5/4/1
f 6/18/2 2/34/2 50/33/10 55/19/6
f 5/15/4 4/53/4 2/54/4 6/16/4
f 32/55/1 30/51/1 54/50/13 56/30/8
f 20/56/11 25/57/11 26/58/11 19/59/11
f 7/60/4 10/61/4 25/62/4 20/63/4
f 51/29/7 49/32/9 31/35/2 29/8/2
f 12/40/3 16/41/3 28/64/3 27/65/3
f 12/48/1 27/66/1 45/46/1
f 48/7/2 51/29/7 29/8/2
f 45/46/1 27/66/1 32/55/1 44/31/1
f 56/30/8 44/31/1 32/55/1
f 30/67/14 32/68/14 29/69/14 31/70/14
f 27/71/14 28/72/14 29/69/14 32/68/14
f 33/73/2 35/74/2 36/75/2 34/76/2
f 37/77/1 38/78/1 40/79/1 39/80/1
f 13/81/15 41/82/16 42/83/17 14/84/18
f 22/85/19 44/86/20 43/87/21 21/88/22
f 17/89/23 45/90/24 44/86/20 22/85/19
f 18/91/25 46/92/26 45/90/24 17/89/23
f 21/88/22 43/87/21 46/92/26 18/91/25
f 23/93/27 47/94/28 48/95/29 24/96/30
f 14/84/18 42/83/17 47/94/28 23/93/27
f 24/96/30 48/95/29 41/82/16 13/81/15
f 9/97/31 50/33/10 49/32/9 10/98/32
f 10/98/32 49/32/9 51/29/7 25/99/33
f 8/100/34 53/49/12 52/17/5 19/101/35
f 7/102/36 54/50/13 53/49/12 8/100/34
f 25/99/33 51/29/7 55/19/6 26/103/37
f 19/101/35 52/17/5 56/30/8 20/104/38
f 26/103/37 55/19/6 50/33/10 9/97/31
f 20/104/38 56/30/8 54/50/13 7/102/36
f 19/105/14 26/106/14 9/107/14 8/108/14
f 8/109/3 9/110/3 10/111/3 7/112/3
f 69/113/2 58/114/2 59/115/2 57/116/2 61/117/2 62/118/2 60/119/2 73/120/2 74/121/2 72/122/2 70/123/2 71/124/2
f 78/125/39 73/126/39 60/127/40 67/128/40
f 57/129/41 64/130/41 66/131/42 61/132/42
f 75/133/43 70/134/43 72/135/44 79/136/44
f 63/137/45 65/138/46 59/139/46 58/140/45
f 65/138/46 64/130/41 57/129/41 59/139/46
f 60/127/40 62/141/47 68/142/47 67/128/40
f 62/143/47 61/132/42 66/131/42 68/144/47
f 69/145/48 71/146/49 77/147/49 76/148/48
f 71/146/49 70/134/43 75/133/43 77/147/49
f 78/125/39 80/149/50 74/150/50 73/126/39
f 80/149/50 79/136/44 72/135/44 74/150/50
f 63/137/45 58/140/45 69/145/48 76/148/48
f 85/151/14 83/152/14 84/153/14 86/154/14
f 81/155/3 92/156/3 83/157/3
f 81/155/3 83/157/3 85/158/3
f 86/159/11 84/160/11 82/161/11
f 91/162/3 90/163/3 88/164/3 83/157/3
f 84/160/11 87/165/11 89/166/11 95/167/11
f 83/152/1 88/168/1 87/169/1 84/153/1
f 88/170/14 90/171/14 89/172/14 87/173/14
f 84/160/11 94/174/11 82/161/11
f 82/175/4 94/176/51 92/177/51 81/178/4
f 91/162/3 83/157/3 93/179/3
f 93/179/3 83/157/3 92/156/3
f 94/174/11 84/160/11 96/180/11
f 96/180/11 84/160/11 95/167/11
f 91/181/52 93/182/53 96/183/53 95/184/52
f 93/182/53 92/177/51 94/176/51 96/183/53
f 95/184/52 89/185/2 90/186/2 91/181/52
f 109/187/1 111/188/1 110/189/1 112/190/1 114/191/1 113/192/1 100/193/1 102/194/1 101/195/1 97/196/1 99/197/1 98/198/1
f 118/199/39 107/200/40 100/201/40 113/202/39
f 97/203/41 101/204/42 106/205/42 104/206/41
f 115/207/43 119/208/44 112/209/44 110/210/43
f 103/211/45 98/212/45 99/213/46 105/214/46
f 105/214/46 99/213/46 97/203/41 104/206/41
f 100/201/40 107/200/40 108/215/47 102/216/47
f 102/217/47 108/218/47 106/205/42 101/204/42
f 109/219/48 116/220/48 117/221/49 111/222/49
f 111/222/49 117/221/49 115/207/43 110/210/43
f 118/199/39 113/202/39 114/223/50 120/224/50
f 120/224/50 114/223/50 112/209/44 119/208/44
f 103/211/45 116/220/48 109/219/48 98/212/45
f 125/225/14 126/226/14 124/227/14 123/228/14
f 121/229/3 123/230/3 132/231/3
f 121/229/3 125/232/3 123/230/3
f 126/233/11 122/234/11 124/235/11
f 131/236/3 123/230/3 128/237/3 130/238/3
f 124/235/11 135/239/11 129/240/11 127/241/11
f 123/228/2 124/227/2 127/242/2 128/243/2
f 128/244/14 127/245/14 129/246/14 130/247/14
f 124/235/11 122/234/11 134/248/11
f 122/249/4 121/250/4 132/251/54 134/252/54
f 131/236/3 133/253/3 123/230/3
f 133/253/3 132/231/3 123/230/3
f 134/248/11 136/254/11 124/235/11
f 136/254/11 135/239/11 124/235/11
f 131/255/55 135/256/55 136/257/56 133/258/56
f 133/258/56 136/257/56 134/252/54 132/251/54
f 135/256/55 131/255/55 130/259/1 129/260/1
