# Blender 3.6.1
# www.blender.org
mtllib дверь 4.mtl
o Cube.006
v 54.076237 -7.145404 14.443098
v 54.076237 -5.037702 14.443098
v 54.076237 -7.145404 14.375136
v 54.076237 -5.037702 14.375136
v 54.076237 -6.406956 14.375136
v 54.076237 -6.406956 14.443098
v 53.266617 -5.125763 14.378531
v 53.973797 -5.125763 14.378531
v 53.973797 -5.125763 14.439705
v 53.266617 -5.125763 14.439705
v 53.268665 -7.051113 14.431211
v 53.971748 -7.051113 14.431211
v 53.268665 -7.051113 14.387023
v 53.971748 -7.051113 14.387023
v 53.973797 -6.355318 14.378531
v 53.266617 -6.355318 14.378531
v 53.971748 -6.460774 14.387023
v 53.268665 -6.460774 14.387023
v 53.971748 -6.460774 14.431211
v 53.268665 -6.460774 14.431211
v 53.266617 -6.355318 14.439705
v 53.973797 -6.355318 14.439705
v 53.205345 -7.145404 14.375136
v 53.205345 -7.145404 14.443098
v 53.205345 -6.406956 14.443098
v 53.205345 -5.037702 14.375136
v 53.205345 -5.037702 14.443098
v 53.205345 -6.406956 14.375136
v 53.993900 -6.988426 14.424478
v 53.246510 -6.988426 14.424478
v 53.993900 -5.125764 14.424478
v 53.246510 -5.125764 14.424478
v 53.993900 -6.988426 14.397214
v 53.246510 -6.988426 14.397214
v 53.993900 -5.125764 14.397214
v 53.246510 -5.125764 14.397214
v 53.246510 -7.074711 14.443098
v 53.993900 -7.074711 14.443098
v 53.993900 -6.437177 14.375136
v 53.246510 -6.437177 14.375136
v 53.246510 -7.074711 14.375136
v 53.993900 -7.074711 14.375136
v 53.993900 -6.437177 14.443098
v 53.246510 -6.437177 14.443098
v 53.246510 -5.104347 14.443098
v 53.993900 -5.104347 14.443098
v 53.246510 -6.376735 14.443098
v 53.993900 -6.376735 14.375136
v 53.993900 -5.104347 14.375136
v 53.246510 -5.104347 14.375136
v 53.993900 -6.376735 14.443098
v 53.246510 -6.376735 14.375136
v 54.055679 -6.092473 14.454470
v 54.044075 -6.102613 14.454470
v 54.052280 -6.099643 14.454470
v 54.044075 -6.037804 14.454470
v 54.055679 -6.047945 14.454470
v 54.052280 -6.040774 14.454470
v 54.044075 -6.102613 14.443100
v 54.055679 -6.092473 14.443100
v 54.052280 -6.099643 14.443100
v 54.055679 -6.047945 14.443100
v 54.044075 -6.037804 14.443100
v 54.052280 -6.040774 14.443100
v 54.017429 -6.102613 14.454470
v 54.005825 -6.092473 14.454470
v 54.009228 -6.099643 14.454470
v 54.005825 -6.047945 14.454470
v 54.017429 -6.037804 14.454470
v 54.009228 -6.040774 14.454470
v 54.005825 -6.092473 14.443100
v 54.017429 -6.102613 14.443100
v 54.009228 -6.099643 14.443100
v 54.017429 -6.037804 14.443100
v 54.005825 -6.047945 14.443100
v 54.009228 -6.040774 14.443100
v 54.042805 -6.080285 14.454472
v 54.042805 -6.059873 14.454472
v 54.017982 -6.080285 14.473461
v 54.017982 -6.059873 14.473461
v 54.017982 -6.080285 14.454472
v 54.017982 -6.059873 14.454472
v 53.921917 -6.059873 14.473461
v 53.921917 -6.080285 14.473461
v 53.921917 -6.059873 14.487585
v 53.921917 -6.080285 14.487585
v 54.021709 -6.080285 14.487585
v 54.042805 -6.080285 14.469152
v 54.036625 -6.080285 14.482187
v 54.042805 -6.059873 14.469152
v 54.021709 -6.059873 14.487585
v 54.036625 -6.059873 14.482187
v 54.055679 -6.092473 14.364149
v 54.044075 -6.102613 14.364149
v 54.052280 -6.099643 14.364149
v 54.044075 -6.037804 14.364149
v 54.055679 -6.047945 14.364149
v 54.052280 -6.040774 14.364149
v 54.044075 -6.102613 14.375519
v 54.055679 -6.092473 14.375519
v 54.052280 -6.099643 14.375519
v 54.055679 -6.047945 14.375519
v 54.044075 -6.037804 14.375519
v 54.052280 -6.040774 14.375519
v 54.017429 -6.102613 14.364149
v 54.005825 -6.092473 14.364149
v 54.009228 -6.099643 14.364149
v 54.005825 -6.047945 14.364149
v 54.017429 -6.037804 14.364149
v 54.009228 -6.040774 14.364149
v 54.005825 -6.092473 14.375519
v 54.017429 -6.102613 14.375519
v 54.009228 -6.099643 14.375519
v 54.017429 -6.037804 14.375519
v 54.005825 -6.047945 14.375519
v 54.009228 -6.040774 14.375519
v 54.042805 -6.080285 14.364147
v 54.042805 -6.059873 14.364147
v 54.017982 -6.080285 14.345158
v 54.017982 -6.059873 14.345158
v 54.017982 -6.080285 14.364147
v 54.017982 -6.059873 14.364147
v 53.921917 -6.059873 14.345158
v 53.921917 -6.080285 14.345158
v 53.921917 -6.059873 14.331034
v 53.921917 -6.080285 14.331034
v 54.021709 -6.080285 14.331034
v 54.042805 -6.080285 14.349466
v 54.036625 -6.080285 14.336432
v 54.042805 -6.059873 14.349466
v 54.021709 -6.059873 14.331034
v 54.036625 -6.059873 14.336432
vn -0.0000 -0.0000 -1.0000
vn -0.0000 -0.0000 1.0000
vn 1.0000 -0.0000 -0.0000
vn -0.0202 0.0205 -0.9996
vn -0.0202 0.0205 0.9996
vn 0.0202 0.0205 0.9996
vn 0.0202 0.0205 -0.9996
vn 0.0202 -0.0205 0.9996
vn -0.0202 -0.0205 0.9996
vn -0.0000 -1.0000 -0.0000
vn -0.0000 1.0000 -0.0000
vn -0.0202 -0.0205 -0.9996
vn 0.0202 -0.0205 -0.9996
vn -1.0000 -0.0000 -0.0000
vn 0.2531 0.2351 0.9384
vn 0.2418 0.2458 0.9387
vn -0.2418 0.2458 0.9387
vn -0.2532 0.2351 0.9384
vn 0.2531 -0.2351 -0.9384
vn 0.2418 -0.2458 -0.9387
vn -0.2418 -0.2458 -0.9387
vn -0.2532 -0.2351 -0.9384
vn 0.2531 0.2351 -0.9384
vn 0.2418 0.2458 -0.9387
vn -0.2532 0.2351 -0.9384
vn -0.2418 0.2458 -0.9387
vn -0.2532 -0.2351 0.9384
vn -0.2418 -0.2458 0.9387
vn 0.2418 -0.2458 0.9387
vn 0.2531 -0.2351 0.9384
vn -0.0849 -0.0777 0.9934
vn 0.0849 -0.0777 0.9934
vn 0.0849 0.0777 0.9934
vn -0.0849 -0.0777 -0.9934
vn -0.0849 0.0777 -0.9934
vn 0.0849 -0.0777 -0.9934
vn -0.0849 0.0777 0.9934
vn 0.0849 0.0777 -0.9934
vn -0.1728 0.9849 -0.0000
vn 0.1728 0.9850 -0.0000
vn 0.9756 -0.2195 -0.0000
vn 0.9756 0.2195 -0.0000
vn -0.9756 -0.2197 -0.0000
vn -0.9756 0.2197 -0.0000
vn 0.1728 -0.9850 -0.0000
vn 0.6726 -0.7400 -0.0000
vn 0.6726 0.7400 -0.0000
vn -0.1728 -0.9849 -0.0000
vn -0.6725 -0.7401 -0.0000
vn -0.6725 0.7401 -0.0000
vn 0.9756 -0.0000 0.2196
vn 0.1728 -0.0000 0.9850
vn 0.6726 -0.0000 0.7400
vn 0.9756 -0.0000 -0.2196
vn 0.1728 -0.0000 -0.9850
vn 0.6726 -0.0000 -0.7400
vt 0.002362 0.002357
vt 0.030886 0.026867
vt 0.030782 0.247794
vt 0.002257 0.258248
vt 0.310757 0.002475
vt 0.325028 0.026978
vt 0.325045 0.247941
vt 0.310785 0.258410
vt 0.098131 0.282959
vt 0.121685 0.282959
vt 0.121685 0.538891
vt 0.098131 0.538891
vt 0.030769 0.268742
vt 0.612772 0.258308
vt 0.584268 0.268786
vt 0.584257 0.247861
vt 0.584155 0.026917
vt 0.612684 0.002405
vt 0.281035 0.236127
vt 0.037359 0.236127
vt 0.037359 0.031527
vt 0.281035 0.031527
vt 0.325038 0.268891
vt 0.289942 0.268756
vt 0.289937 0.247832
vt 0.325020 0.709926
vt 0.584220 0.709899
vt 0.612768 0.733008
vt 0.310757 0.733005
vt 0.329983 0.236127
vt 0.329983 0.031527
vt 0.573659 0.031527
vt 0.573659 0.236127
vt 0.070607 0.583799
vt 0.070607 0.281964
vt 0.094161 0.281964
vt 0.094161 0.583799
vt 0.066637 0.281964
vt 0.066637 0.583799
vt 0.043083 0.583799
vt 0.043083 0.281964
vt 0.289947 0.026948
vt 0.304213 0.002453
vt 0.030624 0.709884
vt 0.289947 0.709837
vt 0.304213 0.732919
vt 0.002063 0.733008
vt 0.934368 0.003491
vt 0.934368 0.478049
vt 0.910814 0.478049
vt 0.910814 0.003491
vt 0.304187 0.258288
vt 0.126559 0.282207
vt 0.147761 0.282207
vt 0.147760 0.527302
vt 0.126559 0.527302
vt 0.958995 0.909741
vt 0.937793 0.909741
vt 0.937793 0.483600
vt 0.958995 0.483600
vt 0.619639 0.733008
vt 0.619639 0.258450
vt 0.643193 0.258450
vt 0.643193 0.733008
vt 0.619639 0.002518
vt 0.643193 0.002518
vt 0.906844 0.001975
vt 0.906844 0.647539
vt 0.647812 0.647539
vt 0.647812 0.001975
vt 0.001975 0.998108
vt 0.001975 0.739076
vt 0.647539 0.739076
vt 0.647539 0.998108
vt 0.661282 0.906305
vt 0.652140 0.915005
vt 0.651646 0.654283
vt 0.661018 0.663224
vt 0.346462 0.553314
vt 0.337308 0.562070
vt 0.337308 0.301307
vt 0.346666 0.310190
vt 0.550944 0.552300
vt 0.560131 0.561126
vt 0.551295 0.309172
vt 0.560621 0.300362
vt 0.865663 0.663518
vt 0.874974 0.654762
vt 0.874974 0.915536
vt 0.865776 0.906650
vt 0.577161 0.702377
vt 0.332072 0.702426
vt 0.332111 0.276398
vt 0.037709 0.702348
vt 0.037827 0.276265
vt 0.282894 0.702336
vt 0.577186 0.276322
vt 0.282870 0.276264
vt 0.911717 0.485049
vt 0.932919 0.485049
vt 0.932919 0.911190
vt 0.911717 0.911190
vt 0.173836 0.527302
vt 0.152634 0.527302
vt 0.152634 0.282207
vt 0.173836 0.282207
vt 0.354696 0.315070
vt 0.363931 0.315070
vt 0.366775 0.316099
vt 0.367953 0.318584
vt 0.367953 0.334017
vt 0.366775 0.336502
vt 0.363931 0.337531
vt 0.354696 0.337531
vt 0.351853 0.336502
vt 0.350674 0.334017
vt 0.350674 0.318584
vt 0.351853 0.316099
vt 0.188323 0.317656
vt 0.188323 0.321596
vt 0.179088 0.321596
vt 0.179088 0.317656
vt 0.261256 0.304213
vt 0.261256 0.300272
vt 0.276689 0.300272
vt 0.276689 0.304213
vt 0.209529 0.317656
vt 0.209529 0.321596
vt 0.194097 0.321596
vt 0.194097 0.317656
vt 0.045313 0.243370
vt 0.045313 0.240346
vt 0.049254 0.240346
vt 0.049254 0.243370
vt 0.085875 0.243370
vt 0.085875 0.240620
vt 0.089815 0.240620
vt 0.089815 0.243370
vt 0.059394 0.240346
vt 0.059394 0.243370
vt 0.055454 0.243370
vt 0.055454 0.240346
vt 0.099956 0.240620
vt 0.099956 0.243370
vt 0.096015 0.243370
vt 0.096015 0.240620
vt 0.215303 0.321596
vt 0.212280 0.321596
vt 0.212280 0.317656
vt 0.215303 0.317656
vt 0.191346 0.317656
vt 0.191346 0.321596
vt 0.224538 0.317656
vt 0.224538 0.321596
vt 0.225224 0.343495
vt 0.231805 0.343495
vt 0.231805 0.350569
vt 0.225224 0.350569
vt 0.220192 0.327503
vt 0.220192 0.332591
vt 0.211589 0.334085
vt 0.211589 0.327503
vt 0.259394 0.338980
vt 0.259394 0.332399
vt 0.267997 0.338980
vt 0.212881 0.338980
vt 0.178295 0.338980
vt 0.178295 0.334085
vt 0.226100 0.332399
vt 0.226100 0.327503
vt 0.260686 0.327503
vt 0.265100 0.343495
vt 0.265100 0.350569
vt 0.179081 0.297138
vt 0.183976 0.297138
vt 0.183976 0.304213
vt 0.179081 0.304213
vt 0.267997 0.333892
vt 0.190302 0.294241
vt 0.195390 0.294241
vt 0.195390 0.301316
vt 0.190302 0.301316
vt 0.218050 0.337109
vt 0.265855 0.329374
vt 0.205887 0.301316
vt 0.200389 0.301316
vt 0.200389 0.294241
vt 0.205887 0.294241
vt 0.240473 0.294241
vt 0.240473 0.301316
vt 0.363931 0.344043
vt 0.366773 0.345072
vt 0.367953 0.347557
vt 0.367953 0.362990
vt 0.366773 0.365475
vt 0.363931 0.366504
vt 0.354696 0.366504
vt 0.351852 0.365475
vt 0.350674 0.362990
vt 0.350674 0.347557
vt 0.351852 0.345072
vt 0.354696 0.344043
vt 0.220193 0.310007
vt 0.210958 0.310007
vt 0.210958 0.306067
vt 0.220193 0.306067
vt 0.245321 0.291581
vt 0.260754 0.291581
vt 0.260754 0.295521
vt 0.245321 0.295521
vt 0.241399 0.310007
vt 0.225967 0.310007
vt 0.225967 0.306067
vt 0.241399 0.306067
vt 0.035173 0.240346
vt 0.039113 0.240346
vt 0.039113 0.243370
vt 0.035173 0.243370
vt 0.075734 0.240620
vt 0.079675 0.240620
vt 0.079675 0.243370
vt 0.075734 0.243370
vt 0.181079 0.308964
vt 0.181079 0.312905
vt 0.178055 0.312905
vt 0.178055 0.308964
vt 0.065594 0.240620
vt 0.069534 0.240620
vt 0.069534 0.243370
vt 0.065594 0.243370
vt 0.247173 0.306067
vt 0.247173 0.310007
vt 0.244150 0.310007
vt 0.244150 0.306067
vt 0.223216 0.306067
vt 0.223216 0.310007
vt 0.256408 0.310007
vt 0.256408 0.306067
vt 0.178868 0.350569
vt 0.178868 0.343495
vt 0.185449 0.343495
vt 0.185449 0.350569
vt 0.275240 0.292624
vt 0.266637 0.286042
vt 0.275240 0.287536
vt 0.266637 0.292624
vt 0.263740 0.310120
vt 0.272343 0.310120
vt 0.263740 0.316701
vt 0.267929 0.281147
vt 0.233343 0.286042
vt 0.233343 0.281147
vt 0.265032 0.321596
vt 0.230445 0.321596
vt 0.230445 0.316701
vt 0.218744 0.343495
vt 0.218743 0.350569
vt 0.198463 0.305830
vt 0.198463 0.312905
vt 0.193567 0.312905
vt 0.193567 0.305830
vt 0.272343 0.315208
vt 0.178712 0.289727
vt 0.178712 0.282652
vt 0.183801 0.282652
vt 0.183801 0.289727
vt 0.273098 0.283018
vt 0.270201 0.319725
vt 0.194298 0.282652
vt 0.194298 0.289727
vt 0.188800 0.289727
vt 0.188800 0.282652
vt 0.228884 0.282652
vt 0.228884 0.289727
s 1
f 3/1/1 42/2/1 39/3/1 5/4/1
f 24/5/2 37/6/2 44/7/2 25/8/2
f 1/9/3 3/10/3 5/11/3 6/12/3
f 5/4/1 39/3/1 48/13/4
f 6/14/2 51/15/5 43/16/2
f 38/17/2 1/18/2 6/14/2 43/16/2
f 38/17/2 37/6/2 24/5/2 1/18/2
f 11/19/2 12/20/2 19/21/2 20/22/2
f 44/7/2 43/16/2 51/15/5 47/23/6
f 52/24/7 48/13/4 39/3/1 40/25/1
f 45/26/8 46/27/9 2/28/2 27/29/2
f 17/30/1 14/31/1 13/32/1 18/33/1
f 23/34/10 3/35/10 1/36/10 24/37/10
f 4/38/11 26/39/11 27/40/11 2/41/11
f 41/42/1 42/2/1 3/1/1 23/43/1
f 49/44/12 50/45/13 26/46/1 4/47/1
f 48/13/4 49/44/12 4/47/1 5/4/1
f 6/14/2 2/28/2 46/27/9 51/15/5
f 5/48/3 4/49/3 2/50/3 6/51/3
f 28/52/1 26/46/1 50/45/13 52/24/7
f 16/53/11 21/54/11 22/55/11 15/56/11
f 7/57/3 10/58/3 21/59/3 16/60/3
f 47/23/6 45/26/8 27/29/2 25/8/2
f 44/7/2 47/23/6 25/8/2
f 41/42/1 23/43/1 28/52/1 40/25/1
f 52/24/7 40/25/1 28/52/1
f 26/61/14 28/62/14 25/63/14 27/64/14
f 23/65/14 24/66/14 25/63/14 28/62/14
f 29/67/2 31/68/2 32/69/2 30/70/2
f 33/71/1 34/72/1 36/73/1 35/74/1
f 11/75/15 37/76/16 38/77/17 12/78/18
f 18/79/19 40/80/20 39/81/21 17/82/22
f 13/83/23 41/84/24 40/80/20 18/79/19
f 14/85/25 42/86/26 41/84/24 13/83/23
f 17/82/22 39/81/21 42/86/26 14/85/25
f 19/87/27 43/88/28 44/89/29 20/90/30
f 12/78/18 38/77/17 43/88/28 19/87/27
f 20/90/30 44/89/29 37/76/16 11/75/15
f 9/91/31 46/27/9 45/26/8 10/92/32
f 10/92/32 45/26/8 47/23/6 21/93/33
f 8/94/34 49/44/12 48/13/4 15/95/35
f 7/96/36 50/45/13 49/44/12 8/94/34
f 21/93/33 47/23/6 51/15/5 22/97/37
f 15/95/35 48/13/4 52/24/7 16/98/38
f 22/97/37 51/15/5 46/27/9 9/91/31
f 16/98/38 52/24/7 50/45/13 7/96/36
f 15/99/14 22/100/14 9/101/14 8/102/14
f 8/103/10 9/104/10 10/105/10 7/106/10
f 65/107/2 54/108/2 55/109/2 53/110/2 57/111/2 58/112/2 56/113/2 69/114/2 70/115/2 68/116/2 66/117/2 67/118/2
f 74/119/39 69/120/39 56/121/40 63/122/40
f 53/123/41 60/124/41 62/125/42 57/126/42
f 71/127/43 66/128/43 68/129/44 75/130/44
f 59/131/45 61/132/46 55/133/46 54/134/45
f 61/135/46 60/136/41 53/137/41 55/138/46
f 56/139/40 58/140/47 64/141/47 63/142/40
f 58/143/47 57/144/42 62/145/42 64/146/47
f 65/147/48 67/148/49 73/149/49 72/150/48
f 67/148/49 66/128/43 71/127/43 73/149/49
f 74/119/39 76/151/50 70/152/50 69/120/39
f 76/151/50 75/130/44 68/129/44 70/152/50
f 59/153/45 54/154/45 65/147/48 72/150/48
f 81/155/14 79/156/14 80/157/14 82/158/14
f 77/159/10 88/160/10 79/161/10
f 77/159/10 79/161/10 81/162/10
f 82/163/11 80/164/11 78/165/11
f 87/166/10 86/167/10 84/168/10 79/161/10
f 80/164/11 83/169/11 85/170/11 91/171/11
f 79/156/1 84/172/1 83/173/1 80/157/1
f 84/174/14 86/175/14 85/176/14 83/177/14
f 80/164/11 90/178/11 78/165/11
f 78/179/3 90/180/51 88/181/51 77/182/3
f 87/166/10 79/161/10 89/183/10
f 89/183/10 79/161/10 88/160/10
f 90/178/11 80/164/11 92/184/11
f 92/184/11 80/164/11 91/171/11
f 87/185/52 89/186/53 92/187/53 91/188/52
f 89/186/53 88/181/51 90/180/51 92/187/53
f 91/188/52 85/189/2 86/190/2 87/185/52
f 105/191/1 107/192/1 106/193/1 108/194/1 110/195/1 109/196/1 96/197/1 98/198/1 97/199/1 93/200/1 95/201/1 94/202/1
f 114/203/39 103/204/40 96/205/40 109/206/39
f 93/207/41 97/208/42 102/209/42 100/210/41
f 111/211/43 115/212/44 108/213/44 106/214/43
f 99/215/45 94/216/45 95/217/46 101/218/46
f 101/219/46 95/220/46 93/221/41 100/222/41
f 96/223/40 103/224/40 104/225/47 98/226/47
f 98/227/47 104/228/47 102/229/42 97/230/42
f 105/231/48 112/232/48 113/233/49 107/234/49
f 107/234/49 113/233/49 111/211/43 106/214/43
f 114/203/39 109/206/39 110/235/50 116/236/50
f 116/236/50 110/235/50 108/213/44 115/212/44
f 99/237/45 112/232/48 105/231/48 94/238/45
f 121/239/14 122/240/14 120/241/14 119/242/14
f 117/243/10 119/244/10 128/245/10
f 117/243/10 121/246/10 119/244/10
f 122/247/11 118/248/11 120/249/11
f 127/250/10 119/244/10 124/251/10 126/252/10
f 120/249/11 131/253/11 125/254/11 123/255/11
f 119/242/2 120/241/2 123/256/2 124/257/2
f 124/258/14 123/259/14 125/260/14 126/261/14
f 120/249/11 118/248/11 130/262/11
f 118/263/3 117/264/3 128/265/54 130/266/54
f 127/250/10 129/267/10 119/244/10
f 129/267/10 128/245/10 119/244/10
f 130/262/11 132/268/11 120/249/11
f 132/268/11 131/253/11 120/249/11
f 127/269/55 131/270/55 132/271/56 129/272/56
f 129/272/56 132/271/56 130/266/54 128/265/54
f 131/270/55 127/269/55 126/273/1 125/274/1
