# Blender 3.6.1
# www.blender.org
mtllib дверь 4 .mtl
o Cube.020
v 86.332520 -13.359196 14.280642
v 86.332520 -11.251493 14.280642
v 86.332520 -13.359196 14.212680
v 86.332520 -11.251493 14.212680
v 86.332520 -12.620749 14.212680
v 86.332520 -12.620749 14.280642
v 85.522888 -11.339556 14.216074
v 86.230072 -11.339556 14.216074
v 86.230072 -11.339556 14.277248
v 85.522888 -11.339556 14.277248
v 85.502792 -13.359196 14.212680
v 85.524948 -13.264905 14.268755
v 86.228027 -13.264905 14.268755
v 85.502792 -13.359196 14.280642
v 85.524948 -13.264905 14.224566
v 86.228027 -13.264905 14.224566
v 86.230072 -12.569110 14.216074
v 85.522888 -12.569110 14.216074
v 86.228027 -12.674566 14.224566
v 85.524948 -12.674566 14.224566
v 86.228027 -12.674566 14.268755
v 85.524948 -12.674566 14.268755
v 85.522888 -12.569110 14.277248
v 86.230072 -12.569110 14.277248
v 85.461624 -13.359196 14.212680
v 85.461624 -13.359196 14.280642
v 85.461624 -12.620748 14.280642
v 85.461624 -11.251493 14.212680
v 85.461624 -11.251493 14.280642
v 85.461624 -12.620748 14.212680
v 86.250183 -13.202218 14.262020
v 85.502792 -13.202218 14.262020
v 86.250183 -11.339556 14.262021
v 85.502792 -11.339556 14.262021
v 86.250183 -13.202218 14.234756
v 85.502792 -13.202218 14.234756
v 86.250183 -11.339556 14.234756
v 85.502792 -11.339556 14.234756
v 85.502792 -13.288503 14.280642
v 86.250183 -13.288503 14.280642
v 86.250183 -12.650970 14.212680
v 85.502792 -12.650970 14.212680
v 85.502792 -13.288503 14.212680
v 86.250183 -13.288503 14.212680
v 86.250183 -12.650970 14.280642
v 85.502792 -12.650970 14.280642
v 85.502792 -11.318139 14.280642
v 86.250183 -11.318139 14.280642
v 85.502792 -12.590527 14.280642
v 86.250183 -12.590527 14.212680
v 86.250183 -11.318139 14.212680
v 85.502792 -11.318139 14.212680
v 86.250183 -12.590527 14.280642
v 85.502792 -12.590527 14.212680
v 86.311951 -12.306265 14.292012
v 86.300354 -12.316405 14.292012
v 86.308563 -12.313435 14.292012
v 86.300354 -12.251596 14.292012
v 86.311951 -12.261737 14.292012
v 86.308563 -12.254566 14.292012
v 86.300354 -12.316405 14.280643
v 86.311951 -12.306265 14.280643
v 86.308563 -12.313435 14.280643
v 86.311951 -12.261737 14.280643
v 86.300354 -12.251596 14.280643
v 86.308563 -12.254566 14.280643
v 86.273712 -12.316405 14.292012
v 86.262100 -12.306265 14.292012
v 86.265503 -12.313435 14.292012
v 86.262100 -12.261737 14.292012
v 86.273712 -12.251596 14.292012
v 86.265503 -12.254566 14.292012
v 86.262100 -12.306265 14.280643
v 86.273712 -12.316405 14.280643
v 86.265503 -12.313435 14.280643
v 86.273712 -12.251596 14.280643
v 86.262100 -12.261737 14.280643
v 86.265503 -12.254566 14.280643
v 86.299088 -12.294077 14.292015
v 86.299088 -12.273665 14.292015
v 86.274261 -12.294077 14.311004
v 86.274261 -12.273665 14.311004
v 86.274261 -12.294077 14.292015
v 86.274261 -12.273665 14.292015
v 86.178192 -12.273665 14.311004
v 86.178192 -12.294077 14.311004
v 86.178192 -12.273665 14.325129
v 86.178192 -12.294077 14.325129
v 86.277985 -12.294077 14.325129
v 86.299088 -12.294077 14.306696
v 86.292908 -12.294077 14.319730
v 86.299088 -12.273665 14.306696
v 86.277985 -12.273665 14.325129
v 86.292908 -12.273665 14.319730
v 86.311951 -12.306265 14.201693
v 86.300354 -12.316405 14.201693
v 86.308563 -12.313435 14.201693
v 86.300354 -12.251596 14.201693
v 86.311951 -12.261737 14.201693
v 86.308563 -12.254566 14.201693
v 86.300354 -12.316405 14.213062
v 86.311951 -12.306265 14.213062
v 86.308563 -12.313435 14.213062
v 86.311951 -12.261737 14.213062
v 86.300354 -12.251596 14.213062
v 86.308563 -12.254566 14.213062
v 86.273712 -12.316405 14.201693
v 86.262100 -12.306265 14.201693
v 86.265503 -12.313435 14.201693
v 86.262100 -12.261737 14.201693
v 86.273712 -12.251596 14.201693
v 86.265503 -12.254566 14.201693
v 86.262100 -12.306265 14.213062
v 86.273712 -12.316405 14.213062
v 86.265503 -12.313435 14.213062
v 86.273712 -12.251596 14.213062
v 86.262100 -12.261737 14.213062
v 86.265503 -12.254566 14.213062
v 86.299088 -12.294077 14.201691
v 86.299088 -12.273665 14.201691
v 86.274261 -12.294077 14.182701
v 86.274261 -12.273665 14.182701
v 86.274261 -12.294077 14.201691
v 86.274261 -12.273665 14.201691
v 86.178192 -12.273665 14.182701
v 86.178192 -12.294077 14.182701
v 86.178192 -12.273665 14.168576
v 86.178192 -12.294077 14.168576
v 86.277985 -12.294077 14.168576
v 86.299088 -12.294077 14.187010
v 86.292908 -12.294077 14.173975
v 86.299088 -12.273665 14.187010
v 86.277985 -12.273665 14.168576
v 86.292908 -12.273665 14.173975
vn -0.0000 -0.0000 -1.0000
vn -0.0000 -0.0000 1.0000
vn 1.0000 -0.0000 -0.0000
vn -0.0202 0.0205 -0.9996
vn -0.0202 0.0205 0.9996
vn 0.0202 0.0205 0.9996
vn 0.0202 0.0205 -0.9996
vn 0.0202 -0.0205 0.9996
vn -0.0202 -0.0205 0.9996
vn -0.0000 -1.0000 -0.0000
vn -0.0000 1.0000 -0.0000
vn -0.0202 -0.0205 -0.9996
vn 0.0202 -0.0205 -0.9996
vn -1.0000 -0.0000 -0.0000
vn 0.2531 0.2351 0.9384
vn 0.2418 0.2458 0.9387
vn -0.2418 0.2458 0.9387
vn -0.2531 0.2351 0.9384
vn 0.2531 -0.2351 -0.9384
vn 0.2418 -0.2458 -0.9387
vn -0.2418 -0.2458 -0.9387
vn -0.2531 -0.2351 -0.9384
vn 0.2531 0.2351 -0.9384
vn 0.2418 0.2458 -0.9387
vn -0.2531 0.2351 -0.9384
vn -0.2418 0.2458 -0.9387
vn -0.2531 -0.2351 0.9384
vn -0.2418 -0.2458 0.9387
vn 0.2418 -0.2458 0.9387
vn 0.2531 -0.2351 0.9384
vn -0.0848 -0.0777 0.9934
vn 0.0849 -0.0777 0.9934
vn 0.0849 0.0777 0.9934
vn -0.0849 -0.0777 -0.9934
vn -0.0849 0.0777 -0.9934
vn 0.0849 -0.0777 -0.9934
vn -0.0848 0.0777 0.9934
vn 0.0849 0.0777 -0.9934
vn -0.1727 0.9850 -0.0000
vn 0.1727 0.9850 -0.0000
vn 0.9757 -0.2189 -0.0000
vn 0.9758 0.2189 -0.0000
vn -0.9756 -0.2198 -0.0000
vn -0.9756 0.2197 -0.0000
vn 0.1727 -0.9850 -0.0000
vn 0.6730 -0.7396 -0.0000
vn 0.6730 0.7396 -0.0000
vn -0.1727 -0.9850 -0.0000
vn -0.6724 -0.7402 -0.0000
vn -0.6724 0.7402 -0.0000
vn 0.9756 -0.0000 0.2196
vn 0.1727 -0.0000 0.9850
vn 0.6725 -0.0000 0.7401
vn 0.9756 -0.0000 -0.2196
vn 0.1727 -0.0000 -0.9850
vn 0.6725 -0.0000 -0.7401
vt 0.258448 0.001566
vt 0.282383 0.022126
vt 0.282324 0.207487
vt 0.258394 0.216259
vt 0.001804 0.001566
vt 0.013769 0.022125
vt 0.013709 0.207480
vt 0.001741 0.216259
vt 0.514851 0.001566
vt 0.534613 0.001566
vt 0.534613 0.216297
vt 0.514851 0.216297
vt 0.282315 0.225063
vt 0.255061 0.216270
vt 0.231148 0.225055
vt 0.231144 0.207501
vt 0.013775 0.001569
vt 0.231126 0.022160
vt 0.255064 0.001608
vt 0.001566 0.822125
vt 0.001566 0.617678
vt 0.173229 0.617678
vt 0.173229 0.822125
vt 0.013698 0.225056
vt 0.499765 0.225035
vt 0.499760 0.207479
vt 0.013544 0.595176
vt 0.231119 0.595151
vt 0.255075 0.614547
vt 0.001566 0.614547
vt 0.819930 0.973662
vt 0.648267 0.973662
vt 0.648267 0.769215
vt 0.819930 0.769215
vt 0.602479 0.787612
vt 0.602479 0.546337
vt 0.622241 0.546337
vt 0.622241 0.787612
vt 0.645135 0.546337
vt 0.645135 0.799583
vt 0.625373 0.799583
vt 0.625373 0.546337
vt 0.499735 0.022155
vt 0.499734 0.001600
vt 0.282170 0.595145
vt 0.499749 0.595162
vt 0.511719 0.614532
vt 0.258207 0.614540
vt 0.534613 0.614460
vt 0.514851 0.614460
vt 0.511719 0.216251
vt 0.555533 0.823232
vt 0.537745 0.823232
vt 0.537745 0.617592
vt 0.555533 0.617592
vt 0.578427 0.903876
vt 0.560638 0.903876
vt 0.560638 0.546337
vt 0.578427 0.546337
vt 0.622241 0.799583
vt 0.602479 0.799583
vt 0.511702 0.001600
vt 0.537745 0.614460
vt 0.537745 0.216298
vt 0.557507 0.216298
vt 0.557507 0.614460
vt 0.537745 0.001566
vt 0.557507 0.001566
vt 0.777971 0.001566
vt 0.777971 0.543205
vt 0.560639 0.543205
vt 0.560638 0.001566
vt 0.781102 0.001566
vt 0.998434 0.001566
vt 0.998434 0.543205
vt 0.781102 0.543205
vt 0.437565 0.626043
vt 0.445374 0.618728
vt 0.445357 0.837418
vt 0.437677 0.830064
vt 0.827583 0.554653
vt 0.835434 0.547208
vt 0.835434 0.766083
vt 0.827713 0.758597
vt 0.655963 0.553690
vt 0.648284 0.546337
vt 0.656076 0.757712
vt 0.648267 0.765027
vt 0.266057 0.829101
vt 0.258207 0.836547
vt 0.258207 0.617672
vt 0.265927 0.625158
vt 0.225200 0.588857
vt 0.019487 0.588853
vt 0.019617 0.231367
vt 0.288109 0.588843
vt 0.288230 0.231354
vt 0.493826 0.588847
vt 0.225212 0.231355
vt 0.493826 0.231355
vt 0.581559 0.546337
vt 0.599347 0.546337
vt 0.599347 0.903876
vt 0.581559 0.903876
vt 0.516824 0.617592
vt 0.534613 0.617592
vt 0.534613 0.823232
vt 0.516824 0.823232
vt 0.231953 0.617678
vt 0.239700 0.617678
vt 0.242087 0.618542
vt 0.243072 0.620627
vt 0.243072 0.633575
vt 0.242087 0.635660
vt 0.239700 0.636524
vt 0.231953 0.636524
vt 0.229566 0.635660
vt 0.228576 0.633575
vt 0.228576 0.620627
vt 0.229566 0.618542
vt 0.469945 0.625419
vt 0.466639 0.625419
vt 0.466639 0.617672
vt 0.469945 0.617672
vt 0.246203 0.617678
vt 0.249510 0.617678
vt 0.249510 0.630626
vt 0.246203 0.630626
vt 0.469945 0.643214
vt 0.466639 0.643214
vt 0.466639 0.630265
vt 0.469945 0.630265
vt 0.222906 0.639655
vt 0.225445 0.639655
vt 0.225445 0.642961
vt 0.222906 0.642961
vt 0.252769 0.630553
vt 0.255075 0.630553
vt 0.255075 0.633859
vt 0.252769 0.633859
vt 0.213487 0.642961
vt 0.210949 0.642961
vt 0.210949 0.639655
vt 0.213487 0.639655
vt 0.255075 0.620984
vt 0.252769 0.620984
vt 0.252769 0.617678
vt 0.255075 0.617678
vt 0.466639 0.648060
vt 0.466639 0.645521
vt 0.469945 0.645521
vt 0.469945 0.648060
vt 0.469945 0.627957
vt 0.466639 0.627957
vt 0.469945 0.655807
vt 0.466639 0.655807
vt 0.505035 0.651129
vt 0.505036 0.645607
vt 0.510971 0.645607
vt 0.510971 0.651129
vt 0.198750 0.652833
vt 0.194481 0.652833
vt 0.193229 0.645614
vt 0.198750 0.645614
vt 0.176361 0.645614
vt 0.181882 0.645614
vt 0.176361 0.652833
vt 0.189121 0.646697
vt 0.189121 0.617678
vt 0.193229 0.617678
vt 0.181882 0.617678
vt 0.185990 0.617678
vt 0.185990 0.646697
vt 0.505036 0.617672
vt 0.510971 0.617672
vt 0.228576 0.639655
vt 0.232683 0.639655
vt 0.232683 0.645591
vt 0.228576 0.645591
vt 0.180630 0.652833
vt 0.463508 0.617672
vt 0.463508 0.621941
vt 0.457572 0.621941
vt 0.457572 0.617672
vt 0.190691 0.651036
vt 0.184420 0.651036
vt 0.457572 0.630750
vt 0.457572 0.626135
vt 0.463508 0.626135
vt 0.463508 0.630750
vt 0.463508 0.659768
vt 0.457572 0.659768
vt 0.222068 0.617678
vt 0.224455 0.618542
vt 0.225445 0.620627
vt 0.225445 0.633575
vt 0.224455 0.635660
vt 0.222068 0.636524
vt 0.214321 0.636524
vt 0.211934 0.635660
vt 0.210949 0.633575
vt 0.210949 0.620627
vt 0.211934 0.618542
vt 0.214321 0.617678
vt 0.473077 0.625419
vt 0.473077 0.617672
vt 0.476383 0.617672
vt 0.476383 0.625419
vt 0.249510 0.633758
vt 0.249510 0.646706
vt 0.246203 0.646706
vt 0.246203 0.633758
vt 0.473077 0.643214
vt 0.473077 0.630265
vt 0.476383 0.630265
vt 0.476383 0.643214
vt 0.213487 0.646093
vt 0.213487 0.649399
vt 0.210949 0.649399
vt 0.210949 0.646093
vt 0.252769 0.640297
vt 0.252769 0.636991
vt 0.255075 0.636991
vt 0.255075 0.640297
vt 0.219775 0.639655
vt 0.219775 0.642961
vt 0.217236 0.642961
vt 0.217236 0.639655
vt 0.255075 0.624116
vt 0.255075 0.627422
vt 0.252769 0.627422
vt 0.252769 0.624116
vt 0.476383 0.648060
vt 0.473077 0.648060
vt 0.473077 0.645521
vt 0.476383 0.645521
vt 0.476383 0.627957
vt 0.473077 0.627957
vt 0.473077 0.655807
vt 0.476383 0.655807
vt 0.207817 0.651136
vt 0.201882 0.651136
vt 0.201882 0.645614
vt 0.207817 0.645614
vt 0.489143 0.617672
vt 0.483622 0.624891
vt 0.484874 0.617672
vt 0.489143 0.624891
vt 0.501904 0.645607
vt 0.501904 0.652827
vt 0.496382 0.645607
vt 0.479514 0.623808
vt 0.483622 0.652826
vt 0.479514 0.652826
vt 0.492275 0.646690
vt 0.492275 0.617672
vt 0.496382 0.617672
vt 0.201882 0.617678
vt 0.207817 0.617678
vt 0.235815 0.645591
vt 0.235815 0.639655
vt 0.239922 0.639655
vt 0.239922 0.645591
vt 0.497635 0.652827
vt 0.448505 0.617672
vt 0.454441 0.617672
vt 0.454441 0.621941
vt 0.448505 0.621941
vt 0.481084 0.619469
vt 0.493845 0.651030
vt 0.454441 0.630750
vt 0.448505 0.630750
vt 0.448505 0.626135
vt 0.454441 0.626135
vt 0.454441 0.659768
vt 0.448505 0.659768
s 1
f 3/1/1 44/2/1 41/3/1 5/4/1
f 26/5/2 39/6/2 46/7/2 27/8/2
f 1/9/3 3/10/3 5/11/3 6/12/3
f 5/4/1 41/3/1 50/13/4
f 6/14/2 53/15/5 45/16/2
f 26/5/2 14/17/2 39/6/2
f 40/18/2 1/19/2 6/14/2 45/16/2
f 40/18/2 39/6/2 14/17/2 1/19/2
f 12/20/2 13/21/2 21/22/2 22/23/2
f 46/7/2 45/16/2 53/15/5 49/24/6
f 54/25/7 50/13/4 41/3/1 42/26/1
f 47/27/8 48/28/9 2/29/2 29/30/2
f 19/31/1 16/32/1 15/33/1 20/34/1
f 11/35/10 3/36/10 1/37/10 14/38/10
f 4/39/11 28/40/11 29/41/11 2/42/11
f 43/43/1 44/2/1 3/1/1 11/44/1
f 51/45/12 52/46/13 28/47/1 4/48/1
f 50/13/4 51/45/12 4/48/1 5/4/1
f 6/14/2 2/29/2 48/28/9 53/15/5
f 5/11/3 4/49/3 2/50/3 6/12/3
f 30/51/1 28/47/1 52/46/13 54/25/7
f 18/52/11 23/53/11 24/54/11 17/55/11
f 7/56/3 10/57/3 23/58/3 18/59/3
f 49/24/6 47/27/8 29/30/2 27/8/2
f 11/35/10 14/38/10 26/60/10 25/61/10
f 11/44/1 25/62/1 43/43/1
f 46/7/2 49/24/6 27/8/2
f 43/43/1 25/62/1 30/51/1 42/26/1
f 54/25/7 42/26/1 30/51/1
f 28/63/14 30/64/14 27/65/14 29/66/14
f 25/67/14 26/68/14 27/65/14 30/64/14
f 31/69/2 33/70/2 34/71/2 32/72/2
f 35/73/1 36/74/1 38/75/1 37/76/1
f 12/77/15 39/78/16 40/79/17 13/80/18
f 20/81/19 42/82/20 41/83/21 19/84/22
f 15/85/23 43/86/24 42/82/20 20/81/19
f 16/87/25 44/88/26 43/86/24 15/85/23
f 19/84/22 41/83/21 44/88/26 16/87/25
f 21/89/27 45/90/28 46/91/29 22/92/30
f 13/80/18 40/79/17 45/90/28 21/89/27
f 22/92/30 46/91/29 39/78/16 12/77/15
f 9/93/31 48/28/9 47/27/8 10/94/32
f 10/94/32 47/27/8 49/24/6 23/95/33
f 8/96/34 51/45/12 50/13/4 17/97/35
f 7/98/36 52/46/13 51/45/12 8/96/34
f 23/95/33 49/24/6 53/15/5 24/99/37
f 17/97/35 50/13/4 54/25/7 18/100/38
f 24/99/37 53/15/5 48/28/9 9/93/31
f 18/100/38 54/25/7 52/46/13 7/98/36
f 17/101/14 24/102/14 9/103/14 8/104/14
f 8/105/10 9/106/10 10/107/10 7/108/10
f 67/109/2 56/110/2 57/111/2 55/112/2 59/113/2 60/114/2 58/115/2 71/116/2 72/117/2 70/118/2 68/119/2 69/120/2
f 76/121/39 71/122/39 58/123/40 65/124/40
f 55/125/41 62/126/41 64/127/42 59/128/42
f 73/129/43 68/130/43 70/131/44 77/132/44
f 61/133/45 63/134/46 57/135/46 56/136/45
f 63/137/46 62/138/41 55/139/41 57/140/46
f 58/141/40 60/142/47 66/143/47 65/144/40
f 60/145/47 59/146/42 64/147/42 66/148/47
f 67/149/48 69/150/49 75/151/49 74/152/48
f 69/150/49 68/130/43 73/129/43 75/151/49
f 76/121/39 78/153/50 72/154/50 71/122/39
f 78/153/50 77/132/44 70/131/44 72/154/50
f 61/155/45 56/156/45 67/149/48 74/152/48
f 83/157/14 81/158/14 82/159/14 84/160/14
f 79/161/10 90/162/10 81/163/10
f 79/161/10 81/163/10 83/164/10
f 84/165/11 82/166/11 80/167/11
f 89/168/10 88/169/10 86/170/10 81/163/10
f 82/166/11 85/171/11 87/172/11 93/173/11
f 81/158/1 86/174/1 85/175/1 82/159/1
f 86/176/14 88/177/14 87/178/14 85/179/14
f 82/166/11 92/180/11 80/167/11
f 80/181/3 92/182/51 90/183/51 79/184/3
f 89/168/10 81/163/10 91/185/10
f 91/185/10 81/163/10 90/162/10
f 92/180/11 82/166/11 94/186/11
f 94/186/11 82/166/11 93/173/11
f 89/187/52 91/188/53 94/189/53 93/190/52
f 91/188/53 90/183/51 92/182/51 94/189/53
f 93/190/52 87/191/2 88/192/2 89/187/52
f 107/193/1 109/194/1 108/195/1 110/196/1 112/197/1 111/198/1 98/199/1 100/200/1 99/201/1 95/202/1 97/203/1 96/204/1
f 116/205/39 105/206/40 98/207/40 111/208/39
f 95/209/41 99/210/42 104/211/42 102/212/41
f 113/213/43 117/214/44 110/215/44 108/216/43
f 101/217/45 96/218/45 97/219/46 103/220/46
f 103/221/46 97/222/46 95/223/41 102/224/41
f 98/225/40 105/226/40 106/227/47 100/228/47
f 100/229/47 106/230/47 104/231/42 99/232/42
f 107/233/48 114/234/48 115/235/49 109/236/49
f 109/236/49 115/235/49 113/213/43 108/216/43
f 116/205/39 111/208/39 112/237/50 118/238/50
f 118/238/50 112/237/50 110/215/44 117/214/44
f 101/239/45 114/234/48 107/233/48 96/240/45
f 123/241/14 124/242/14 122/243/14 121/244/14
f 119/245/10 121/246/10 130/247/10
f 119/245/10 123/248/10 121/246/10
f 124/249/11 120/250/11 122/251/11
f 129/252/10 121/246/10 126/253/10 128/254/10
f 122/251/11 133/255/11 127/256/11 125/257/11
f 121/244/2 122/243/2 125/258/2 126/259/2
f 126/260/14 125/261/14 127/262/14 128/263/14
f 122/251/11 120/250/11 132/264/11
f 120/265/3 119/266/3 130/267/54 132/268/54
f 129/252/10 131/269/10 121/246/10
f 131/269/10 130/247/10 121/246/10
f 132/264/11 134/270/11 122/251/11
f 134/270/11 133/255/11 122/251/11
f 129/271/55 133/272/55 134/273/56 131/274/56
f 131/274/56 134/273/56 132/268/54 130/267/54
f 133/272/55 129/271/55 128/275/1 127/276/1
