# Blender 3.6.1
# www.blender.org
mtllib дверь 2 .mtl
o Cube.016
v -0.733692 -13.359196 14.280642
v -0.733692 -11.251493 14.280642
v -0.733692 -13.359196 14.212680
v -0.733692 -11.251493 14.212680
v -0.733692 -12.620749 14.212680
v -0.733692 -12.620749 14.280642
v -1.543324 -11.339556 14.216074
v -0.836140 -11.339556 14.216074
v -0.836140 -11.339556 14.277248
v -1.543324 -11.339556 14.277248
v -1.563419 -13.359196 14.212680
v -1.541264 -13.264905 14.268755
v -0.838184 -13.264905 14.268755
v -1.563419 -13.359196 14.280642
v -1.541264 -13.264905 14.224566
v -0.838184 -13.264905 14.224566
v -0.836140 -12.569110 14.216074
v -1.543324 -12.569110 14.216074
v -0.838184 -12.674566 14.224566
v -1.541264 -12.674566 14.224566
v -0.838184 -12.674566 14.268755
v -1.541264 -12.674566 14.268755
v -1.543324 -12.569110 14.277248
v -0.836140 -12.569110 14.277248
v -1.604588 -13.359196 14.212680
v -1.604588 -13.359196 14.280642
v -1.604588 -12.620748 14.280642
v -1.604588 -11.251493 14.212680
v -1.604588 -11.251493 14.280642
v -1.604588 -12.620748 14.212680
v -0.816029 -13.202218 14.262020
v -1.563419 -13.202218 14.262020
v -0.816029 -11.339556 14.262021
v -1.563419 -11.339556 14.262021
v -0.816029 -13.202218 14.234756
v -1.563419 -13.202218 14.234756
v -0.816029 -11.339556 14.234756
v -1.563419 -11.339556 14.234756
v -1.563419 -13.288503 14.280642
v -0.816029 -13.288503 14.280642
v -0.816029 -12.650970 14.212680
v -1.563419 -12.650970 14.212680
v -1.563419 -13.288503 14.212680
v -0.816029 -13.288503 14.212680
v -0.816029 -12.650970 14.280642
v -1.563419 -12.650970 14.280642
v -1.563419 -11.318139 14.280642
v -0.816029 -11.318139 14.280642
v -1.563419 -12.590527 14.280642
v -0.816029 -12.590527 14.212680
v -0.816029 -11.318139 14.212680
v -1.563419 -11.318139 14.212680
v -0.816029 -12.590527 14.280642
v -1.563419 -12.590527 14.212680
v -0.754261 -12.306265 14.292012
v -0.765858 -12.316405 14.292012
v -0.757648 -12.313435 14.292012
v -0.765858 -12.251596 14.292012
v -0.754261 -12.261737 14.292012
v -0.757648 -12.254566 14.292012
v -0.765858 -12.316405 14.280643
v -0.754261 -12.306265 14.280643
v -0.757648 -12.313435 14.280643
v -0.754261 -12.261737 14.280643
v -0.765858 -12.251596 14.280643
v -0.757648 -12.254566 14.280643
v -0.792500 -12.316405 14.292012
v -0.804111 -12.306265 14.292012
v -0.800709 -12.313435 14.292012
v -0.804111 -12.261737 14.292012
v -0.792500 -12.251596 14.292012
v -0.800709 -12.254566 14.292012
v -0.804111 -12.306265 14.280643
v -0.792500 -12.316405 14.280643
v -0.800709 -12.313435 14.280643
v -0.792500 -12.251596 14.280643
v -0.804111 -12.261737 14.280643
v -0.800709 -12.254566 14.280643
v -0.767124 -12.294077 14.292015
v -0.767124 -12.273665 14.292015
v -0.791950 -12.294077 14.311004
v -0.791950 -12.273665 14.311004
v -0.791950 -12.294077 14.292015
v -0.791950 -12.273665 14.292015
v -0.888020 -12.273665 14.311004
v -0.888020 -12.294077 14.311004
v -0.888020 -12.273665 14.325129
v -0.888020 -12.294077 14.325129
v -0.788227 -12.294077 14.325129
v -0.767124 -12.294077 14.306696
v -0.773304 -12.294077 14.319730
v -0.767124 -12.273665 14.306696
v -0.788227 -12.273665 14.325129
v -0.773304 -12.273665 14.319730
v -0.754261 -12.306265 14.201693
v -0.765858 -12.316405 14.201693
v -0.757648 -12.313435 14.201693
v -0.765858 -12.251596 14.201693
v -0.754261 -12.261737 14.201693
v -0.757648 -12.254566 14.201693
v -0.765858 -12.316405 14.213062
v -0.754261 -12.306265 14.213062
v -0.757648 -12.313435 14.213062
v -0.754261 -12.261737 14.213062
v -0.765858 -12.251596 14.213062
v -0.757648 -12.254566 14.213062
v -0.792500 -12.316405 14.201693
v -0.804111 -12.306265 14.201693
v -0.800709 -12.313435 14.201693
v -0.804111 -12.261737 14.201693
v -0.792500 -12.251596 14.201693
v -0.800709 -12.254566 14.201693
v -0.804111 -12.306265 14.213062
v -0.792500 -12.316405 14.213062
v -0.800709 -12.313435 14.213062
v -0.792500 -12.251596 14.213062
v -0.804111 -12.261737 14.213062
v -0.800709 -12.254566 14.213062
v -0.767124 -12.294077 14.201691
v -0.767124 -12.273665 14.201691
v -0.791950 -12.294077 14.182701
v -0.791950 -12.273665 14.182701
v -0.791950 -12.294077 14.201691
v -0.791950 -12.273665 14.201691
v -0.888020 -12.273665 14.182701
v -0.888020 -12.294077 14.182701
v -0.888020 -12.273665 14.168576
v -0.888020 -12.294077 14.168576
v -0.788227 -12.294077 14.168576
v -0.767124 -12.294077 14.187010
v -0.773304 -12.294077 14.173975
v -0.767124 -12.273665 14.187010
v -0.788227 -12.273665 14.168576
v -0.773304 -12.273665 14.173975
vn -0.0000 -0.0000 -1.0000
vn -0.0000 -0.0000 1.0000
vn 1.0000 -0.0000 -0.0000
vn -0.0202 0.0205 -0.9996
vn -0.0202 0.0205 0.9996
vn 0.0202 0.0205 0.9996
vn 0.0202 0.0205 -0.9996
vn 0.0202 -0.0205 0.9996
vn -0.0202 -0.0205 0.9996
vn -0.0000 -1.0000 -0.0000
vn -0.0000 1.0000 -0.0000
vn -0.0202 -0.0205 -0.9996
vn 0.0202 -0.0205 -0.9996
vn -1.0000 -0.0000 -0.0000
vn 0.2531 0.2351 0.9384
vn 0.2418 0.2458 0.9387
vn -0.2418 0.2458 0.9387
vn -0.2531 0.2351 0.9384
vn 0.2531 -0.2351 -0.9384
vn 0.2418 -0.2458 -0.9387
vn -0.2418 -0.2458 -0.9387
vn -0.2531 -0.2351 -0.9384
vn 0.2531 0.2351 -0.9384
vn 0.2418 0.2458 -0.9387
vn -0.2531 0.2351 -0.9384
vn -0.2418 0.2458 -0.9387
vn -0.2531 -0.2351 0.9384
vn -0.2418 -0.2458 0.9387
vn 0.2418 -0.2458 0.9387
vn 0.2531 -0.2351 0.9384
vn -0.0848 -0.0777 0.9934
vn 0.0849 -0.0777 0.9934
vn 0.0849 0.0777 0.9934
vn -0.0849 -0.0777 -0.9934
vn -0.0849 0.0777 -0.9934
vn 0.0849 -0.0777 -0.9934
vn -0.0848 0.0777 0.9934
vn 0.0849 0.0777 -0.9934
vn -0.1727 0.9850 -0.0000
vn 0.1727 0.9850 -0.0000
vn 0.9757 -0.2189 -0.0000
vn 0.9758 0.2189 -0.0000
vn -0.9756 -0.2198 -0.0000
vn -0.9756 0.2197 -0.0000
vn 0.1727 -0.9850 -0.0000
vn 0.6730 -0.7396 -0.0000
vn 0.6730 0.7396 -0.0000
vn -0.1727 -0.9850 -0.0000
vn -0.6724 -0.7402 -0.0000
vn -0.6724 0.7402 -0.0000
vn 0.9756 -0.0000 0.2196
vn 0.1727 -0.0000 0.9850
vn 0.6725 -0.0000 0.7401
vn 0.9756 -0.0000 -0.2196
vn 0.1727 -0.0000 -0.9850
vn 0.6725 -0.0000 -0.7401
vt 0.310784 0.002359
vt 0.339281 0.026837
vt 0.339210 0.247527
vt 0.310719 0.257971
vt 0.002429 0.002351
vt 0.016673 0.026829
vt 0.016602 0.247511
vt 0.002353 0.257963
vt 0.619487 0.002454
vt 0.643016 0.002454
vt 0.643016 0.258112
vt 0.619487 0.258112
vt 0.339199 0.268452
vt 0.303954 0.257976
vt 0.275484 0.268436
vt 0.275478 0.247535
vt 0.016680 0.002355
vt 0.275457 0.026871
vt 0.303958 0.002401
vt 0.265975 0.235285
vt 0.022562 0.235285
vt 0.022562 0.030904
vt 0.265975 0.030904
vt 0.016590 0.268437
vt 0.598094 0.268420
vt 0.598088 0.247517
vt 0.016406 0.709098
vt 0.275449 0.709069
vt 0.303971 0.732161
vt 0.002145 0.732161
vt 0.587483 0.030904
vt 0.587483 0.235285
vt 0.344070 0.235285
vt 0.344070 0.030904
vt 0.080377 0.294377
vt 0.080377 0.581637
vt 0.056848 0.581637
vt 0.056848 0.294377
vt 0.051149 0.281586
vt 0.051149 0.583098
vt 0.027620 0.583098
vt 0.027620 0.281586
vt 0.598058 0.026872
vt 0.598057 0.002400
vt 0.339027 0.709069
vt 0.598075 0.709089
vt 0.612326 0.732152
vt 0.310497 0.732161
vt 0.643016 0.732161
vt 0.619487 0.732161
vt 0.612326 0.257962
vt 0.134449 0.526104
vt 0.113270 0.526104
vt 0.113270 0.281270
vt 0.134449 0.281270
vt 0.960139 0.428190
vt 0.938960 0.428190
vt 0.938960 0.002506
vt 0.960139 0.002506
vt 0.056848 0.280124
vt 0.080377 0.280124
vt 0.612306 0.002399
vt 0.647253 0.732161
vt 0.647253 0.258112
vt 0.670782 0.258112
vt 0.670782 0.732161
vt 0.647253 0.002454
vt 0.670782 0.002454
vt 0.933834 0.002528
vt 0.933834 0.647400
vt 0.675080 0.647400
vt 0.675080 0.002528
vt 0.002528 0.998136
vt 0.002528 0.739382
vt 0.647400 0.739382
vt 0.647400 0.998136
vt 0.889463 0.663174
vt 0.898761 0.654466
vt 0.898740 0.914836
vt 0.889597 0.906081
vt 0.564983 0.324065
vt 0.574330 0.315200
vt 0.574330 0.575791
vt 0.565138 0.566878
vt 0.360654 0.322918
vt 0.351510 0.314163
vt 0.360787 0.565825
vt 0.351490 0.574534
vt 0.685268 0.904935
vt 0.675921 0.913800
vt 0.675921 0.653208
vt 0.685113 0.662122
vt 0.268402 0.701576
vt 0.023481 0.701571
vt 0.023636 0.275951
vt 0.346098 0.701566
vt 0.346242 0.275943
vt 0.591023 0.701571
vt 0.268417 0.275937
vt 0.591023 0.275944
vt 0.940422 0.435081
vt 0.961601 0.435081
vt 0.961601 0.860764
vt 0.940422 0.860764
vt 0.086964 0.281270
vt 0.108144 0.281270
vt 0.108144 0.526104
vt 0.086964 0.526104
vt 0.169006 0.352561
vt 0.169006 0.343338
vt 0.170034 0.340496
vt 0.172517 0.339323
vt 0.187933 0.339323
vt 0.190415 0.340496
vt 0.191443 0.343338
vt 0.191443 0.352561
vt 0.190415 0.355403
vt 0.187933 0.356581
vt 0.172517 0.356581
vt 0.170034 0.355403
vt 0.161109 0.294189
vt 0.161109 0.298125
vt 0.151885 0.298125
vt 0.151885 0.294189
vt 0.196487 0.341967
vt 0.196487 0.338031
vt 0.211903 0.338031
vt 0.211903 0.341967
vt 0.182295 0.294189
vt 0.182295 0.298125
vt 0.166879 0.298125
vt 0.166879 0.294189
vt 0.041367 0.242592
vt 0.041367 0.239570
vt 0.045303 0.239570
vt 0.045303 0.242592
vt 0.082286 0.242592
vt 0.082286 0.239847
vt 0.086223 0.239847
vt 0.086223 0.242592
vt 0.055533 0.239570
vt 0.055533 0.242592
vt 0.051597 0.242592
vt 0.051597 0.239570
vt 0.065763 0.239847
vt 0.065763 0.242592
vt 0.061827 0.242592
vt 0.061827 0.239847
vt 0.188065 0.298125
vt 0.185043 0.298125
vt 0.185043 0.294189
vt 0.188065 0.294189
vt 0.164131 0.294189
vt 0.164131 0.298125
vt 0.197289 0.294189
vt 0.197289 0.298125
vt 0.236747 0.333199
vt 0.230172 0.333199
vt 0.230172 0.326132
vt 0.236747 0.326132
vt 0.181214 0.304198
vt 0.181214 0.309281
vt 0.172619 0.310772
vt 0.172619 0.304198
vt 0.194718 0.310043
vt 0.194718 0.316618
vt 0.186123 0.310043
vt 0.173908 0.315662
vt 0.139358 0.315662
vt 0.139358 0.310772
vt 0.227978 0.316618
vt 0.227978 0.321508
vt 0.193429 0.321508
vt 0.196912 0.333199
vt 0.196912 0.326132
vt 0.139788 0.296904
vt 0.144679 0.296904
vt 0.144679 0.303971
vt 0.139788 0.303971
vt 0.186123 0.315126
vt 0.196856 0.282290
vt 0.201939 0.282290
vt 0.201939 0.289357
vt 0.196856 0.289357
vt 0.179074 0.313793
vt 0.188263 0.319639
vt 0.212427 0.289357
vt 0.206933 0.289357
vt 0.206933 0.282290
vt 0.212427 0.282290
vt 0.246976 0.282290
vt 0.246976 0.289357
vt 0.139778 0.343343
vt 0.140806 0.340501
vt 0.143289 0.339323
vt 0.158705 0.339323
vt 0.161187 0.340501
vt 0.162215 0.343343
vt 0.162215 0.352567
vt 0.161187 0.355409
vt 0.158705 0.356581
vt 0.143289 0.356581
vt 0.140806 0.355409
vt 0.139778 0.352567
vt 0.226872 0.298126
vt 0.217648 0.298126
vt 0.217648 0.294189
vt 0.226872 0.294189
vt 0.139492 0.320494
vt 0.154908 0.320494
vt 0.154908 0.324431
vt 0.139492 0.324431
vt 0.248058 0.298126
vt 0.232642 0.298126
vt 0.232642 0.294189
vt 0.248058 0.294189
vt 0.031137 0.239570
vt 0.035074 0.239570
vt 0.035074 0.242592
vt 0.031137 0.242592
vt 0.096452 0.242592
vt 0.092516 0.242592
vt 0.092516 0.239847
vt 0.096452 0.239847
vt 0.020908 0.239570
vt 0.024844 0.239570
vt 0.024844 0.242592
vt 0.020908 0.242592
vt 0.072057 0.239847
vt 0.075993 0.239847
vt 0.075993 0.242592
vt 0.072057 0.242592
vt 0.253828 0.294189
vt 0.253828 0.298126
vt 0.250806 0.298126
vt 0.250806 0.294189
vt 0.229894 0.294189
vt 0.229894 0.298126
vt 0.263052 0.298126
vt 0.263052 0.294189
vt 0.257206 0.344890
vt 0.250140 0.344890
vt 0.250140 0.338316
vt 0.257206 0.338316
vt 0.202199 0.298352
vt 0.210794 0.304927
vt 0.202199 0.303435
vt 0.210794 0.298352
vt 0.172619 0.321735
vt 0.181214 0.321735
vt 0.172619 0.328309
vt 0.209505 0.309817
vt 0.244054 0.304927
vt 0.244054 0.309817
vt 0.173907 0.333199
vt 0.139358 0.333199
vt 0.139358 0.328309
vt 0.250140 0.305056
vt 0.257206 0.305056
vt 0.260129 0.286434
vt 0.253062 0.286434
vt 0.253062 0.281544
vt 0.260129 0.281544
vt 0.181214 0.326817
vt 0.139862 0.289357
vt 0.139862 0.282290
vt 0.144944 0.282290
vt 0.144944 0.289357
vt 0.204338 0.307948
vt 0.179074 0.331330
vt 0.155433 0.282290
vt 0.155433 0.289357
vt 0.149939 0.289357
vt 0.149938 0.282290
vt 0.189982 0.282290
vt 0.189982 0.289357
s 1
f 3/1/1 44/2/1 41/3/1 5/4/1
f 26/5/2 39/6/2 46/7/2 27/8/2
f 1/9/3 3/10/3 5/11/3 6/12/3
f 5/4/1 41/3/1 50/13/4
f 6/14/2 53/15/5 45/16/2
f 26/5/2 14/17/2 39/6/2
f 40/18/2 1/19/2 6/14/2 45/16/2
f 40/18/2 39/6/2 14/17/2 1/19/2
f 12/20/2 13/21/2 21/22/2 22/23/2
f 46/7/2 45/16/2 53/15/5 49/24/6
f 54/25/7 50/13/4 41/3/1 42/26/1
f 47/27/8 48/28/9 2/29/2 29/30/2
f 19/31/1 16/32/1 15/33/1 20/34/1
f 11/35/10 3/36/10 1/37/10 14/38/10
f 4/39/11 28/40/11 29/41/11 2/42/11
f 43/43/1 44/2/1 3/1/1 11/44/1
f 51/45/12 52/46/13 28/47/1 4/48/1
f 50/13/4 51/45/12 4/48/1 5/4/1
f 6/14/2 2/29/2 48/28/9 53/15/5
f 5/11/3 4/49/3 2/50/3 6/12/3
f 30/51/1 28/47/1 52/46/13 54/25/7
f 18/52/11 23/53/11 24/54/11 17/55/11
f 7/56/3 10/57/3 23/58/3 18/59/3
f 49/24/6 47/27/8 29/30/2 27/8/2
f 11/35/10 14/38/10 26/60/10 25/61/10
f 11/44/1 25/62/1 43/43/1
f 46/7/2 49/24/6 27/8/2
f 43/43/1 25/62/1 30/51/1 42/26/1
f 54/25/7 42/26/1 30/51/1
f 28/63/14 30/64/14 27/65/14 29/66/14
f 25/67/14 26/68/14 27/65/14 30/64/14
f 31/69/2 33/70/2 34/71/2 32/72/2
f 35/73/1 36/74/1 38/75/1 37/76/1
f 12/77/15 39/78/16 40/79/17 13/80/18
f 20/81/19 42/82/20 41/83/21 19/84/22
f 15/85/23 43/86/24 42/82/20 20/81/19
f 16/87/25 44/88/26 43/86/24 15/85/23
f 19/84/22 41/83/21 44/88/26 16/87/25
f 21/89/27 45/90/28 46/91/29 22/92/30
f 13/80/18 40/79/17 45/90/28 21/89/27
f 22/92/30 46/91/29 39/78/16 12/77/15
f 9/93/31 48/28/9 47/27/8 10/94/32
f 10/94/32 47/27/8 49/24/6 23/95/33
f 8/96/34 51/45/12 50/13/4 17/97/35
f 7/98/36 52/46/13 51/45/12 8/96/34
f 23/95/33 49/24/6 53/15/5 24/99/37
f 17/97/35 50/13/4 54/25/7 18/100/38
f 24/99/37 53/15/5 48/28/9 9/93/31
f 18/100/38 54/25/7 52/46/13 7/98/36
f 17/101/14 24/102/14 9/103/14 8/104/14
f 8/105/10 9/106/10 10/107/10 7/108/10
f 67/109/2 56/110/2 57/111/2 55/112/2 59/113/2 60/114/2 58/115/2 71/116/2 72/117/2 70/118/2 68/119/2 69/120/2
f 76/121/39 71/122/39 58/123/40 65/124/40
f 55/125/41 62/126/41 64/127/42 59/128/42
f 73/129/43 68/130/43 70/131/44 77/132/44
f 61/133/45 63/134/46 57/135/46 56/136/45
f 63/137/46 62/138/41 55/139/41 57/140/46
f 58/141/40 60/142/47 66/143/47 65/144/40
f 60/145/47 59/146/42 64/147/42 66/148/47
f 67/149/48 69/150/49 75/151/49 74/152/48
f 69/150/49 68/130/43 73/129/43 75/151/49
f 76/121/39 78/153/50 72/154/50 71/122/39
f 78/153/50 77/132/44 70/131/44 72/154/50
f 61/155/45 56/156/45 67/149/48 74/152/48
f 83/157/14 81/158/14 82/159/14 84/160/14
f 79/161/10 90/162/10 81/163/10
f 79/161/10 81/163/10 83/164/10
f 84/165/11 82/166/11 80/167/11
f 89/168/10 88/169/10 86/170/10 81/163/10
f 82/166/11 85/171/11 87/172/11 93/173/11
f 81/158/1 86/174/1 85/175/1 82/159/1
f 86/176/14 88/177/14 87/178/14 85/179/14
f 82/166/11 92/180/11 80/167/11
f 80/181/3 92/182/51 90/183/51 79/184/3
f 89/168/10 81/163/10 91/185/10
f 91/185/10 81/163/10 90/162/10
f 92/180/11 82/166/11 94/186/11
f 94/186/11 82/166/11 93/173/11
f 89/187/52 91/188/53 94/189/53 93/190/52
f 91/188/53 90/183/51 92/182/51 94/189/53
f 93/190/52 87/191/2 88/192/2 89/187/52
f 107/193/1 109/194/1 108/195/1 110/196/1 112/197/1 111/198/1 98/199/1 100/200/1 99/201/1 95/202/1 97/203/1 96/204/1
f 116/205/39 105/206/40 98/207/40 111/208/39
f 95/209/41 99/210/42 104/211/42 102/212/41
f 113/213/43 117/214/44 110/215/44 108/216/43
f 101/217/45 96/218/45 97/219/46 103/220/46
f 103/221/46 97/222/46 95/223/41 102/224/41
f 98/225/40 105/226/40 106/227/47 100/228/47
f 100/229/47 106/230/47 104/231/42 99/232/42
f 107/233/48 114/234/48 115/235/49 109/236/49
f 109/236/49 115/235/49 113/213/43 108/216/43
f 116/205/39 111/208/39 112/237/50 118/238/50
f 118/238/50 112/237/50 110/215/44 117/214/44
f 101/239/45 114/234/48 107/233/48 96/240/45
f 123/241/14 124/242/14 122/243/14 121/244/14
f 119/245/10 121/246/10 130/247/10
f 119/245/10 123/248/10 121/246/10
f 124/249/11 120/250/11 122/251/11
f 129/252/10 121/246/10 126/253/10 128/254/10
f 122/251/11 133/255/11 127/256/11 125/257/11
f 121/244/2 122/243/2 125/258/2 126/259/2
f 126/260/14 125/261/14 127/262/14 128/263/14
f 122/251/11 120/250/11 132/264/11
f 120/265/3 119/266/3 130/267/54 132/268/54
f 129/252/10 131/269/10 121/246/10
f 131/269/10 130/247/10 121/246/10
f 132/264/11 134/270/11 122/251/11
f 134/270/11 133/255/11 122/251/11
f 129/271/55 133/272/55 134/273/56 131/274/56
f 131/274/56 134/273/56 132/268/54 130/267/54
f 133/272/55 129/271/55 128/275/1 127/276/1
