# Blender 3.6.1
# www.blender.org
mtllib closet.mtl
o closet_323c
v 0.098721 0.429598 0.643442
v 0.098721 0.429598 0.028939
v 0.088017 0.434032 0.643442
v 0.088016 0.434032 0.028939
v 0.083583 0.444736 0.643442
v 0.083582 0.444736 0.028939
v 0.088017 0.455440 0.643442
v 0.088016 0.455440 0.028939
v 0.098721 0.459874 0.643442
v 0.098721 0.459874 0.028939
v 0.109426 0.455440 0.643442
v 0.109425 0.455440 0.028939
v 0.113860 0.444736 0.643442
v 0.113859 0.444736 0.028939
v 0.109426 0.434032 0.643442
v 0.109425 0.434032 0.028939
v -0.162559 -1.130054 0.683442
v -0.162559 0.869946 0.683442
v -0.162560 -1.130054 -0.660706
v -0.162560 0.869946 -0.660706
v 0.360000 -1.130054 0.683442
v 0.360000 0.869946 0.683442
v 0.359999 -1.130054 -0.660707
v 0.359999 0.869946 -0.660707
v -0.162559 -1.090053 0.643442
v -0.162559 0.829946 0.643442
v -0.162560 -1.090053 -0.620706
v -0.162560 0.829946 -0.620706
v 0.320000 -1.090053 0.643442
v 0.320000 0.829946 0.643442
v 0.319999 -1.090053 -0.620706
v 0.319999 0.829946 -0.620707
v -0.182359 -1.130054 0.686264
v -0.182359 0.869946 0.686264
v -0.277161 -1.130054 0.020909
v -0.277161 0.869946 0.020909
v -0.162559 -1.130054 0.683443
v -0.162559 0.869946 0.683442
v -0.257361 -1.130054 0.018088
v -0.257361 0.869946 0.018088
v -0.163597 -1.130054 -0.658954
v -0.163597 0.869946 -0.658954
v -0.441683 -1.130054 -0.056197
v -0.441683 0.869946 -0.056198
v -0.145436 -1.130054 -0.650576
v -0.145436 0.869946 -0.650576
v -0.423523 -1.130054 -0.047819
v -0.423523 0.869946 -0.047819
v -0.130731 -1.090053 -0.006203
v -0.130731 -1.090053 0.028938
v -0.130731 0.829946 -0.006203
v -0.130731 0.829946 0.028938
v 0.320000 -1.090053 -0.006203
v 0.320000 -1.090053 0.028938
v 0.320000 0.829946 -0.006204
v 0.320000 0.829946 0.028938
v 0.319999 0.443494 -0.620707
v 0.320000 0.443494 -0.006203
v -0.130731 0.443494 -0.620706
v -0.130731 0.416454 -0.620706
v -0.130731 0.443494 -0.006203
v -0.130731 0.416454 -0.006203
v 0.319999 -0.097300 -0.620706
v 0.320000 -0.097300 -0.006203
v -0.130731 -0.097300 -0.620706
v -0.130731 -0.124340 -0.620706
v -0.130731 -0.097300 -0.006203
v -0.130731 -0.124340 -0.006203
v 0.319999 -0.638094 -0.620706
v 0.320000 -0.638094 -0.006203
v -0.130731 -0.638094 -0.620706
v -0.130731 -0.665134 -0.620706
v -0.130731 -0.638094 -0.006203
v -0.130731 -0.665134 -0.006203
v 0.319999 0.416454 -0.620706
v 0.320000 0.416454 -0.006203
vn -0.0000 -1.0000 -0.0000
vn -0.7071 -0.7071 -0.0000
vn -1.0000 -0.0000 -0.0000
vn -0.7071 0.7071 -0.0000
vn -0.0000 1.0000 -0.0000
vn 0.7071 0.7071 -0.0000
vn 1.0000 -0.0000 -0.0000
vn 0.7071 -0.7071 -0.0000
vn -0.0000 -0.0000 -1.0000
vn -0.0000 -0.0000 1.0000
vn -0.9900 -0.0000 0.1411
vn 0.9900 -0.0000 -0.1411
vn 0.1411 -0.0000 0.9900
vn -0.1411 -0.0000 -0.9900
vn -0.9080 -0.0000 -0.4189
vn 0.9080 -0.0000 0.4189
vn 0.4189 -0.0000 -0.9080
vn -0.4189 -0.0000 0.9080
vt 0.548656 0.812652
vt 0.548656 0.939719
vt 0.546260 0.939719
vt 0.546260 0.812652
vt 0.543864 0.939719
vt 0.543864 0.812652
vt 0.541469 0.939719
vt 0.541469 0.812652
vt 0.539073 0.939719
vt 0.539073 0.812652
vt 0.536677 0.939719
vt 0.536677 0.812652
vt 0.534281 0.939719
vt 0.534281 0.812652
vt 0.531885 0.939719
vt 0.531885 0.812652
vt 0.529490 0.939719
vt 0.529490 0.812652
vt 0.696885 0.000415
vt 0.804939 0.000415
vt 0.804939 0.413975
vt 0.696885 0.413975
vt 0.138508 0.414805
vt 0.246563 0.414805
vt 0.246563 0.828364
vt 0.138508 0.828364
vt 0.833729 0.278358
vt 0.833729 0.000415
vt 0.941784 0.000415
vt 0.941784 0.278358
vt 0.710021 0.414805
vt 0.710021 0.811822
vt 0.610238 0.811822
vt 0.610237 0.414805
vt 0.247393 0.811822
vt 0.247393 0.414805
vt 0.508794 0.414805
vt 0.508794 0.811822
vt 0.509624 0.811822
vt 0.509624 0.414805
vt 0.609407 0.414805
vt 0.609407 0.811822
vt 0.999585 0.938436
vt 0.899801 0.938436
vt 0.899801 0.677036
vt 0.999585 0.677036
vt 0.999585 0.676206
vt 0.899801 0.676206
vt 0.899801 0.414805
vt 0.999585 0.414805
vt 0.000415 0.413975
vt 0.008686 0.405703
vt 0.270087 0.405704
vt 0.278358 0.413975
vt 0.270087 0.008686
vt 0.278358 0.000415
vt 0.000415 0.000415
vt 0.008686 0.008686
vt 0.418990 0.000415
vt 0.557961 0.000415
vt 0.557961 0.413975
vt 0.418990 0.413975
vt 0.418159 0.000415
vt 0.418159 0.413975
vt 0.279188 0.413975
vt 0.279188 0.000415
vt 0.809905 0.413975
vt 0.805769 0.413975
vt 0.805769 0.000415
vt 0.809905 0.000415
vt 0.946749 0.139386
vt 0.942614 0.139386
vt 0.942614 0.000415
vt 0.946749 0.000415
vt 0.815701 0.000415
vt 0.819836 0.000415
vt 0.819836 0.413975
vt 0.815701 0.413975
vt 0.000415 0.414805
vt 0.137678 0.414805
vt 0.137678 0.828365
vt 0.000415 0.828365
vt 0.696054 0.000415
vt 0.696054 0.413975
vt 0.558791 0.413975
vt 0.558791 0.000415
vt 0.946749 0.277480
vt 0.942614 0.277480
vt 0.942614 0.140217
vt 0.946749 0.140217
vt 0.820667 0.000415
vt 0.824802 0.000415
vt 0.824802 0.413974
vt 0.820667 0.413974
vt 0.814871 0.413975
vt 0.810735 0.413975
vt 0.810735 0.000415
vt 0.814871 0.000415
vt 0.825632 0.397432
vt 0.825632 0.000415
vt 0.832899 0.000415
vt 0.832899 0.397432
vt 0.804053 0.414805
vt 0.804053 0.811822
vt 0.710851 0.811822
vt 0.710851 0.414805
vt 0.898971 0.414805
vt 0.898971 0.811822
vt 0.805769 0.811822
vt 0.805769 0.414805
vt 0.934182 0.279188
vt 0.939774 0.279188
vt 0.939774 0.406255
vt 0.934182 0.406255
vt 0.341425 0.812652
vt 0.434627 0.812652
vt 0.434627 0.939719
vt 0.341425 0.939719
vt 0.549486 0.812652
vt 0.555078 0.812652
vt 0.555078 0.939719
vt 0.549486 0.939719
vt 0.247393 0.812652
vt 0.340595 0.812652
vt 0.340595 0.939719
vt 0.247393 0.939719
vt 0.927761 0.279188
vt 0.933352 0.279188
vt 0.933352 0.406255
vt 0.927761 0.406255
vt 0.435457 0.812652
vt 0.528659 0.812652
vt 0.528659 0.939719
vt 0.435457 0.939719
vt 0.926931 0.279188
vt 0.926931 0.406255
vt 0.833729 0.406255
vt 0.833729 0.279188
s 1
f 1/1/1 3/4/2 4/3/2 2/2/1
f 3/4/2 5/6/3 6/5/3 4/3/2
f 5/6/3 7/8/4 8/7/4 6/5/3
f 7/8/4 9/10/5 10/9/5 8/7/4
f 9/10/5 11/12/6 12/11/6 10/9/5
f 11/12/6 13/14/7 14/13/7 12/11/6
f 13/14/7 15/16/8 16/15/8 14/13/7
f 15/16/8 1/18/1 2/17/1 16/15/8
f 19/19/9 20/22/9 24/21/9 23/20/9
f 21/23/10 22/26/10 18/25/10 17/24/10
f 24/27/5 20/30/5 18/29/5 22/28/5
f 27/31/10 31/34/10 32/33/10 28/32/10
f 31/35/3 29/38/3 30/37/3 32/36/3
f 29/39/9 25/42/9 26/41/9 30/40/9
f 27/43/5 25/46/5 29/45/5 31/44/5
f 32/47/1 30/50/1 26/49/1 28/48/1
f 19/51/3 17/54/3 25/53/3 27/52/3
f 17/54/3 18/56/3 26/55/3 25/53/3
f 20/57/3 19/51/3 27/52/3 28/58/3
f 18/56/3 20/57/3 28/58/3 26/55/3
f 33/59/11 34/62/11 36/61/11 35/60/11
f 37/63/12 39/66/12 40/65/12 38/64/12
f 34/67/13 33/70/13 37/69/13 38/68/13
f 36/71/5 34/74/5 38/73/5 40/72/5
f 35/75/14 36/78/14 40/77/14 39/76/14
f 43/79/15 44/82/15 42/81/15 41/80/15
f 47/83/16 45/86/16 46/85/16 48/84/16
f 42/87/5 44/90/5 48/89/5 46/88/5
f 41/91/17 42/94/17 46/93/17 45/92/17
f 44/95/18 43/98/18 47/97/18 48/96/18
f 49/99/3 50/102/3 52/101/3 51/100/3
f 51/103/9 55/106/9 53/105/9 49/104/9
f 56/107/10 52/110/10 50/109/10 54/108/10
f 61/111/3 59/114/3 60/113/3 62/112/3
f 58/115/5 57/118/5 59/117/5 61/116/5
f 67/119/3 65/122/3 66/121/3 68/120/3
f 64/123/5 63/126/5 65/125/5 67/124/5
f 73/127/3 71/130/3 72/129/3 74/128/3
f 70/131/5 69/134/5 71/133/5 73/132/5
f 60/135/1 75/138/1 76/137/1 62/136/1
