# Blender 3.6.1
# www.blender.org
mtllib keyboard.mtl
o model_0.013
v -0.096705 -0.029058 0.000000
v -0.094722 -0.028664 -0.013869
v -0.075605 -0.028240 -0.034270
v -0.036498 -0.025967 -0.039190
v -0.085686 0.004498 0.031965
v -0.068919 0.011263 0.034311
v -0.072379 0.024627 0.000014
v -0.052046 0.028364 0.000014
v -0.034753 0.027819 0.000028
v -0.035149 0.015634 -0.034185
v -0.014778 0.013209 -0.032718
v -0.051838 0.014137 -0.035483
v -0.068919 0.011263 -0.034269
v -0.085686 0.004498 -0.031923
v -0.091893 0.015363 0.000014
v -0.098575 -0.003271 -0.022601
v -0.104330 -0.002777 0.000000
v -0.098575 -0.003271 0.022644
v 0.013686 0.014484 -0.000008
v 0.010952 0.011221 -0.003764
v 0.014854 0.013160 -0.003795
v 0.016908 0.009069 -0.004978
v 0.019907 0.015423 -0.000058
v 0.019388 0.013857 -0.003832
v 0.019227 0.009432 -0.004997
v 0.024027 0.013160 -0.003870
v 0.021653 0.009069 -0.005016
v 0.026233 0.014484 -0.000110
v 0.031506 0.011847 -0.000153
v 0.033649 0.007846 -0.000170
v 0.027928 0.011221 -0.003901
v 0.023656 0.008099 -0.005033
v 0.024921 0.006584 -0.005043
v 0.030564 0.008281 -0.003923
v 0.025448 0.004826 -0.005047
v 0.031408 0.004826 -0.003930
v 0.034309 0.001946 -0.000175
v 0.032440 0.004826 0.003571
v 0.026801 0.004826 0.004783
v 0.031597 0.008281 0.003578
v 0.026274 0.006584 0.004787
v 0.028961 0.011221 0.003599
v 0.025009 0.008099 0.004797
v 0.025059 0.013160 0.003631
v 0.023005 0.009069 0.004813
v 0.020420 0.013857 0.003668
v 0.015886 0.013160 0.003705
v 0.018261 0.009069 0.004852
v 0.020580 0.009432 0.004833
v -0.075605 -0.028240 0.034313
v 0.011985 0.011221 0.003737
v 0.006035 0.011847 0.000212
v -0.015160 -0.025997 0.040590
v 0.040208 -0.029361 0.032093
v 0.049251 -0.029816 0.000043
v 0.040895 -0.029704 -0.030269
v 0.025533 -0.027724 -0.038596
v 0.006733 -0.027452 -0.040123
v 0.033674 0.002655 -0.000219
v 0.033655 0.003983 -0.001545
v 0.030422 0.006536 -0.003738
v 0.018711 0.013706 -0.003520
v 0.047664 -0.029785 -0.017092
v -0.015160 -0.025997 -0.040547
v 0.006733 -0.027452 0.040166
v -0.036498 -0.025967 0.039233
v -0.050301 -0.026300 0.038087
v -0.094722 -0.028664 0.013912
v -0.063627 -0.027482 0.036815
v -0.075605 -0.028240 0.034313
v -0.050301 -0.026300 -0.038045
v -0.063627 -0.027482 -0.036772
v -0.075605 -0.028240 -0.034270
v 0.025533 -0.027724 0.038639
v 0.047664 -0.029785 0.017135
v 0.033624 0.003704 0.001866
v 0.015776 0.014615 0.001909
v -0.035149 0.015634 0.034228
v -0.051838 0.014137 0.035526
v 0.011392 0.005546 -0.031881
v 0.014031 0.016737 -0.005810
v 0.034036 -0.006130 -0.032718
v 0.039256 -0.002145 -0.019934
v 0.042733 -0.009782 -0.029255
v 0.048217 -0.010919 -0.020486
v 0.050881 -0.010830 0.000042
v 0.042508 -0.000902 0.000043
v 0.048217 -0.010919 0.020528
v 0.042733 -0.009782 0.029298
v 0.039256 -0.002145 0.019977
v 0.034036 -0.006130 0.032761
v 0.011392 0.005546 0.031923
v -0.014778 0.013209 0.032761
v 0.036638 0.004250 0.004029
v 0.038939 0.002250 0.000043
v 0.036638 0.004250 -0.003987
v 0.032434 0.006856 -0.005726
v 0.018711 0.013706 0.003605
v 0.025454 0.010190 0.004369
v 0.014031 0.016737 0.005853
v 0.014110 0.014979 0.000043
v 0.015776 0.014615 -0.001866
v -0.013336 0.026799 0.000043
v 0.025454 0.010190 -0.004326
v 0.032434 0.006856 0.005768
v 0.030451 0.006796 0.003521
vn 0.9977 -0.0677 0.0001
vn 0.9550 -0.0760 -0.2868
vn 0.9049 0.3023 -0.2995
vn 0.9455 0.3256 0.0001
vn 0.2381 0.6219 -0.7460
vn 0.3824 0.4859 -0.7859
vn 0.2295 0.1586 -0.9603
vn 0.0737 0.2210 -0.9725
vn -0.8411 0.1470 -0.5205
vn -0.3883 -0.0921 -0.9169
vn -0.8664 -0.2900 -0.4065
vn -0.0811 0.5872 0.8054
vn 0.0250 0.6380 0.7697
vn 0.0410 0.9992 0.0001
vn -0.0989 0.9951 -0.0001
vn 0.1267 0.6404 -0.7575
vn 0.1783 0.9840 0.0003
vn -0.1295 0.0433 -0.9906
vn -0.4894 0.4175 -0.7656
vn -0.2435 0.5649 -0.7884
vn 0.0394 0.1851 -0.9819
vn 0.2125 0.1758 0.9612
vn 0.6588 0.0089 0.7522
vn 0.6826 0.3499 0.6416
vn 0.3686 0.4966 0.7858
vn 0.5656 0.7687 -0.2986
vn 0.7173 0.6968 0.0002
vn -0.0000 1.0000 -0.0000
vn 0.6870 0.3361 -0.6443
vn 0.6834 -0.0228 -0.7297
vn -0.2780 0.9599 0.0359
vn -0.1935 0.7639 -0.6156
vn -0.3343 0.8183 -0.4676
vn -0.3680 0.9297 0.0157
vn -0.0132 0.6805 -0.7326
vn -0.0094 0.2547 -0.9670
vn -0.0474 0.2556 -0.9656
vn 0.3250 0.9450 -0.0354
vn 0.2002 0.6459 0.7367
vn 0.4033 0.5124 0.7582
vn 0.6970 0.7142 -0.0647
vn -0.3883 -0.0921 0.9169
vn -0.4894 0.4176 0.7656
vn -0.8412 0.1470 0.5203
vn -0.8665 -0.2900 0.4063
vn -0.6154 0.7883 -0.0001
vn -0.9859 0.1676 -0.0003
vn -0.9683 -0.2497 -0.0002
vn -0.3067 0.9518 -0.0001
vn 0.1266 0.6403 0.7576
vn 0.3677 0.7946 0.4831
vn 0.4649 0.8482 0.2539
vn 0.3949 0.7527 0.5268
vn 0.2247 0.8498 0.4768
vn 0.2248 0.8498 0.4768
vn -0.2435 0.5649 0.7884
vn 0.9054 0.3039 0.2966
vn 0.9568 -0.0731 0.2816
vn -0.0810 0.5872 -0.8054
vn 0.0252 0.6380 -0.7696
vn 0.0055 0.1236 -0.9923
vn -0.0451 0.0738 -0.9963
vn 0.1383 0.9892 0.0496
vn 0.1369 0.9905 0.0158
vn 0.3970 0.7863 -0.4735
vn 0.2244 0.8561 -0.4655
vn 0.2250 0.8558 -0.4658
vn 0.4194 0.7804 -0.4637
vn 0.4141 0.8728 -0.2584
vn 0.4637 0.8522 -0.2425
vn 0.4538 0.8596 -0.2350
vn -0.0451 0.0738 0.9963
vn 0.0055 0.1236 0.9923
vn 0.4284 0.9036 -0.0016
vn 0.3955 0.9184 -0.0000
vn -0.0013 1.0000 0.0023
vn 0.1220 0.1845 -0.9752
vn 0.0601 0.2373 -0.9696
vn 0.1723 0.6295 -0.7577
vn 0.3538 0.4818 -0.8017
vn 0.4484 0.8548 0.2614
vn 0.4143 0.8731 0.2571
vn 0.4477 0.8550 -0.2618
vn -0.2981 0.7826 0.5465
vn -0.1648 0.7497 0.6409
vn 0.9810 0.1578 -0.1125
vn 0.6119 0.1071 -0.7836
vn 0.5143 0.2419 -0.8228
vn 0.9390 0.3323 -0.0885
vn 0.0110 0.6788 0.7343
vn -0.0313 0.2531 0.9669
vn 0.0081 0.2547 0.9670
vn 0.4754 0.8205 -0.3175
vn 0.6518 0.7398 -0.1670
vn 0.5947 0.2684 0.7578
vn 0.6619 0.7496 -0.0000
vn 0.6514 0.7401 0.1672
vn 0.5656 0.7687 0.2986
vn 0.4754 0.8205 0.3175
vn 0.3294 0.8551 -0.4004
vn 0.0784 0.2407 0.9674
vn 0.1429 0.1897 0.9714
vn -0.1295 0.0433 0.9906
vn 0.2382 0.6218 0.7461
vn 0.3297 0.8550 0.4004
vn 0.7155 0.1225 0.6878
vn 0.1821 0.0500 -0.9820
vn 0.1663 0.1008 -0.9809
vn 0.4534 0.8601 0.2337
vn 0.1905 0.1049 0.9761
vn 0.2076 0.0525 0.9768
vn 0.0394 0.1851 0.9819
vn 0.0737 0.2210 0.9725
vt 0.827946 0.583664
vt 0.827795 0.496577
vt 0.923299 0.479334
vt 0.924382 0.584087
vt 0.425984 0.164233
vt 0.484491 0.049266
vt 0.597675 0.092495
vt 0.598083 0.187957
vt 0.982103 0.328217
vt 0.825660 0.420372
vt 0.852998 0.281534
vt 0.376731 0.293423
vt 0.371857 0.381048
vt 0.190257 0.386780
vt 0.188788 0.304596
vt 0.017461 0.640495
vt 0.014421 0.494215
vt 0.192080 0.489735
vt 0.597304 0.544872
vt 0.600629 0.606826
vt 0.434569 0.657968
vt 0.400875 0.572072
vt 0.591356 0.298814
vt 0.389027 0.297257
vt 0.822024 0.565901
vt 0.824392 0.647606
vt 0.724010 0.657826
vt 0.708894 0.609273
vt 0.092648 0.790077
vt 0.197375 0.798830
vt 0.198542 0.866897
vt 0.087781 0.856670
vt 0.821082 0.113525
vt 0.824330 0.051567
vt 0.824392 0.051570
vt 0.926909 0.426797
vt 0.825660 0.421640
vt 0.690944 0.695945
vt 0.674196 0.709423
vt 0.662258 0.690448
vt 0.671525 0.659094
vt 0.684404 0.730159
vt 0.662833 0.737922
vt 0.656775 0.727208
vt 0.655508 0.735788
vt 0.634815 0.737160
vt 0.635349 0.716513
vt 0.655097 0.705169
vt 0.825659 0.000634
vt 0.999366 0.004885
vt 0.982102 0.092791
vt 0.852996 0.139473
vt 0.307857 0.023362
vt 0.185437 0.108530
vt 0.183516 0.000634
vt 0.853879 0.210610
vt 0.992365 0.210607
vt 0.013949 0.112638
vt 0.187142 0.208294
vt 0.005245 0.209267
vt 0.369597 0.488140
vt 0.473106 0.694340
vt 0.473811 0.734117
vt 0.463060 0.704663
vt 0.447865 0.686585
vt 0.460014 0.671259
vt 0.999366 0.416123
vt 0.369026 0.203050
vt 0.060240 0.027588
vt 0.922377 0.688616
vt 0.827029 0.670532
vt 0.386528 0.485380
vt 0.377999 0.400758
vt 0.590062 0.407010
vt 0.591558 0.477104
vt 0.438387 0.685973
vt 0.437448 0.659236
vt 0.401657 0.694235
vt 0.415142 0.671382
vt 0.426581 0.686525
vt 0.411904 0.705426
vt 0.377999 0.797262
vt 0.400195 0.733993
vt 0.395512 0.772384
vt 0.357026 0.106777
vt 0.815422 0.181300
vt 0.814014 0.251396
vt 0.601959 0.257915
vt 0.610382 0.173282
vt 0.194548 0.633577
vt 0.224147 0.628971
vt 0.704706 0.725246
vt 0.008500 0.387262
vt 0.666278 0.762048
vt 0.666027 0.750353
vt 0.690490 0.751917
vt 0.691212 0.772794
vt 0.471973 0.789387
vt 0.494798 0.797797
vt 0.463917 0.799529
vt 0.400979 0.789284
vt 0.408640 0.799529
vt 0.634270 0.797961
vt 0.613533 0.834756
vt 0.606903 0.799140
vt 0.619090 0.779952
vt 0.681803 0.832879
vt 0.674794 0.804995
vt 0.686002 0.791085
vt 0.701949 0.809640
vt 0.629073 0.759009
vt 0.601959 0.760808
vt 0.607949 0.750014
vt 0.166958 0.733827
vt 0.176194 0.758909
vt 0.647784 0.768046
vt 0.645400 0.683490
vt 0.630381 0.698547
vt 0.196944 0.774147
vt 0.216943 0.758187
vt 0.301525 0.786503
vt 0.225347 0.732825
vt 0.164608 0.629991
vt 0.611046 0.737550
vt 0.611255 0.725832
vt 0.624619 0.086573
vt 0.658205 0.000634
vt 0.371564 0.634443
vt 0.626851 0.659094
vt 0.619822 0.684365
vt 0.017013 0.778782
vt 0.356981 0.823509
vt 0.376731 0.772631
vt 0.712694 0.757454
vt 0.712336 0.788188
vt 0.600691 0.606823
vt 0.656775 0.779202
vt 0.662884 0.771789
vt 0.000634 0.299853
vt 0.308666 0.852892
vt 0.477555 0.772633
vt 0.607930 0.716040
vt 0.601959 0.708454
vt 0.038490 0.828956
vt 0.815445 0.359590
vt 0.613118 0.361402
vt 0.822311 0.470439
vt 0.650243 0.494380
vt 0.925592 0.741179
vt 0.825660 0.755129
vt 0.499353 0.000634
vt 0.600691 0.003549
s 1
f 55/1/1 63/2/2 85/3/3 86/4/4
f 80/5/5 82/6/6 57/7/7 58/8/8
f 16/9/9 3/10/10 2/11/11
f 79/12/12 78/13/13 9/14/14 8/15/15
f 80/16/5 11/17/16 103/18/17
f 72/19/18 3/20/10 14/21/19 13/22/20
f 58/8/8 64/23/21 11/24/16 80/5/5
f 74/25/22 54/26/23 89/27/24 91/28/25
f 83/29/26 87/30/27 86/31/4 85/32/3
f 69/33/28 50/34/28 70/35/28
f 84/36/29 85/3/3 63/2/2 56/37/30
f 19/38/31 21/39/32 20/40/33 52/41/34
f 24/42/35 25/43/36 22/44/37 21/39/32
f 28/45/38 44/46/39 42/47/40 29/48/41
f 50/49/42 5/50/43 18/51/44
f 18/51/44 68/52/45 50/49/42
f 18/53/44 15/54/46 17/55/47
f 2/11/11 1/56/48 17/57/47 16/9/9
f 14/58/19 15/54/46 7/59/49 13/60/20
f 103/18/17 9/14/14 78/13/13 93/61/50
f 97/62/51 104/63/52 61/64/53
f 97/62/51 61/64/53 60/65/54 96/66/55
f 14/67/19 3/10/10 16/9/9
f 79/12/12 8/15/15 7/59/49 6/68/56
f 14/58/19 16/69/9 15/54/46
f 86/4/4 88/70/57 75/71/58 55/1/1
f 12/72/59 10/73/60 4/74/61 71/75/62
f 60/65/54 59/76/63 95/77/64 96/66/55
f 105/78/65 94/79/66 76/80/67 106/81/68
f 16/69/9 17/55/47 15/54/46
f 100/82/69 105/78/65 99/83/70 98/84/71
f 18/53/44 5/85/43 15/54/46
f 67/86/72 66/87/73 78/88/13 79/89/12
f 101/90/74 103/18/75 100/91/69
f 23/92/76 24/42/35 21/39/32 19/38/31
f 9/14/14 103/18/17 11/17/16 10/93/60
f 32/94/77 27/95/78 26/96/79 31/97/80
f 102/98/81 81/99/82 101/100/74
f 100/82/69 77/101/83 101/102/74
f 19/103/31 52/104/34 51/105/84 47/106/85
f 106/81/68 99/83/70 105/78/65
f 37/107/86 36/108/87 34/109/88 30/110/89
f 46/111/90 47/106/85 48/112/91 49/113/92
f 94/79/66 95/77/64 59/76/63 76/80/67
f 83/29/26 97/114/93 96/115/94
f 87/30/27 83/29/26 96/115/94
f 46/111/90 44/46/39 28/45/38 23/116/76
f 30/117/89 29/48/41 42/47/40 40/118/95
f 87/30/27 96/115/94 95/119/96
f 94/120/97 87/30/27 95/119/96
f 90/121/98 87/30/27 94/120/97
f 105/122/99 90/121/98 94/120/97
f 83/29/26 80/16/5 97/114/93
f 80/16/5 81/123/100 97/114/93
f 44/46/39 45/124/101 43/125/102 42/47/40
f 69/33/103 6/126/56 5/127/43 50/34/42
f 92/128/104 105/122/99 100/91/105
f 37/129/86 30/117/89 40/118/95 38/130/106
f 1/56/48 68/52/45 18/51/44 17/57/47
f 103/18/75 101/90/74 81/123/82
f 82/131/6 80/16/5 83/29/26
f 89/132/24 90/121/98 91/133/25
f 28/134/38 29/135/41 31/97/80 26/96/79
f 26/96/79 24/42/35 23/92/76 28/134/38
f 72/19/28 73/136/28 3/20/28
f 10/73/60 11/24/16 64/23/21 4/74/61
f 34/109/88 36/108/87 35/137/107 33/138/108
f 13/60/20 7/59/49 8/15/15 12/139/59
f 88/140/57 90/121/98 89/132/24
f 81/99/82 62/141/109 104/63/52 97/62/51
f 31/97/80 34/109/88 33/138/108 32/94/77
f 88/140/57 86/31/4 87/30/27 90/121/98
f 40/118/95 41/142/110 39/143/111 38/130/106
f 84/144/29 83/29/26 85/32/3
f 66/87/73 53/145/112 93/146/50 78/88/13
f 26/96/79 27/95/78 25/43/36 24/42/35
f 103/18/17 81/123/100 80/16/5
f 12/72/59 71/75/62 72/19/18 13/22/20
f 65/147/113 92/148/104 93/146/50 53/145/112
f 83/29/26 84/144/29 82/131/6
f 103/18/17 92/128/104 100/91/105
f 92/128/104 103/18/17 93/61/50
f 46/111/90 23/116/76 19/103/31 47/106/85
f 67/86/72 79/89/12 6/126/56 69/33/103
f 15/54/46 5/85/43 6/68/56 7/59/49
f 10/93/60 12/139/59 8/15/15 9/14/14
f 75/71/58 88/70/57 89/149/24 54/150/23
f 90/121/98 92/128/104 91/133/25
f 57/7/7 82/6/6 84/151/29 56/152/30
f 100/82/69 98/84/71 77/101/83
f 46/111/90 49/113/92 45/124/101 44/46/39
f 102/98/81 62/141/109 81/99/82
f 91/28/25 92/148/104 65/147/113 74/25/22
f 42/47/40 43/125/102 41/142/110 40/118/95
f 105/122/99 92/128/104 90/121/98
f 34/109/88 31/97/80 29/135/41 30/110/89
