# Blender 3.6.1
# www.blender.org
mtllib table.mtl
o Cube.061
v -1.070265 0.255700 0.431395
v -1.070265 0.277867 0.431395
v -1.070265 0.255700 -0.577859
v -1.070265 0.277866 -0.577859
v 1.070264 0.255700 0.431396
v 1.070264 0.277867 0.431396
v 1.070265 0.255700 -0.577859
v 1.070265 0.277866 -0.577859
v 0.963518 -0.621551 0.353965
v 0.963518 0.261857 0.353965
v 0.963518 -0.621551 -0.560292
v 0.963518 0.261857 -0.560292
v 0.993591 -0.621551 0.353965
v 0.993591 0.261857 0.353965
v 0.993591 -0.621551 -0.560292
v 0.993591 0.261857 -0.560292
v -0.993591 -0.621551 0.353964
v -0.993591 0.261857 0.353964
v -0.993590 -0.621551 -0.560293
v -0.993590 0.261857 -0.560293
v -0.963518 -0.621551 0.353964
v -0.963517 0.261857 0.353964
v -0.963518 -0.621551 -0.560293
v -0.963517 0.261857 -0.560293
v -0.976276 0.100345 0.342545
v -0.976276 0.116880 0.342545
v -0.976275 0.100345 -0.472681
v -0.976275 0.116880 -0.472681
v 0.976275 0.100345 0.342546
v 0.976275 0.116880 0.342546
v 0.976275 0.100345 -0.472680
v 0.976275 0.116880 -0.472680
v -0.973814 -0.291255 0.335290
v -0.973814 0.259851 0.335290
v -0.973814 -0.291255 0.353964
v -0.973814 0.259851 0.353964
v 0.973814 -0.291255 0.335291
v 0.973814 0.259851 0.335291
v 0.973814 -0.291255 0.353964
v 0.973814 0.259851 0.353964
vn -1.0000 -0.0000 -0.0000
vn -0.0000 -0.0000 -1.0000
vn 1.0000 -0.0000 -0.0000
vn -0.0000 -0.0000 1.0000
vn -0.0000 -1.0000 -0.0000
vn -0.0000 1.0000 -0.0000
vt 0.001053 0.539058
vt 0.006603 0.539058
vt 0.006603 0.791732
vt 0.001053 0.791732
vt 0.516165 0.536951
vt 0.510615 0.536951
vt 0.510615 0.001053
vt 0.516165 0.001053
vt 0.014259 0.791732
vt 0.008709 0.791732
vt 0.008709 0.539058
vt 0.014259 0.539058
vt 0.518272 0.001053
vt 0.523821 0.001053
vt 0.523821 0.536951
vt 0.518272 0.536951
vt 0.253728 0.001053
vt 0.253728 0.536951
vt 0.001053 0.536951
vt 0.001053 0.001053
vt 0.508509 0.001053
vt 0.508509 0.536951
vt 0.255834 0.536951
vt 0.255834 0.001054
vt 0.477002 0.767949
vt 0.255834 0.767949
vt 0.255834 0.539058
vt 0.477002 0.539058
vt 0.496273 0.539058
vt 0.496273 0.760227
vt 0.488744 0.760227
vt 0.488744 0.539058
vt 0.237533 0.767949
vt 0.016366 0.767949
vt 0.016366 0.539058
vt 0.237533 0.539058
vt 0.505909 0.539058
vt 0.505909 0.760226
vt 0.498380 0.760226
vt 0.498380 0.539058
vt 0.247169 0.767949
vt 0.239640 0.767949
vt 0.239640 0.539058
vt 0.247169 0.539058
vt 0.255834 0.770056
vt 0.477002 0.770056
vt 0.477002 0.998947
vt 0.255834 0.998947
vt 0.813617 0.491996
vt 0.813617 0.713162
vt 0.806088 0.713162
vt 0.806088 0.491996
vt 0.237533 0.998947
vt 0.016366 0.998947
vt 0.016366 0.770056
vt 0.237533 0.770056
vt 0.515545 0.539058
vt 0.515545 0.760226
vt 0.508016 0.760226
vt 0.508016 0.539058
vt 0.479109 0.539058
vt 0.486638 0.539058
vt 0.486638 0.767949
vt 0.479109 0.767949
vt 0.519681 0.539057
vt 0.523821 0.539057
vt 0.523821 0.743154
vt 0.519681 0.743154
vt 0.948723 0.489888
vt 0.944583 0.489888
vt 0.944583 0.001053
vt 0.948723 0.001053
vt 0.253415 0.743156
vt 0.249276 0.743156
vt 0.249276 0.539058
vt 0.253415 0.539058
vt 0.938337 0.001053
vt 0.942477 0.001053
vt 0.942477 0.489889
vt 0.938337 0.489889
vt 0.732132 0.489888
vt 0.732132 0.001053
vt 0.936230 0.001053
vt 0.936230 0.489889
vt 0.730026 0.001053
vt 0.730026 0.489889
vt 0.525928 0.489889
vt 0.525928 0.001053
vt 0.820399 0.491996
vt 0.820399 0.629969
vt 0.815724 0.629969
vt 0.815724 0.491996
vt 0.663901 0.979599
vt 0.525928 0.979599
vt 0.525928 0.491996
vt 0.663901 0.491996
vt 0.820399 0.632076
vt 0.820399 0.770049
vt 0.815723 0.770049
vt 0.815723 0.632076
vt 0.666008 0.491996
vt 0.803981 0.491996
vt 0.803981 0.979599
vt 0.666008 0.979599
vt 0.950830 0.488656
vt 0.950830 0.001053
vt 0.955505 0.001053
vt 0.955505 0.488656
vt 0.957612 0.488657
vt 0.957612 0.001053
vt 0.962287 0.001053
vt 0.962287 0.488657
s 0
usemtl retro_computer_setup_Mat
f 1/1/1 2/2/1 4/3/1 3/4/1
f 3/5/2 4/6/2 8/7/2 7/8/2
f 7/9/3 8/10/3 6/11/3 5/12/3
f 5/13/4 6/14/4 2/15/4 1/16/4
f 3/17/5 7/18/5 5/19/5 1/20/5
f 8/21/6 4/22/6 2/23/6 6/24/6
f 9/25/1 10/26/1 12/27/1 11/28/1
f 11/29/2 12/30/2 16/31/2 15/32/2
f 15/33/3 16/34/3 14/35/3 13/36/3
f 13/37/4 14/38/4 10/39/4 9/40/4
f 16/41/6 12/42/6 10/43/6 14/44/6
f 17/45/1 18/46/1 20/47/1 19/48/1
f 19/49/2 20/50/2 24/51/2 23/52/2
f 23/53/3 24/54/3 22/55/3 21/56/3
f 21/57/4 22/58/4 18/59/4 17/60/4
f 24/61/6 20/62/6 18/63/6 22/64/6
f 25/65/1 26/66/1 28/67/1 27/68/1
f 27/69/2 28/70/2 32/71/2 31/72/2
f 31/73/3 32/74/3 30/75/3 29/76/3
f 29/77/4 30/78/4 26/79/4 25/80/4
f 27/81/5 31/82/5 29/83/5 25/84/5
f 32/85/6 28/86/6 26/87/6 30/88/6
f 33/89/3 34/90/3 36/91/3 35/92/3
f 35/93/2 36/94/2 40/95/2 39/96/2
f 39/97/1 40/98/1 38/99/1 37/100/1
f 37/101/4 38/102/4 34/103/4 33/104/4
f 35/105/6 39/106/6 37/107/6 33/108/6
f 40/109/5 36/110/5 34/111/5 38/112/5
