# Blender 3.6.1
# www.blender.org
mtllib table.mtl
o table_323c
v 0.537765 0.324660 0.722833
v 0.537765 0.287619 0.722833
v 0.537764 0.287619 -0.735420
v 0.537764 0.324660 -0.735420
v -0.444946 0.287619 0.722834
v -0.444946 0.324660 0.722834
v -0.444947 0.324660 -0.735419
v -0.444947 0.287619 -0.735419
v 0.483341 -0.637477 -0.682866
v -0.395933 -0.637477 -0.682865
v -0.395933 0.287619 -0.682865
v 0.483341 0.287619 -0.682866
v -0.395933 0.287619 -0.642931
v 0.483341 0.287619 -0.642932
v -0.395933 -0.637477 -0.642931
v 0.483341 -0.637477 -0.642931
v 0.483342 -0.637477 0.646287
v -0.395932 -0.637477 0.646288
v -0.395932 0.287619 0.646288
v 0.483342 0.287619 0.646287
v -0.395932 0.287619 0.686222
v 0.483342 0.287619 0.686221
v -0.395932 -0.637477 0.686222
v 0.483342 -0.637477 0.686221
v -0.315074 -0.354063 -0.642931
v -0.315073 -0.354062 0.646288
v -0.315073 0.287619 0.646287
v -0.315074 0.287619 -0.642931
v -0.290603 0.287619 0.646287
v -0.290604 0.287619 -0.642931
v -0.290603 -0.354062 0.646288
v -0.290604 -0.354063 -0.642931
v 0.483342 0.114934 0.646287
v 0.483342 0.077893 0.646287
v 0.483341 0.077893 -0.642932
v 0.483341 0.114933 -0.642932
v -0.290603 0.114934 0.646287
v -0.290604 0.114933 -0.642931
vn -0.0000 -0.0000 -1.0000
vn -0.0000 -0.0000 1.0000
vn -0.0000 1.0000 -0.0000
vn -0.0000 -1.0000 -0.0000
vn 1.0000 -0.0000 -0.0000
vn -1.0000 -0.0000 -0.0000
vt 0.895671 0.398321
vt 0.865894 0.433930
vt 0.833727 0.407031
vt 0.863503 0.371422
vt 0.794700 0.450861
vt 0.764923 0.486470
vt 0.732755 0.459571
vt 0.762532 0.423962
vt 0.832328 0.405862
vt 0.800160 0.378963
vt 0.840075 0.331229
vt 0.872243 0.358127
vt 0.881160 0.282096
vt 0.913328 0.308994
vt 0.873413 0.356728
vt 0.841245 0.329830
vt 0.922245 0.232963
vt 0.957855 0.262739
vt 0.917939 0.310473
vt 0.882330 0.280697
vt 0.963330 0.183829
vt 0.998940 0.213606
vt 0.959024 0.261340
vt 0.923415 0.231564
vt 0.029694 0.914324
vt 0.000912 0.890257
vt 0.744582 0.000912
vt 0.773364 0.024979
vt 0.059875 0.939562
vt 0.031093 0.915494
vt 0.774763 0.026149
vt 0.803545 0.050217
vt 0.122943 0.992299
vt 0.121636 0.991206
vt 0.865306 0.101861
vt 0.866613 0.102954
vt 0.125649 0.994562
vt 0.124342 0.993469
vt 0.868012 0.104124
vt 0.869319 0.105217
vt 0.090056 0.964799
vt 0.061274 0.940732
vt 0.804944 0.051386
vt 0.833726 0.075454
vt 0.120237 0.990036
vt 0.091455 0.965969
vt 0.835125 0.076624
vt 0.863907 0.100691
vt 0.128355 0.996825
vt 0.127048 0.995732
vt 0.870718 0.106387
vt 0.872025 0.107480
vt 0.131062 0.999088
vt 0.129754 0.997995
vt 0.873424 0.108650
vt 0.874731 0.109743
vt 0.402494 0.763084
vt 0.360293 0.727796
vt 0.876130 0.110913
vt 0.918331 0.146201
vt 0.446094 0.799543
vt 0.403893 0.764254
vt 0.919730 0.147371
vt 0.961931 0.182660
vt 0.879439 0.352365
vt 0.914727 0.310164
vt 0.940061 0.331349
vt 0.904773 0.373550
vt 0.763702 0.422563
vt 0.798990 0.380362
vt 0.834599 0.410138
vt 0.799311 0.452339
s 1
f 8/1/1 7/2/1 4/3/1 3/4/1
f 2/5/2 1/6/2 6/7/2 5/8/2
f 4/9/3 7/10/3 6/11/3 1/12/3
f 8/13/4 3/14/4 2/15/4 5/16/4
f 3/17/5 4/18/5 1/19/5 2/20/5
f 5/21/6 6/22/6 7/23/6 8/24/6
f 11/25/1 12/26/1 9/27/1 10/28/1
f 14/29/2 13/30/2 15/31/2 16/32/2
f 12/33/5 14/34/5 16/35/5 9/36/5
f 13/37/6 11/38/6 10/39/6 15/40/6
f 19/41/1 20/42/1 17/43/1 18/44/1
f 22/45/2 21/46/2 23/47/2 24/48/2
f 20/49/5 22/50/5 24/51/5 17/52/5
f 21/53/6 19/54/6 18/55/6 23/56/6
f 27/57/6 28/58/6 25/59/6 26/60/6
f 30/61/5 29/62/5 31/63/5 32/64/5
f 33/65/3 36/66/3 38/67/3 37/68/3
f 36/69/5 33/70/5 34/71/5 35/72/5
