# Blender 3.6.1
# www.blender.org
mtllib двери 4.mtl
o WC.007
v 90.924934 0.538364 16.278421
v 90.924934 0.520174 16.246914
v 90.924934 0.483794 16.246914
v 90.924934 0.465604 16.278421
v 90.924934 0.483794 16.309927
v 90.924934 0.520174 16.309927
v 90.963661 0.538364 16.278421
v 90.963661 0.520174 16.246914
v 90.963661 0.483794 16.246914
v 90.963661 0.465604 16.278421
v 90.963661 0.483794 16.309927
v 90.963661 0.520174 16.309927
v 90.973450 0.558202 16.278421
v 90.973450 0.530093 16.229734
v 90.973450 0.473876 16.229734
v 90.973450 0.445766 16.278421
v 90.973450 0.473876 16.327106
v 90.973450 0.530093 16.327106
v 90.983231 0.561586 16.278421
v 90.983231 0.531785 16.226805
v 90.983231 0.472184 16.226805
v 90.983231 0.442383 16.278421
v 90.983231 0.472184 16.330036
v 90.983231 0.531785 16.330036
v 90.993019 0.558202 16.278421
v 90.993019 0.530093 16.229734
v 90.993019 0.473876 16.229734
v 90.993019 0.445766 16.278421
v 90.993019 0.473876 16.327106
v 90.993019 0.530093 16.327106
v 91.002808 0.543258 16.278421
v 91.002808 0.522621 16.242678
v 91.002808 0.481348 16.242678
v 91.002808 0.460711 16.278421
v 91.002808 0.481348 16.314165
v 91.002808 0.522621 16.314165
v 90.940384 -0.563538 15.544953
v 90.940384 -0.563538 16.347578
v 90.940384 1.520178 15.544953
v 90.940384 1.520178 16.347578
v 90.895706 -0.563538 15.544953
v 90.895706 -0.563538 16.347578
v 90.895706 1.520178 15.544953
v 90.895706 1.520178 16.347578
vn -0.0000 0.5000 0.8660
vn -0.6209 0.3919 0.6788
vn -0.6209 0.7839 -0.0000
vn -0.0000 1.0000 -0.0000
vn -0.0000 -1.0000 -0.0000
vn -0.6209 -0.7839 -0.0000
vn -0.6209 -0.3919 0.6788
vn -0.0000 -0.5000 0.8660
vn -0.0000 0.5000 -0.8660
vn -0.6209 0.3919 -0.6788
vn -0.6209 -0.3919 -0.6788
vn -0.0000 -0.5000 -0.8660
vn -0.6062 0.3977 -0.6888
vn -0.6062 -0.3977 -0.6888
vn -0.6062 -0.3977 0.6888
vn -0.6062 0.3977 0.6888
vn -0.6062 -0.7953 -0.0000
vn -0.6062 0.7953 -0.0000
vn 0.5686 -0.4113 0.7124
vn 0.5686 0.4113 0.7124
vn 0.5686 -0.4113 -0.7124
vn 0.5686 -0.8226 -0.0000
vn 0.5686 0.8226 -0.0000
vn 0.5686 0.4113 -0.7124
vn 0.9299 0.1839 0.3185
vn 0.9299 0.3678 -0.0000
vn 0.9299 -0.3678 -0.0000
vn 0.9299 -0.1839 0.3185
vn 0.9299 0.1839 -0.3185
vn 0.9299 -0.1839 -0.3185
vn 1.0000 -0.0000 -0.0000
vn -1.0000 -0.0000 -0.0000
vn -0.0000 -0.0000 1.0000
vn -0.0000 -0.0000 -1.0000
vt 0.843403 0.234672
vt 0.861951 0.234672
vt 0.861951 0.252099
vt 0.843403 0.252099
vt 0.843403 0.199819
vt 0.861951 0.199819
vt 0.861951 0.217246
vt 0.843403 0.217246
vt 0.843403 0.164966
vt 0.861951 0.164966
vt 0.861951 0.182392
vt 0.843403 0.182392
vt 0.843403 0.147539
vt 0.861951 0.147539
vt 0.875263 0.114770
vt 0.865171 0.116719
vt 0.863200 0.094548
vt 0.875116 0.093227
vt 0.871776 0.052306
vt 0.861484 0.052292
vt 0.863578 0.030939
vt 0.874515 0.031818
vt 0.860919 0.073076
vt 0.870170 0.072434
vt 0.879803 0.135629
vt 0.869705 0.143783
vt 0.867971 0.002493
vt 0.879803 0.010624
vt 0.863952 0.145673
vt 0.860823 0.117092
vt 0.859240 0.030388
vt 0.861912 0.000933
vt 0.856787 0.073326
vt 0.857420 0.051996
vt 0.858889 0.094974
vt 0.853273 0.051654
vt 0.854971 0.030116
vt 0.854674 0.095326
vt 0.852567 0.073457
vt 0.857987 0.145268
vt 0.856369 0.117439
vt 0.855692 0.001625
vt 0.847434 0.029938
vt 0.845635 0.006453
vt 0.843403 0.073900
vt 0.845134 0.051515
vt 0.847968 0.118203
vt 0.847316 0.096067
vt 0.847944 0.141428
vt 0.854380 0.783490
vt 0.854380 0.803261
vt 0.837259 0.813146
vt 0.820137 0.803261
vt 0.820137 0.783490
vt 0.837259 0.773605
vt 0.385403 0.999067
vt 0.000933 0.999067
vt 0.000933 0.000933
vt 0.385403 0.000933
vt 0.387269 0.999067
vt 0.387269 0.000933
vt 0.771739 0.000933
vt 0.771739 0.999067
vt 0.841537 0.385403
vt 0.820137 0.385403
vt 0.820137 0.000933
vt 0.841537 0.000933
vt 0.795005 0.999067
vt 0.773605 0.999067
vt 0.773605 0.000933
vt 0.795005 0.000933
vt 0.841537 0.771739
vt 0.820137 0.771739
vt 0.820137 0.387269
vt 0.841537 0.387269
vt 0.796871 0.000933
vt 0.818271 0.000933
vt 0.818271 0.999067
vt 0.796871 0.999067
s 1
usemtl wall.001
f 6/1/1 12/2/2 7/3/3 1/4/4
f 4/5/5 10/6/6 11/7/7 5/8/8
f 2/9/9 8/10/10 9/11/11 3/12/12
f 5/8/8 11/7/7 12/2/2 6/1/1
f 3/12/12 9/11/11 10/6/6 4/5/5
f 1/13/4 7/14/3 8/10/10 2/9/9
f 8/15/10 14/16/13 15/17/14 9/18/11
f 11/19/7 17/20/15 18/21/16 12/22/2
f 9/18/11 15/17/14 16/23/17 10/24/6
f 7/25/3 13/26/18 14/16/13 8/15/10
f 12/22/2 18/21/16 13/27/18 7/28/3
f 10/24/6 16/23/17 17/20/15 11/19/7
f 13/26/18 19/29/4 20/30/9 14/16/13
f 18/21/16 24/31/1 19/32/4 13/27/18
f 16/23/17 22/33/5 23/34/8 17/20/15
f 14/16/13 20/30/9 21/35/12 15/17/14
f 17/20/15 23/34/8 24/31/1 18/21/16
f 15/17/14 21/35/12 22/33/5 16/23/17
f 23/34/8 29/36/19 30/37/20 24/31/1
f 21/35/12 27/38/21 28/39/22 22/33/5
f 19/29/4 25/40/23 26/41/24 20/30/9
f 24/31/1 30/37/20 25/42/23 19/32/4
f 22/33/5 28/39/22 29/36/19 23/34/8
f 20/30/9 26/41/24 27/38/21 21/35/12
f 30/37/20 36/43/25 31/44/26 25/42/23
f 28/39/22 34/45/27 35/46/28 29/36/19
f 26/41/24 32/47/29 33/48/30 27/38/21
f 29/36/19 35/46/28 36/43/25 30/37/20
f 27/38/21 33/48/30 34/45/27 28/39/22
f 25/40/23 31/49/26 32/47/29 26/41/24
f 32/50/29 31/51/26 36/52/25 35/53/28 34/54/27 33/55/30
f 39/56/31 40/57/31 38/58/31 37/59/31
f 43/60/32 41/61/32 42/62/32 44/63/32
f 39/64/4 43/65/4 44/66/4 40/67/4
f 40/68/33 44/69/33 42/70/33 38/71/33
f 38/72/5 42/73/5 41/74/5 37/75/5
f 37/76/34 41/77/34 43/78/34 39/79/34
