# Blender 3.6.1
# www.blender.org
mtllib двери(11).mtl
o Cube.034
v -55.690212 -1.000000 12.358228
v -55.690212 1.107702 12.358228
v -55.690212 -1.000000 12.290266
v -55.690212 1.107702 12.290266
v -55.690212 -0.929307 12.358228
v -55.690212 -0.929307 12.290266
v -55.690212 -0.291773 12.290266
v -55.690212 -0.231331 12.290266
v -55.690212 -0.231331 12.358228
v -55.690212 -0.291773 12.358228
v -56.499832 1.019640 12.293660
v -55.792652 1.019640 12.293660
v -55.792652 1.019640 12.354835
v -56.499832 1.019640 12.354835
v -55.690212 1.041057 12.358228
v -55.690212 1.041057 12.290266
v -55.772545 -1.000000 12.290266
v -56.519936 -1.000000 12.290266
v -56.497784 -0.905709 12.351006
v -55.794701 -0.905709 12.351006
v -55.772545 -1.000000 12.358228
v -56.519936 -1.000000 12.358228
v -56.497784 -0.905709 12.297489
v -55.794701 -0.905709 12.297489
v -55.792652 -0.209914 12.293660
v -56.499832 -0.209914 12.293660
v -55.794701 -0.315371 12.297489
v -56.497784 -0.315371 12.297489
v -55.794701 -0.315371 12.351006
v -56.497784 -0.315371 12.351006
v -56.499832 -0.209914 12.354835
v -55.792652 -0.209914 12.354835
v -56.561104 -1.000000 12.290266
v -56.561104 -1.000000 12.358228
v -56.561104 -0.929307 12.290266
v -56.561104 -0.929307 12.358228
v -56.561104 -0.261552 12.358228
v -56.561104 1.107702 12.290266
v -56.561104 1.107702 12.358228
v -56.561104 -0.261552 12.290266
v -55.772545 -0.843022 12.339607
v -56.519939 -0.843022 12.339607
v -55.772545 1.019640 12.339607
v -56.519939 1.019640 12.339607
v -55.772545 -0.843022 12.312344
v -56.519939 -0.843022 12.312344
v -55.772545 1.019640 12.312344
v -56.519939 1.019640 12.312344
v -56.519936 -0.929307 12.358228
v -55.772545 -0.929307 12.358228
v -55.772545 -0.291773 12.290266
v -56.519936 -0.291773 12.290266
v -56.519936 -0.929307 12.290266
v -55.772545 -0.929307 12.290266
v -55.772545 -0.291773 12.358228
v -56.519936 -0.291773 12.358228
v -56.519936 1.041057 12.358228
v -55.772545 1.041057 12.358228
v -56.519936 -0.231331 12.358228
v -55.772545 -0.231331 12.290266
v -55.772545 1.041057 12.290266
v -56.519936 1.041057 12.290266
v -55.772545 -0.231331 12.358228
v -56.519936 -0.231331 12.290266
v -55.710770 0.052931 12.369599
v -55.722374 0.042791 12.369599
v -55.714169 0.045761 12.369599
v -55.722374 0.107600 12.369599
v -55.710770 0.097460 12.369599
v -55.714169 0.104630 12.369599
v -55.722374 0.042791 12.358230
v -55.710770 0.052931 12.358230
v -55.714169 0.045761 12.358230
v -55.710770 0.097460 12.358230
v -55.722374 0.107600 12.358230
v -55.714169 0.104630 12.358230
v -55.749016 0.042791 12.369599
v -55.760624 0.052931 12.369599
v -55.757225 0.045761 12.369599
v -55.760624 0.097460 12.369599
v -55.749016 0.107600 12.369599
v -55.757225 0.104630 12.369599
v -55.760624 0.052931 12.358230
v -55.749016 0.042791 12.358230
v -55.757225 0.045761 12.358230
v -55.749016 0.107600 12.358230
v -55.760624 0.097460 12.358230
v -55.757225 0.104630 12.358230
v -55.723644 0.065119 12.369601
v -55.723644 0.085531 12.369601
v -55.748466 0.065119 12.388591
v -55.748466 0.085531 12.388591
v -55.748466 0.065119 12.369601
v -55.748466 0.085531 12.369601
v -55.844532 0.085531 12.388591
v -55.844532 0.065119 12.388591
v -55.844532 0.085531 12.402716
v -55.844532 0.065119 12.402716
v -55.744740 0.065119 12.402716
v -55.723644 0.065119 12.384282
v -55.729824 0.065119 12.397316
v -55.723644 0.085531 12.384282
v -55.744740 0.085531 12.402716
v -55.729824 0.085531 12.397316
v -55.710770 0.052931 12.279279
v -55.722374 0.042791 12.279279
v -55.714169 0.045761 12.279279
v -55.722374 0.107600 12.279279
v -55.710770 0.097460 12.279279
v -55.714169 0.104630 12.279279
v -55.722374 0.042791 12.290648
v -55.710770 0.052931 12.290648
v -55.714169 0.045761 12.290648
v -55.710770 0.097460 12.290648
v -55.722374 0.107600 12.290648
v -55.714169 0.104630 12.290648
v -55.749016 0.042791 12.279279
v -55.760624 0.052931 12.279279
v -55.757225 0.045761 12.279279
v -55.760624 0.097460 12.279279
v -55.749016 0.107600 12.279279
v -55.757225 0.104630 12.279279
v -55.760624 0.052931 12.290648
v -55.749016 0.042791 12.290648
v -55.757225 0.045761 12.290648
v -55.749016 0.107600 12.290648
v -55.760624 0.097460 12.290648
v -55.757225 0.104630 12.290648
v -55.723644 0.065119 12.279277
v -55.723644 0.085531 12.279277
v -55.748466 0.065119 12.260287
v -55.748466 0.085531 12.260287
v -55.748466 0.065119 12.279277
v -55.748466 0.085531 12.279277
v -55.844532 0.085531 12.260287
v -55.844532 0.065119 12.260287
v -55.844532 0.085531 12.246162
v -55.844532 0.065119 12.246162
v -55.744740 0.065119 12.246162
v -55.723644 0.065119 12.264596
v -55.729824 0.065119 12.251562
v -55.723644 0.085531 12.264596
v -55.744740 0.085531 12.246162
v -55.729824 0.085531 12.251562
vn -0.0000 -0.0000 -1.0000
vn -0.0000 -0.0000 1.0000
vn 0.0385 0.0392 0.9985
vn 0.0385 -0.0392 0.9985
vn -0.0000 -1.0000 -0.0000
vn 1.0000 -0.0000 -0.0000
vn -0.0202 -0.0205 0.9996
vn -0.0202 0.0205 -0.9996
vn -0.0202 0.0205 0.9996
vn -0.0385 -0.0392 0.9985
vn -0.0385 0.0392 0.9985
vn -0.0202 -0.0205 -0.9996
vn 0.1200 0.1104 0.9866
vn -0.1200 0.1104 0.9866
vn -0.1200 -0.1104 0.9866
vn 0.1200 -0.1104 0.9866
vn 0.0202 0.0205 0.9996
vn 0.0202 0.0205 -0.9996
vn 0.0202 -0.0205 0.9996
vn -0.0000 1.0000 -0.0000
vn 0.0202 -0.0205 -0.9996
vn -1.0000 -0.0000 -0.0000
vn 0.1607 -0.1478 -0.9759
vn 0.1527 -0.1553 -0.9760
vn -0.1527 -0.1553 -0.9760
vn -0.1607 -0.1478 -0.9759
vn 0.1607 0.1478 -0.9759
vn 0.1527 0.1553 -0.9760
vn -0.1607 0.1478 -0.9759
vn -0.1527 0.1553 -0.9760
vn -0.0849 -0.0777 0.9934
vn 0.0849 -0.0777 0.9934
vn 0.0849 0.0777 0.9934
vn -0.0849 -0.0777 -0.9934
vn -0.0849 0.0777 -0.9934
vn 0.0849 -0.0777 -0.9934
vn -0.0849 0.0777 0.9934
vn 0.0849 0.0777 -0.9934
vn -0.1728 0.9850 -0.0000
vn 0.1728 0.9850 -0.0000
vn 0.9756 -0.2195 -0.0000
vn 0.9756 0.2195 -0.0000
vn -0.9756 -0.2195 -0.0000
vn -0.9756 0.2195 -0.0000
vn 0.1728 -0.9850 -0.0000
vn 0.6726 -0.7400 -0.0000
vn 0.6726 0.7400 -0.0000
vn -0.1728 -0.9850 -0.0000
vn -0.6726 -0.7400 -0.0000
vn -0.6726 0.7400 -0.0000
vn 0.9756 -0.0000 0.2195
vn 0.1728 -0.0000 0.9850
vn 0.6726 -0.0000 0.7400
vn 0.9756 -0.0000 -0.2195
vn 0.1728 -0.0000 -0.9850
vn 0.6726 -0.0000 -0.7400
vt 0.002650 0.026497
vt 0.031278 0.026494
vt 0.031373 0.248352
vt 0.002917 0.248359
vt 0.310660 0.026578
vt 0.324896 0.026582
vt 0.325024 0.248209
vt 0.310756 0.258688
vt 0.065521 0.581827
vt 0.041952 0.581827
vt 0.041952 0.553274
vt 0.065521 0.553274
vt 0.221480 0.359055
vt 0.221480 0.335943
vt 0.245049 0.335943
vt 0.245049 0.359055
vt 0.613060 0.710738
vt 0.613063 0.733836
vt 0.584515 0.710715
vt 0.148096 0.282107
vt 0.171665 0.282107
vt 0.171665 0.503202
vt 0.148096 0.503202
vt 0.002915 0.269229
vt 0.031389 0.269232
vt 0.613267 0.248212
vt 0.613277 0.269147
vt 0.584712 0.269161
vt 0.584678 0.248195
vt 0.259469 0.335487
vt 0.280430 0.335487
vt 0.280430 0.359056
vt 0.259469 0.359056
vt 0.335487 0.326677
vt 0.359056 0.326677
vt 0.359056 0.351193
vt 0.335487 0.351193
vt 0.310650 0.002085
vt 0.324913 0.002080
vt 0.584411 0.026723
vt 0.612820 0.026653
vt 0.584450 0.002341
vt 0.612797 0.002337
vt 0.031388 0.710703
vt 0.002801 0.733836
vt 0.002808 0.710712
vt 0.332953 0.035167
vt 0.576320 0.035244
vt 0.576619 0.239614
vt 0.333126 0.239679
vt 0.325001 0.269137
vt 0.291067 0.269162
vt 0.291043 0.248192
vt 0.324941 0.710727
vt 0.310657 0.733836
vt 0.039520 0.239719
vt 0.039339 0.035092
vt 0.282745 0.035441
vt 0.283026 0.239710
vt 0.065521 0.294082
vt 0.041952 0.294082
vt 0.094350 0.281116
vt 0.094350 0.583138
vt 0.070782 0.583138
vt 0.070782 0.281116
vt 0.290835 0.026930
vt 0.031304 0.001930
vt 0.290895 0.002556
vt 0.290986 0.710725
vt 0.305263 0.733836
vt 0.002668 0.001909
vt 0.933020 0.001663
vt 0.933020 0.442923
vt 0.909451 0.442923
vt 0.909451 0.001663
vt 0.305328 0.258681
vt 0.119248 0.526789
vt 0.098033 0.526789
vt 0.098033 0.281542
vt 0.119248 0.281542
vt 0.931710 0.875362
vt 0.910495 0.875362
vt 0.910495 0.448956
vt 0.931710 0.448956
vt 0.041952 0.279805
vt 0.065521 0.279805
vt 0.305024 0.002569
vt 0.305024 0.026909
vt 0.618538 0.732526
vt 0.618538 0.257673
vt 0.642107 0.257673
vt 0.642107 0.732526
vt 0.618538 0.026098
vt 0.642107 0.026098
vt 0.642107 0.001582
vt 0.618538 0.001582
vt 0.002694 0.739349
vt 0.648659 0.739348
vt 0.648659 0.998541
vt 0.002694 0.998541
vt 0.646309 0.002694
vt 0.905501 0.002694
vt 0.905501 0.648659
vt 0.646309 0.648659
vt 0.577449 0.703183
vt 0.332023 0.703207
vt 0.332071 0.276673
vt 0.038468 0.703184
vt 0.038459 0.276764
vt 0.283918 0.703191
vt 0.577626 0.276682
vt 0.283983 0.276686
vt 0.935393 0.447646
vt 0.956608 0.447646
vt 0.956608 0.874051
vt 0.935393 0.874051
vt 0.122931 0.281542
vt 0.144146 0.281542
vt 0.144146 0.526789
vt 0.122931 0.526789
vt 0.175398 0.360273
vt 0.175398 0.351033
vt 0.176428 0.348187
vt 0.178915 0.347008
vt 0.194357 0.347008
vt 0.196844 0.348187
vt 0.197874 0.351033
vt 0.197874 0.360273
vt 0.196844 0.363118
vt 0.194357 0.364297
vt 0.178915 0.364297
vt 0.176428 0.363118
vt 0.240260 0.281729
vt 0.240260 0.285672
vt 0.231020 0.285672
vt 0.231020 0.281729
vt 0.249263 0.306639
vt 0.249263 0.302696
vt 0.264705 0.302696
vt 0.264705 0.306639
vt 0.261481 0.281729
vt 0.261481 0.285672
vt 0.246038 0.285672
vt 0.246038 0.281729
vt 0.220139 0.306639
vt 0.220139 0.303612
vt 0.224082 0.303612
vt 0.224082 0.306639
vt 0.223951 0.318421
vt 0.226703 0.318421
vt 0.226703 0.322364
vt 0.223951 0.322364
vt 0.214909 0.303612
vt 0.214909 0.306639
vt 0.210966 0.306639
vt 0.210966 0.303612
vt 0.234565 0.322364
vt 0.231814 0.322364
vt 0.231814 0.318421
vt 0.234565 0.318421
vt 0.267259 0.285672
vt 0.264232 0.285672
vt 0.264232 0.281729
vt 0.267259 0.281729
vt 0.243287 0.281729
vt 0.243287 0.285672
vt 0.276499 0.281729
vt 0.276499 0.285672
vt 0.216220 0.343331
vt 0.209634 0.343330
vt 0.209634 0.336252
vt 0.216220 0.336252
vt 0.262084 0.321363
vt 0.262084 0.326455
vt 0.253476 0.327949
vt 0.253476 0.321363
vt 0.245805 0.305638
vt 0.245805 0.312224
vt 0.237196 0.305638
vt 0.254768 0.332847
vt 0.220161 0.332847
vt 0.220161 0.327949
vt 0.279120 0.312224
vt 0.279120 0.317122
vt 0.244512 0.317122
vt 0.176319 0.343330
vt 0.176319 0.336252
vt 0.270290 0.302181
vt 0.275189 0.302181
vt 0.275189 0.309260
vt 0.270290 0.309260
vt 0.237196 0.310730
vt 0.226703 0.288293
vt 0.221612 0.288293
vt 0.221612 0.281214
vt 0.226703 0.281214
vt 0.259941 0.330975
vt 0.239339 0.315250
vt 0.211108 0.281214
vt 0.216609 0.281214
vt 0.216609 0.288293
vt 0.211108 0.288293
vt 0.176500 0.288293
vt 0.176500 0.281214
vt 0.360273 0.280232
vt 0.363118 0.281262
vt 0.364297 0.283749
vt 0.364297 0.299191
vt 0.363118 0.301677
vt 0.360273 0.302707
vt 0.351033 0.302707
vt 0.348187 0.301677
vt 0.347008 0.299191
vt 0.347008 0.283749
vt 0.348187 0.281262
vt 0.351033 0.280232
vt 0.185222 0.298776
vt 0.175982 0.298776
vt 0.175982 0.294833
vt 0.185222 0.294833
vt 0.179528 0.304301
vt 0.179528 0.319743
vt 0.175585 0.319743
vt 0.175585 0.304301
vt 0.206443 0.298776
vt 0.191001 0.298776
vt 0.191001 0.294833
vt 0.206443 0.294833
vt 0.186080 0.307937
vt 0.186080 0.311880
vt 0.183053 0.311880
vt 0.183053 0.307937
vt 0.200363 0.322364
vt 0.200363 0.318421
vt 0.203115 0.318421
vt 0.203115 0.322364
vt 0.195253 0.318421
vt 0.195253 0.322364
vt 0.192226 0.322364
vt 0.192226 0.318421
vt 0.269947 0.321042
vt 0.269947 0.324985
vt 0.267195 0.324985
vt 0.267195 0.321042
vt 0.212221 0.294833
vt 0.212221 0.298776
vt 0.209195 0.298776
vt 0.209195 0.294833
vt 0.188249 0.294833
vt 0.188249 0.298776
vt 0.221461 0.298776
vt 0.221461 0.294833
vt 0.343330 0.321053
vt 0.336252 0.321053
vt 0.336252 0.314468
vt 0.343330 0.314468
vt 0.190021 0.303017
vt 0.198630 0.309603
vt 0.190021 0.308109
vt 0.198630 0.303017
vt 0.208921 0.318742
vt 0.217530 0.318742
vt 0.208921 0.325328
vt 0.197337 0.314501
vt 0.231945 0.309603
vt 0.231945 0.314501
vt 0.210214 0.330226
vt 0.175606 0.330226
vt 0.175606 0.325328
vt 0.336252 0.281153
vt 0.343330 0.281153
vt 0.183802 0.322364
vt 0.183802 0.315285
vt 0.188701 0.315285
vt 0.188701 0.322364
vt 0.217530 0.323834
vt 0.230227 0.298776
vt 0.230227 0.291697
vt 0.235319 0.291697
vt 0.235319 0.298776
vt 0.192164 0.312629
vt 0.215387 0.328354
vt 0.245823 0.291697
vt 0.245823 0.298776
vt 0.240321 0.298776
vt 0.240321 0.291697
vt 0.280430 0.291697
vt 0.280430 0.298776
s 1
f 6/1/1 54/2/1 51/3/1 7/4/1
f 36/5/2 49/6/3 56/7/4 37/8/2
f 3/9/5 1/10/5 21/11/5 17/12/5
f 16/13/6 4/14/6 2/15/6 15/16/6
f 15/17/2 2/18/2 58/19/7
f 5/20/6 6/21/6 7/22/6 10/23/6
f 8/24/1 7/4/1 51/3/1 60/25/8
f 10/26/2 9/27/2 63/28/9 55/29/10
f 9/30/6 10/31/6 7/32/6 8/33/6
f 1/34/6 3/35/6 6/36/6 5/37/6
f 34/38/2 22/39/2 49/6/3 36/5/2
f 50/40/11 5/41/2 10/26/2 55/29/10
f 21/42/2 1/43/2 5/41/2 50/40/11
f 61/44/12 4/45/1 16/46/1
f 50/40/11 49/6/3 22/39/2 21/42/2
f 19/47/13 20/48/14 29/49/15 30/50/16
f 56/7/4 55/29/10 63/28/9 59/51/17
f 64/52/18 60/25/8 51/3/1 52/53/1
f 57/54/19 58/19/7 2/18/2 39/55/2
f 27/56/1 24/57/1 23/58/1 28/59/1
f 18/60/5 17/12/5 21/11/5 22/61/5
f 4/62/20 38/63/20 39/64/20 2/65/20
f 53/66/1 54/2/1 17/67/1 18/68/1
f 61/44/12 62/69/21 38/70/1 4/45/1
f 3/71/1 17/67/1 54/2/1 6/1/1
f 60/25/8 61/44/12 16/46/1 8/24/1
f 9/27/2 15/17/2 58/19/7 63/28/9
f 8/72/6 16/73/6 15/74/6 9/75/6
f 40/76/1 38/70/1 62/69/21 64/52/18
f 26/77/20 31/78/20 32/79/20 25/80/20
f 11/81/6 14/82/6 31/83/6 26/84/6
f 59/51/17 57/54/19 39/55/2 37/8/2
f 18/60/5 22/61/5 34/85/5 33/86/5
f 18/68/1 33/87/1 35/88/1 53/66/1
f 56/7/4 59/51/17 37/8/2
f 53/66/1 35/88/1 40/76/1 52/53/1
f 64/52/18 52/53/1 40/76/1
f 38/89/22 40/90/22 37/91/22 39/92/22
f 35/93/22 36/94/22 37/91/22 40/90/22
f 34/95/22 36/94/22 35/93/22 33/96/22
f 41/97/2 43/98/2 44/99/2 42/100/2
f 45/101/1 46/102/1 48/103/1 47/104/1
f 19/47/13 49/6/3 50/40/11 20/48/14
f 28/59/23 52/53/24 51/3/25 27/56/26
f 23/58/27 53/66/28 52/53/24 28/59/23
f 24/57/29 54/2/30 53/66/28 23/58/27
f 27/56/26 51/3/25 54/2/30 24/57/29
f 29/49/15 55/29/10 56/7/4 30/50/16
f 20/48/14 50/40/11 55/29/10 29/49/15
f 30/50/16 56/7/4 49/6/3 19/47/13
f 13/105/31 58/19/7 57/54/19 14/106/32
f 14/106/32 57/54/19 59/51/17 31/107/33
f 12/108/34 61/44/12 60/25/8 25/109/35
f 11/110/36 62/69/21 61/44/12 12/108/34
f 31/107/33 59/51/17 63/28/9 32/111/37
f 25/109/35 60/25/8 64/52/18 26/112/38
f 32/111/37 63/28/9 58/19/7 13/105/31
f 26/112/38 64/52/18 62/69/21 11/110/36
f 25/113/22 32/114/22 13/115/22 12/116/22
f 12/117/5 13/118/5 14/119/5 11/120/5
f 77/121/2 66/122/2 67/123/2 65/124/2 69/125/2 70/126/2 68/127/2 81/128/2 82/129/2 80/130/2 78/131/2 79/132/2
f 86/133/39 81/134/39 68/135/40 75/136/40
f 65/137/41 72/138/41 74/139/42 69/140/42
f 83/141/43 78/142/43 80/143/44 87/144/44
f 71/145/45 73/146/46 67/147/46 66/148/45
f 73/149/46 72/150/41 65/151/41 67/152/46
f 68/153/40 70/154/47 76/155/47 75/156/40
f 70/157/47 69/158/42 74/159/42 76/160/47
f 77/161/48 79/162/49 85/163/49 84/164/48
f 79/162/49 78/142/43 83/141/43 85/163/49
f 86/133/39 88/165/50 82/166/50 81/134/39
f 88/165/50 87/144/44 80/143/44 82/166/50
f 71/167/45 66/168/45 77/161/48 84/164/48
f 93/169/22 91/170/22 92/171/22 94/172/22
f 89/173/5 100/174/5 91/175/5
f 89/173/5 91/175/5 93/176/5
f 94/177/20 92/178/20 90/179/20
f 99/180/5 98/181/5 96/182/5 91/175/5
f 92/178/20 95/183/20 97/184/20 103/185/20
f 91/170/1 96/186/1 95/187/1 92/171/1
f 96/188/22 98/189/22 97/190/22 95/191/22
f 92/178/20 102/192/20 90/179/20
f 90/193/6 102/194/51 100/195/51 89/196/6
f 99/180/5 91/175/5 101/197/5
f 101/197/5 91/175/5 100/174/5
f 102/192/20 92/178/20 104/198/20
f 104/198/20 92/178/20 103/185/20
f 99/199/52 101/200/53 104/201/53 103/202/52
f 101/200/53 100/195/51 102/194/51 104/201/53
f 103/202/52 97/203/2 98/204/2 99/199/52
f 117/205/1 119/206/1 118/207/1 120/208/1 122/209/1 121/210/1 108/211/1 110/212/1 109/213/1 105/214/1 107/215/1 106/216/1
f 126/217/39 115/218/40 108/219/40 121/220/39
f 105/221/41 109/222/42 114/223/42 112/224/41
f 123/225/43 127/226/44 120/227/44 118/228/43
f 111/229/45 106/230/45 107/231/46 113/232/46
f 113/233/46 107/234/46 105/235/41 112/236/41
f 108/237/40 115/238/40 116/239/47 110/240/47
f 110/241/47 116/242/47 114/243/42 109/244/42
f 117/245/48 124/246/48 125/247/49 119/248/49
f 119/248/49 125/247/49 123/225/43 118/228/43
f 126/217/39 121/220/39 122/249/50 128/250/50
f 128/250/50 122/249/50 120/227/44 127/226/44
f 111/251/45 124/246/48 117/245/48 106/252/45
f 133/253/22 134/254/22 132/255/22 131/256/22
f 129/257/5 131/258/5 140/259/5
f 129/257/5 133/260/5 131/258/5
f 134/261/20 130/262/20 132/263/20
f 139/264/5 131/258/5 136/265/5 138/266/5
f 132/263/20 143/267/20 137/268/20 135/269/20
f 131/256/2 132/255/2 135/270/2 136/271/2
f 136/272/22 135/273/22 137/274/22 138/275/22
f 132/263/20 130/262/20 142/276/20
f 130/277/6 129/278/6 140/279/54 142/280/54
f 139/264/5 141/281/5 131/258/5
f 141/281/5 140/259/5 131/258/5
f 142/276/20 144/282/20 132/263/20
f 144/282/20 143/267/20 132/263/20
f 139/283/55 143/284/55 144/285/56 141/286/56
f 141/286/56 144/285/56 142/280/54 140/279/54
f 143/284/55 139/283/55 138/287/1 137/288/1
