# Blender 3.6.1
# www.blender.org
mtllib двери(5).mtl
o Plane.006
v 86.614525 -0.998531 14.025744
v 86.614525 1.291698 14.025744
v 87.593941 -0.998531 13.905333
v 87.593941 1.291698 14.025744
v 86.614525 1.291698 13.905333
v 86.614525 -0.998531 13.905333
v 87.593941 -0.998531 14.025744
v 87.593941 1.291698 13.905333
v 87.461273 -0.093851 13.905332
v 87.429764 -0.112041 13.905332
v 87.429764 -0.148421 13.905332
v 87.461273 -0.166611 13.905332
v 87.492775 -0.148421 13.905332
v 87.492775 -0.112041 13.905332
v 87.461273 -0.093851 13.866610
v 87.429764 -0.112041 13.866610
v 87.429764 -0.148421 13.866610
v 87.461273 -0.166611 13.866610
v 87.492775 -0.148421 13.866610
v 87.492775 -0.112041 13.866610
v 87.461273 -0.074013 13.856822
v 87.412590 -0.102122 13.856822
v 87.412590 -0.158340 13.856822
v 87.461273 -0.186449 13.856822
v 87.509956 -0.158340 13.856822
v 87.509956 -0.102122 13.856822
v 87.461273 -0.070630 13.847035
v 87.409653 -0.100431 13.847035
v 87.409653 -0.160032 13.847035
v 87.461273 -0.189832 13.847035
v 87.512886 -0.160032 13.847035
v 87.512886 -0.100431 13.847035
v 87.461273 -0.074013 13.837249
v 87.412590 -0.102122 13.837249
v 87.412590 -0.158340 13.837249
v 87.461273 -0.186449 13.837249
v 87.509956 -0.158340 13.837249
v 87.509956 -0.102122 13.837249
v 87.461273 -0.088958 13.827461
v 87.425529 -0.109595 13.827461
v 87.425529 -0.150868 13.827461
v 87.461273 -0.171504 13.827461
v 87.497017 -0.150868 13.827461
v 87.497017 -0.109595 13.827461
vn -1.0000 -0.0000 -0.0000
vn -0.0000 -1.0000 -0.0000
vn -0.0000 1.0000 -0.0000
vn -0.0000 -0.0000 -1.0000
vn -0.0000 -0.0000 1.0000
vn 0.8660 0.5000 -0.0000
vn 0.6788 0.3919 0.6209
vn -0.0000 0.7839 0.6209
vn -0.0000 -0.7839 0.6209
vn 0.6788 -0.3919 0.6209
vn 0.8660 -0.5000 -0.0000
vn -0.8660 0.5000 -0.0000
vn -0.6788 0.3919 0.6209
vn -0.6788 -0.3919 0.6209
vn -0.8660 -0.5000 -0.0000
vn -0.6888 0.3977 0.6062
vn -0.6888 -0.3977 0.6062
vn 0.6888 -0.3977 0.6062
vn 0.6888 0.3977 0.6062
vn -0.0000 -0.7953 0.6062
vn -0.0000 0.7953 0.6062
vn 0.7124 -0.4113 -0.5686
vn 0.7124 0.4113 -0.5686
vn -0.7124 -0.4113 -0.5686
vn -0.0000 -0.8226 -0.5686
vn -0.0000 0.8226 -0.5686
vn -0.7124 0.4113 -0.5686
vn 0.3185 0.1839 -0.9299
vn -0.0000 0.3678 -0.9299
vn -0.0000 -0.3678 -0.9299
vn 0.3185 -0.1839 -0.9299
vn -0.3185 0.1839 -0.9299
vn -0.3185 -0.1839 -0.9299
vt 0.937871 0.001067
vt 0.937871 0.969779
vt 0.886940 0.969779
vt 0.886940 0.001067
vt 0.940006 0.831740
vt 0.940006 0.417471
vt 0.990937 0.417471
vt 0.990937 0.831740
vt 0.940006 0.415337
vt 0.940006 0.001067
vt 0.990937 0.001067
vt 0.990937 0.415337
vt 0.417471 0.969779
vt 0.417471 0.001067
vt 0.831740 0.001067
vt 0.831740 0.969779
vt 0.415337 0.969779
vt 0.001067 0.969779
vt 0.001067 0.001067
vt 0.415336 0.001067
vt 0.833875 0.969778
vt 0.833875 0.001067
vt 0.884806 0.001067
vt 0.884806 0.969778
vt 0.987860 0.849262
vt 0.971482 0.849262
vt 0.971482 0.833875
vt 0.987860 0.833875
vt 0.987860 0.880038
vt 0.971482 0.880038
vt 0.971482 0.864650
vt 0.987860 0.864650
vt 0.987860 0.910814
vt 0.971482 0.910814
vt 0.971482 0.895426
vt 0.987860 0.895426
vt 0.987860 0.926202
vt 0.971482 0.926202
vt 0.966022 0.934806
vt 0.957084 0.936184
vt 0.956685 0.916567
vt 0.966519 0.915930
vt 0.965766 0.875868
vt 0.956336 0.875430
vt 0.956987 0.857431
vt 0.964725 0.858306
vt 0.956596 0.895848
vt 0.968051 0.895723
vt 0.969347 0.953504
vt 0.960092 0.960410
vt 0.960215 0.835157
vt 0.969347 0.841953
vt 0.954900 0.961883
vt 0.953144 0.936368
vt 0.953446 0.857082
vt 0.955428 0.833875
vt 0.952556 0.895934
vt 0.952670 0.875414
vt 0.952823 0.916645
vt 0.948940 0.875249
vt 0.949906 0.856838
vt 0.948890 0.916698
vt 0.948517 0.895915
vt 0.949613 0.961302
vt 0.949256 0.936510
vt 0.950577 0.834426
vt 0.943690 0.856683
vt 0.942589 0.838058
vt 0.940006 0.896025
vt 0.941661 0.875237
vt 0.941708 0.936829
vt 0.942159 0.916926
vt 0.940812 0.957520
vt 0.955125 0.998933
vt 0.940006 0.990204
vt 0.940006 0.972746
vt 0.955125 0.964018
vt 0.970243 0.972746
vt 0.970243 0.990204
s 1
usemtl wall.001
f 14/25/6 20/26/7 15/27/8 9/28/3
f 12/29/2 18/30/9 19/31/10 13/32/11
f 10/33/12 16/34/13 17/35/14 11/36/15
f 13/32/11 19/31/10 20/26/7 14/25/6
f 11/36/15 17/35/14 18/30/9 12/29/2
f 9/37/3 15/38/8 16/34/13 10/33/12
f 16/39/13 22/40/16 23/41/17 17/42/14
f 19/43/10 25/44/18 26/45/19 20/46/7
f 17/42/14 23/41/17 24/47/20 18/48/9
f 15/49/8 21/50/21 22/40/16 16/39/13
f 20/46/7 26/45/19 21/51/21 15/52/8
f 18/48/9 24/47/20 25/44/18 19/43/10
f 21/50/21 27/53/3 28/54/12 22/40/16
f 26/45/19 32/55/6 27/56/3 21/51/21
f 24/47/20 30/57/2 31/58/11 25/44/18
f 22/40/16 28/54/12 29/59/15 23/41/17
f 25/44/18 31/58/11 32/55/6 26/45/19
f 23/41/17 29/59/15 30/57/2 24/47/20
f 31/58/11 37/60/22 38/61/23 32/55/6
f 29/59/15 35/62/24 36/63/25 30/57/2
f 27/53/3 33/64/26 34/65/27 28/54/12
f 32/55/6 38/61/23 33/66/26 27/56/3
f 30/57/2 36/63/25 37/60/22 31/58/11
f 28/54/12 34/65/27 35/62/24 29/59/15
f 38/61/23 44/67/28 39/68/29 33/66/26
f 36/63/25 42/69/30 43/70/31 37/60/22
f 34/65/27 40/71/32 41/72/33 35/62/24
f 37/60/22 43/70/31 44/67/28 38/61/23
f 35/62/24 41/72/33 42/69/30 36/63/25
f 33/64/26 39/73/29 40/71/32 34/65/27
f 40/74/32 39/75/29 44/76/28 43/77/31 42/78/30 41/79/33
usemtl retro_computer_setup_Mat
f 1/1/1 2/2/1 5/3/1 6/4/1
f 7/5/2 1/6/2 6/7/2 3/8/2
f 2/9/3 4/10/3 8/11/3 5/12/3
f 6/13/4 5/14/4 8/15/4 3/16/4
f 4/17/5 2/18/5 1/19/5 7/20/5
f 8/21/1 3/22/1 7/23/1 4/24/1
