# Blender 3.6.1
# www.blender.org
mtllib keyboard.mtl
o Cube.027
v 0.107178 0.013754 0.285526
v 0.107178 -0.013754 0.285526
v 0.107150 0.013754 -0.285536
v 0.107150 -0.013754 -0.285536
v -0.107150 0.013754 0.285536
v -0.107150 -0.013754 0.285536
v -0.107178 0.013754 -0.285526
v -0.107178 -0.013754 -0.285526
vn 1.0000 -0.0000 -0.0000
vn -0.0000 -0.0000 -1.0000
vn -1.0000 -0.0000 -0.0000
vn -0.0000 -0.0000 1.0000
vn -0.0000 1.0000 -0.0000
vt 0.707335 0.000594
vt 0.707335 0.465962
vt 0.416452 0.465962
vt 0.416452 0.000594
vt 0.999406 0.000594
vt 0.999406 0.453340
vt 0.708523 0.453340
vt 0.708523 0.000594
vt 0.707335 0.467150
vt 0.707335 0.932518
vt 0.416452 0.932518
vt 0.416452 0.467150
vt 0.708523 0.907274
vt 0.708523 0.454528
vt 0.999406 0.454528
vt 0.999406 0.907274
vt 0.000594 0.647698
vt 0.000594 0.182330
vt 0.415264 0.000594
vt 0.415264 0.465962
s 1
f 1/1/1 2/4/1 4/3/1 3/2/1
f 3/5/2 4/8/2 8/7/2 7/6/2
f 7/9/3 8/12/3 6/11/3 5/10/3
f 5/13/4 6/16/4 2/15/4 1/14/4
f 3/17/5 7/20/5 5/19/5 1/18/5
