# Blender 3.6.1
# www.blender.org
mtllib monitor.mtl
o Cube.062
v 0.189628 -0.011422 -0.001311
v 0.189628 0.239789 -0.044520
v 0.177055 0.019432 0.015725
v 0.177055 0.231131 -0.020688
v -0.189631 -0.011422 -0.001311
v -0.189630 0.239789 -0.044520
v -0.177057 0.019432 0.015725
v -0.177057 0.231131 -0.020688
v -0.000002 -0.070832 0.064840
v -0.022217 -0.057028 0.060421
v 0.022215 -0.070832 0.060421
v -0.041050 -0.057028 0.047837
v 0.041048 -0.070832 0.047837
v -0.053635 -0.057028 0.029003
v 0.053633 -0.070832 0.029003
v -0.058054 -0.057028 0.006787
v 0.058051 -0.070832 0.006787
v -0.053635 -0.057028 -0.015429
v 0.053633 -0.070832 -0.015429
v -0.041050 -0.057028 -0.034262
v 0.041048 -0.070832 -0.034262
v -0.022217 -0.057028 -0.046846
v 0.022215 -0.070832 -0.046846
v -0.000002 -0.057028 -0.051265
v -0.000002 -0.070832 -0.051265
v 0.022215 -0.057028 -0.046846
v -0.022217 -0.070832 -0.046846
v 0.041048 -0.057028 -0.034262
v -0.041050 -0.070832 -0.034262
v 0.053633 -0.057028 -0.015429
v -0.053635 -0.070832 -0.015429
v 0.058051 -0.057028 0.006787
v -0.058054 -0.070832 0.006787
v 0.053633 -0.057028 0.029003
v -0.053635 -0.070832 0.029003
v 0.041048 -0.057028 0.047837
v -0.041050 -0.070832 0.047837
v 0.022215 -0.057028 0.060421
v -0.022217 -0.070832 0.060421
v -0.000002 -0.057028 0.064840
v 0.018707 -0.060710 -0.023075
v 0.018707 0.124328 -0.023075
v 0.018707 -0.060710 -0.001055
v 0.018707 0.055020 -0.001055
v -0.018709 -0.060710 -0.023075
v -0.018709 0.124328 -0.023075
v -0.018709 -0.060710 -0.001055
v -0.018709 0.055020 -0.001055
v 0.189628 0.243522 -0.022819
v 0.189628 -0.007689 0.020390
v -0.189631 -0.007689 0.020390
v -0.189630 0.243522 -0.022819
v 0.177055 0.230944 -0.021772
v 0.177055 0.019245 0.014641
v -0.177057 0.019245 0.014641
v -0.177057 0.230944 -0.021772
vn 1.0000 -0.0000 -0.0000
vn -0.0000 -0.9855 0.1695
vn -1.0000 -0.0000 -0.0000
vn -0.0000 -0.1695 -0.9855
vn -0.0000 0.9855 -0.1695
vn -0.9808 -0.0000 0.1951
vn 0.1951 -0.0000 0.9808
vn 0.9808 -0.0000 -0.1951
vn -0.5556 -0.0000 -0.8315
vn -0.8315 -0.0000 0.5556
vn 0.5556 -0.0000 0.8315
vn 0.8315 -0.0000 -0.5556
vn -0.8315 -0.0000 -0.5556
vn -0.5556 -0.0000 0.8315
vn 0.8315 -0.0000 0.5556
vn 0.5556 -0.0000 -0.8315
vn -0.9808 -0.0000 -0.1951
vn -0.1951 -0.0000 0.9808
vn 0.9808 -0.0000 0.1951
vn -0.1951 -0.0000 -0.9808
vn 0.1951 -0.0000 -0.9808
vn -0.0000 -1.0000 -0.0000
vn -0.0000 -0.0000 1.0000
vn -0.0000 -0.0000 -1.0000
vn -0.0000 0.1695 0.9855
vt 0.800188 0.349530
vt 0.800188 0.695415
vt 0.770309 0.695415
vt 0.770309 0.349530
vt 0.763956 0.001216
vt 0.763956 0.481710
vt 0.762463 0.481710
vt 0.762463 0.001216
vt 0.800189 0.001215
vt 0.800188 0.347100
vt 0.770310 0.347100
vt 0.770309 0.001215
vt 0.349529 0.001216
vt 0.695413 0.001216
vt 0.695413 0.515846
vt 0.349529 0.515846
vt 0.727723 0.001216
vt 0.727723 0.515845
vt 0.697843 0.515848
vt 0.697843 0.001216
vt 0.730153 0.515844
vt 0.730153 0.001216
vt 0.760032 0.001214
vt 0.760032 0.515844
vt 0.065837 0.671960
vt 0.065837 0.641223
vt 0.084568 0.641224
vt 0.084568 0.671959
vt 0.087000 0.549013
vt 0.087000 0.518279
vt 0.105731 0.518279
vt 0.105731 0.549013
vt 0.087000 0.671959
vt 0.087000 0.641222
vt 0.105732 0.641222
vt 0.105732 0.671959
vt 0.065836 0.579752
vt 0.065835 0.549015
vt 0.084567 0.549016
vt 0.084567 0.579751
vt 0.065837 0.702696
vt 0.084569 0.702696
vt 0.087000 0.579747
vt 0.105731 0.579747
vt 0.087000 0.702693
vt 0.105732 0.702693
vt 0.065836 0.610488
vt 0.084567 0.610488
vt 0.065837 0.733432
vt 0.084569 0.733432
vt 0.087000 0.610483
vt 0.105731 0.610483
vt 0.087000 0.733429
vt 0.105732 0.733429
vt 0.065838 0.764170
vt 0.084570 0.764169
vt 0.065835 0.518278
vt 0.084566 0.518278
vt 0.087000 0.764163
vt 0.105732 0.764163
vt 0.229188 0.530041
vt 0.250920 0.551775
vt 0.262681 0.580171
vt 0.262682 0.610908
vt 0.250919 0.639304
vt 0.229185 0.661037
vt 0.200788 0.672799
vt 0.170053 0.672799
vt 0.141658 0.661037
vt 0.119923 0.639302
vt 0.108162 0.610906
vt 0.108162 0.580170
vt 0.119925 0.551774
vt 0.141658 0.530040
vt 0.170055 0.518278
vt 0.200791 0.518278
vt 0.063405 0.518278
vt 0.063405 0.769360
vt 0.033526 0.675314
vt 0.033526 0.518278
vt 0.315883 0.518278
vt 0.315883 0.675317
vt 0.265111 0.675317
vt 0.265111 0.518278
vt 0.031095 0.518278
vt 0.031095 0.675317
vt 0.001215 0.769364
vt 0.001215 0.518278
vt 0.401502 0.518275
vt 0.401502 0.769358
vt 0.350729 0.769358
vt 0.350729 0.518275
vt 0.330038 0.018275
vt 0.038557 0.018275
vt 0.001215 0.001216
vt 0.347099 0.001216
vt 0.038557 0.498784
vt 0.001215 0.515848
vt 0.330038 0.498784
vt 0.347099 0.515846
vt 0.403932 0.518277
vt 0.695413 0.518277
vt 0.695413 0.998786
vt 0.403932 0.998786
vt 0.767878 0.484114
vt 0.767878 0.775620
vt 0.766386 0.775620
vt 0.766386 0.484115
vt 0.802619 0.292688
vt 0.802619 0.001215
vt 0.804112 0.001215
vt 0.804112 0.292689
vt 0.766386 0.481685
vt 0.766386 0.001216
vt 0.767879 0.001216
vt 0.767879 0.481685
s 0
usemtl retro_computer_setup_Mat
f 1/1/1 2/2/1 49/3/1 50/4/1
f 4/5/2 8/6/2 56/7/2 53/8/2
f 51/9/3 52/10/3 6/11/3 5/12/3
f 5/13/4 6/14/4 2/15/4 1/16/4
f 50/17/2 51/18/2 5/19/2 1/20/2
f 52/21/5 49/22/5 2/23/5 6/24/5
f 19/25/6 17/26/6 32/27/6 30/28/6
f 27/29/7 25/30/7 24/31/7 22/32/7
f 35/33/8 33/34/8 16/35/8 14/36/8
f 13/37/9 11/38/9 38/39/9 36/40/9
f 21/41/10 19/25/10 30/28/10 28/42/10
f 29/43/11 27/29/11 22/32/11 20/44/11
f 37/45/12 35/33/12 14/36/12 12/46/12
f 15/47/13 13/37/13 36/40/13 34/48/13
f 23/49/14 21/41/14 28/42/14 26/50/14
f 31/51/15 29/43/15 20/44/15 18/52/15
f 39/53/16 37/45/16 12/46/16 10/54/16
f 17/26/17 15/47/17 34/48/17 32/27/17
f 25/55/18 23/49/18 26/50/18 24/56/18
f 33/34/19 31/51/19 18/52/19 16/35/19
f 11/38/20 9/57/20 40/58/20 38/39/20
f 9/59/21 39/53/21 10/54/21 40/60/21
f 40/61/22 10/62/22 12/63/22 14/64/22 16/65/22 18/66/22 20/67/22 22/68/22 24/69/22 26/70/22 28/71/22 30/72/22 32/73/22 34/74/22 36/75/22 38/76/22
f 41/77/1 42/78/1 44/79/1 43/80/1
f 43/81/23 44/82/23 48/83/23 47/84/23
f 47/85/3 48/86/3 46/87/3 45/88/3
f 45/89/24 46/90/24 42/91/24 41/92/24
f 4/93/25 3/94/25 50/95/25 49/96/25
f 3/94/25 7/97/25 51/98/25 50/95/25
f 8/99/25 4/93/25 49/96/25 52/100/25
f 7/97/25 8/99/25 52/100/25 51/98/25
f 54/101/25 53/102/25 56/103/25 55/104/25
f 3/105/3 4/106/3 53/107/3 54/108/3
f 8/109/1 7/110/1 55/111/1 56/112/1
f 7/113/5 3/114/5 54/115/5 55/116/5
