# Blender 3.6.1
# www.blender.org
mtllib pc.mtl
o Cube.064
v 0.084434 -0.160883 -0.200128
v 0.084435 0.160883 -0.200128
v 0.078626 -0.160883 0.200128
v 0.078626 0.160883 0.200128
v -0.078625 -0.160883 -0.200128
v -0.078625 0.160883 -0.200128
v -0.084434 -0.160883 0.200128
v -0.084434 0.160882 0.200128
vn 0.9999 -0.0000 0.0145
vn -0.0000 -0.0000 1.0000
vn -0.9999 -0.0000 -0.0145
vn -0.0000 -0.0000 -1.0000
vn -0.0000 1.0000 -0.0000
vt 0.000535 0.000534
vt 0.400401 0.000534
vt 0.400400 0.497996
vt 0.000533 0.497996
vt 0.610565 0.499064
vt 0.610565 0.898931
vt 0.407926 0.898931
vt 0.407926 0.499064
vt 0.898931 0.000535
vt 0.898931 0.400403
vt 0.401470 0.400401
vt 0.401470 0.000533
vt 0.204220 0.898930
vt 0.204220 0.499064
vt 0.406859 0.499064
vt 0.406858 0.898932
vt 0.000535 0.499064
vt 0.203152 0.502004
vt 0.203152 0.999466
vt 0.000535 0.996525
s 0
usemtl retro_computer_setup_Mat
f 1/1/1 2/2/1 4/3/1 3/4/1
f 3/5/2 4/6/2 8/7/2 7/8/2
f 7/9/3 8/10/3 6/11/3 5/12/3
f 5/13/4 6/14/4 2/15/4 1/16/4
f 8/17/5 4/18/5 2/19/5 6/20/5
