# Blender 3.6.1
# www.blender.org
mtllib picture stand.mtl
o easel.007
v 0.207109 1.105814 0.249039
v 0.216154 1.165560 0.245116
v 0.232236 1.163129 0.245169
v 0.223191 1.103384 0.249092
v 0.244803 1.104029 0.249165
v 0.246395 1.166143 0.245215
v 0.258969 1.107045 0.249211
v 0.207109 1.105814 -0.249039
v 0.216154 1.165560 -0.245116
v 0.223191 1.103384 -0.249093
v 0.232236 1.163129 -0.245170
v 0.244803 1.104029 -0.249165
v 0.246395 1.166143 -0.245216
v 0.258969 1.107045 -0.249211
v 0.194329 1.516176 0.375051
v 0.068308 0.767568 0.374612
v 0.197034 1.516160 -0.374291
v 0.071013 0.767552 -0.374730
v 0.103433 0.762094 -0.374613
v 0.229454 1.510702 -0.374174
v 0.226749 1.510718 0.375168
v 0.100728 0.762110 0.374729
v 0.086480 0.794625 -0.345393
v 0.202779 1.485482 -0.344988
v 0.200285 1.485497 0.345792
v 0.083986 0.794639 0.345387
v 0.107747 0.788293 -0.348031
v 0.224948 1.484505 -0.347623
v 0.222435 1.484520 0.348586
v 0.105234 0.788308 0.348178
v 0.116965 0.774757 0.271035
v 0.112674 0.746428 0.273690
v 0.105658 0.776466 0.270997
v 0.103411 0.761637 0.272765
v 0.053721 0.755339 0.273493
v 0.067024 0.767137 0.272644
v 0.058007 0.783668 0.272614
v 0.069266 0.781966 0.272651
v 0.116965 0.774757 -0.271035
v 0.112674 0.746428 -0.273690
v 0.105658 0.776466 -0.270997
v 0.103411 0.761637 -0.272766
v 0.053721 0.755339 -0.273493
v 0.067024 0.767137 -0.272644
v 0.058007 0.783668 -0.272614
v 0.069266 0.781966 -0.272652
v 0.095873 0.371000 0.297288
v 0.105087 0.431869 0.293291
v 0.133208 0.427618 0.293384
v 0.123996 0.366748 0.297381
v 0.095873 0.370999 -0.297288
v 0.105087 0.431868 -0.293292
v 0.133208 0.427618 -0.293384
v 0.123996 0.366748 -0.297381
v 0.039445 -0.000227 0.256863
v 0.264477 1.483343 0.159255
v 0.039228 -0.000227 0.321858
v 0.264260 1.483343 0.224249
v 0.000312 -0.000227 0.256733
v 0.225344 1.489259 0.159124
v 0.000095 -0.000227 0.321727
v 0.225127 1.489259 0.224119
v 0.039445 -0.000227 -0.256863
v 0.264477 1.483343 -0.159255
v 0.039228 -0.000228 -0.321858
v 0.264260 1.483343 -0.224250
v 0.000312 -0.000227 -0.256733
v 0.225344 1.489259 -0.159125
v 0.000095 -0.000228 -0.321727
v 0.225127 1.489259 -0.224119
v 0.245567 1.104029 0.020313
v 0.259002 1.106889 0.020359
v 0.531779 -0.000227 0.021268
v 0.546727 -0.002100 0.021318
v 0.245567 1.104029 -0.020313
v 0.259002 1.106889 -0.020359
v 0.531779 -0.000227 -0.021268
v 0.546727 -0.002100 -0.021318
v 0.281467 1.690942 0.035521
v 0.268815 1.692855 0.035521
v 0.275293 1.650085 0.035521
v 0.262642 1.651998 0.035521
v 0.275047 1.650085 0.054293
v 0.273268 1.638311 0.054287
v 0.247259 1.654286 0.054200
v 0.245479 1.642512 0.054194
v 0.268815 1.692855 -0.035522
v 0.281467 1.690942 -0.035522
v 0.275293 1.650085 -0.035522
v 0.262642 1.651998 -0.035522
v 0.275047 1.650085 -0.054294
v 0.273268 1.638311 -0.054288
v 0.247259 1.654286 -0.054201
v 0.245479 1.642512 -0.054195
v 0.096744 0.370999 0.035521
v 0.082094 0.373214 0.035521
v 0.310128 1.782329 0.034080
v 0.295441 1.784549 0.034031
v 0.096744 0.370999 -0.035521
v 0.082094 0.373214 -0.035521
v 0.310128 1.782329 -0.034080
v 0.295441 1.784549 -0.034031
v 0.223945 1.103378 -0.035522
v 0.133227 0.427745 0.035521
v 0.105954 0.431869 0.035521
v 0.207826 1.105814 0.034483
v 0.223945 1.103378 0.035521
v 0.133227 0.427745 -0.035521
v 0.105954 0.431869 -0.035521
v 0.207826 1.105814 -0.034484
v 0.216371 1.165560 0.133859
v 0.232453 1.163129 0.133880
v 0.246236 1.166063 0.133898
v 0.232941 1.163129 0.075913
v 0.246725 1.166063 0.075931
v 0.216859 1.165560 0.075870
v 0.216326 1.167068 0.133858
v 0.232896 1.164637 0.075891
v 0.216814 1.167068 0.075870
v 0.232408 1.164637 0.133879
v 0.246680 1.167571 0.075931
v 0.246191 1.167571 0.133898
v 0.216371 1.165560 -0.133859
v 0.232453 1.163129 -0.133880
v 0.246236 1.166063 -0.133898
v 0.232941 1.163129 -0.075913
v 0.246725 1.166063 -0.075931
v 0.216859 1.165560 -0.075871
v 0.232408 1.164637 -0.133880
v 0.216326 1.167068 -0.133859
v 0.232896 1.164637 -0.075892
v 0.216814 1.167068 -0.075870
v 0.246680 1.167571 -0.075931
v 0.246191 1.167571 -0.133898
vn 0.9888 -0.1491 -0.0032
vn 0.9888 -0.1495 0.0033
vn 0.9888 -0.1492 -0.0030
vn -0.1495 -0.9888 -0.0000
vn -0.1495 -0.9888 -0.0005
vn 0.9781 0.2081 -0.0000
vn 0.0064 0.0646 0.9979
vn -0.2082 0.9781 -0.0000
vn 0.2082 -0.9781 -0.0009
vn 0.2082 -0.9781 -0.0008
vn 0.2082 -0.9781 0.0007
vn 0.2082 -0.9781 0.0012
vn -0.0168 0.0639 0.9978
vn -0.9781 -0.2082 0.0033
vn -0.9781 -0.2082 0.0032
vn -0.9781 -0.2082 -0.0033
vn -0.9887 0.1498 0.0034
vn -0.9888 0.1495 -0.0033
vn -0.9887 0.1498 0.0030
vn 0.0064 0.0646 -0.9979
vn -0.0168 0.0639 -0.9978
vn 0.1495 0.9888 -0.0000
vn 0.1495 0.9888 0.0007
vn 0.1495 0.9888 0.0010
vn 0.1243 -0.0203 -0.9920
vn 0.9861 -0.1660 0.0036
vn -0.0440 -0.9990 -0.0001
vn 0.2855 0.9584 0.0010
vn 0.1171 -0.0203 0.9929
vn -0.0036 -0.0000 1.0000
vn 0.1660 0.9861 0.0006
vn -0.1660 -0.9861 -0.0006
vn 0.0036 -0.0000 -1.0000
vn -0.9861 0.1660 -0.0036
vn -0.9888 0.1495 0.0032
vn -0.9888 0.1495 0.0033
vn 0.1508 0.9886 -0.0004
vn 0.1508 0.9886 0.0005
vn 0.1501 0.9887 0.0012
vn 0.0332 0.0969 0.9947
vn -0.9887 0.1496 -0.0033
vn -0.9887 0.1496 0.0032
vn 0.9888 -0.1494 0.0037
vn 0.9888 -0.1494 -0.0028
vn 0.0064 0.0645 0.9979
vn 0.1495 0.9888 -0.0003
vn 0.1495 0.9888 0.0005
vn 0.9888 -0.1495 -0.0033
vn 0.0264 0.0162 0.9995
vn 0.0332 0.0969 -0.9947
vn 0.0064 0.0645 -0.9979
vn 0.0264 0.0162 -0.9995
vn 0.0065 0.0645 0.9979
vn 0.9887 -0.1496 -0.0000
vn 0.0065 0.0645 -0.9979
vn -0.9887 0.1497 -0.0000
vn -0.0016 -0.0653 -0.9979
vn -0.0064 -0.0646 -0.9979
vn -0.9889 0.1488 -0.0033
vn -0.9888 0.1492 -0.0033
vn 0.9886 -0.1504 0.0033
vn 0.9887 -0.1498 0.0033
vn 0.9887 -0.1498 -0.0033
vn 0.0016 0.0653 -0.9979
vn -0.9888 0.1492 0.0033
vn -0.0016 -0.0653 0.9979
vn 0.1495 0.9888 -0.0005
vn 0.0016 0.0653 0.9979
vn 0.0065 0.0649 0.9979
vn 0.0064 0.0649 0.9979
vn 0.9680 0.2511 -0.0000
vn -0.9680 -0.2509 -0.0000
vn -0.0034 -0.0000 1.0000
vn -0.0034 -0.0000 -1.0000
vn -0.9888 0.1494 0.0023
vn -0.0000 -0.0000 1.0000
vn 0.1475 0.9891 -0.0002
vn 0.1476 0.9891 0.0001
vn 0.1474 0.9891 0.0003
vn 0.1474 0.9891 -0.0004
vn -0.9888 0.1495 -0.0000
vn -0.0033 -0.0000 1.0000
vn 0.1495 0.9888 0.0020
vn 0.9875 -0.1573 0.0079
vn -0.0000 -0.0000 -1.0000
vn 0.9724 -0.2131 -0.0949
vn 0.9724 -0.2132 0.0947
vn 0.9879 -0.1554 0.0011
vn 0.9828 -0.1500 -0.1081
vn 0.9883 -0.1525 0.0009
vn 0.9820 -0.1518 0.1122
vn 0.9729 -0.2111 0.0946
vn 0.9729 -0.2111 -0.0949
vn -0.0033 -0.0000 -1.0000
vn 0.9875 -0.1573 -0.0079
vn 0.1495 0.9888 -0.0020
vn -0.0015 0.0013 1.0000
vn -0.0015 0.0013 -1.0000
vn 0.9888 -0.1495 -0.0000
vn -0.0233 0.0041 0.9997
vn 0.9911 -0.1331 -0.0000
vn -0.0233 0.0041 -0.9997
vn 0.1494 0.9888 -0.0000
vn -0.2082 0.9781 -0.0018
vn 0.1495 0.9888 0.0013
vn 0.0014 -0.0002 -1.0000
vn 0.9995 0.0299 0.0084
vn -0.9995 -0.0299 -0.0084
vn -0.0013 0.0002 1.0000
vn 0.0013 -0.0002 -1.0000
vn -0.0014 0.0002 1.0000
vn -0.2082 0.9781 0.0018
vn 0.1495 0.9888 -0.0013
vn 0.0014 -0.0002 1.0000
vn 0.9995 0.0299 -0.0084
vn -0.9995 -0.0299 0.0084
vn -0.0013 0.0002 -1.0000
vn 0.0013 -0.0002 1.0000
vn -0.0014 0.0002 -1.0000
vt 0.590233 0.748441
vt 0.590233 0.996296
vt 0.559689 0.998280
vt 0.559689 0.746458
vt 0.918027 0.988689
vt 0.918027 0.736867
vt 0.926249 0.736894
vt 0.926249 0.988662
vt 0.315665 0.728684
vt 0.315665 0.976586
vt 0.285124 0.978605
vt 0.285124 0.726665
vt 0.788816 0.777067
vt 0.788816 0.746458
vt 0.797038 0.746458
vt 0.797038 0.777067
vt 0.326802 0.726665
vt 0.326802 0.974567
vt 0.319484 0.974544
vt 0.319484 0.726688
vt 0.330243 0.726688
vt 0.337564 0.726665
vt 0.337564 0.978605
vt 0.330243 0.978582
vt 0.110301 0.798812
vt 0.110301 0.768204
vt 0.117622 0.768204
vt 0.117618 0.798813
vt 0.245772 0.728684
vt 0.276314 0.726665
vt 0.276314 0.978559
vt 0.245772 0.976540
vt 0.593674 0.998225
vt 0.593674 0.746458
vt 0.624219 0.748441
vt 0.624219 0.996242
vt 0.129284 0.798813
vt 0.121063 0.798812
vt 0.121063 0.768204
vt 0.129284 0.768204
vt 0.106860 0.798812
vt 0.099542 0.798812
vt 0.099539 0.768204
vt 0.106860 0.768204
vt 0.635881 0.746485
vt 0.635881 0.994287
vt 0.627659 0.994314
vt 0.627659 0.746458
vt 0.805405 0.357219
vt 0.794193 0.358592
vt 0.794193 0.001720
vt 0.805405 0.003093
vt 0.465521 0.772619
vt 0.452092 0.759190
vt 0.452092 0.402319
vt 0.465521 0.388890
vt 0.542820 0.388890
vt 0.556248 0.402319
vt 0.556248 0.754240
vt 0.542820 0.767668
vt 0.525950 0.388890
vt 0.539379 0.402319
vt 0.539379 0.754240
vt 0.525950 0.767669
vt 0.468962 0.388890
vt 0.482391 0.402319
vt 0.482390 0.759190
vt 0.468962 0.772619
vt 0.823498 0.003093
vt 0.834710 0.001720
vt 0.834710 0.353641
vt 0.823498 0.352269
vt 0.849363 0.352269
vt 0.838151 0.353641
vt 0.838151 0.001720
vt 0.849363 0.003093
vt 0.808845 0.003093
vt 0.820057 0.001720
vt 0.820057 0.358592
vt 0.808845 0.357219
vt 0.428592 0.388890
vt 0.428592 0.772619
vt 0.411974 0.772619
vt 0.411974 0.388890
vt 0.485831 0.388890
vt 0.502450 0.388890
vt 0.502450 0.767669
vt 0.485831 0.767669
vt 0.908865 0.743017
vt 0.559689 0.743017
vt 0.559689 0.388890
vt 0.908865 0.388890
vt 0.522509 0.767668
vt 0.505891 0.767668
vt 0.505891 0.388890
vt 0.522509 0.388890
vt 0.432033 0.388890
vt 0.448651 0.388890
vt 0.448651 0.772619
vt 0.432033 0.772619
vt 0.790752 0.385449
vt 0.411974 0.385449
vt 0.411974 0.001720
vt 0.790752 0.001721
vt 0.974829 0.001720
vt 0.974829 0.277474
vt 0.967247 0.276580
vt 0.967247 0.002615
vt 0.986291 0.662875
vt 0.986291 0.388909
vt 0.992072 0.388890
vt 0.992072 0.662894
vt 0.056179 0.770351
vt 0.070724 0.770345
vt 0.070729 0.776125
vt 0.063095 0.776132
vt 0.963268 0.968921
vt 0.963268 0.693321
vt 0.977751 0.692876
vt 0.977751 0.969366
vt 0.949323 0.278408
vt 0.949323 0.001720
vt 0.963807 0.003063
vt 0.963807 0.277066
vt 0.929690 0.969465
vt 0.929690 0.692976
vt 0.959827 0.692876
vt 0.959827 0.969564
vt 0.063095 0.794733
vt 0.056179 0.800489
vt 0.982850 0.388952
vt 0.982850 0.664583
vt 0.964249 0.664644
vt 0.964249 0.388890
vt 0.981192 0.692876
vt 0.986948 0.692895
vt 0.986948 0.968496
vt 0.981192 0.968515
vt 0.985851 0.001720
vt 0.985851 0.277359
vt 0.978270 0.277355
vt 0.978270 0.001724
vt 0.070676 0.794744
vt 0.070668 0.800499
vt 0.081543 0.798342
vt 0.088464 0.792566
vt 0.096098 0.792578
vt 0.096089 0.798359
vt 0.081565 0.768204
vt 0.088477 0.773965
vt 0.096054 0.768204
vt 0.096058 0.773960
vt 0.175692 0.798587
vt 0.175692 0.767403
vt 0.190070 0.767403
vt 0.190068 0.798587
vt 0.373073 0.883215
vt 0.341955 0.885235
vt 0.341955 0.584597
vt 0.373073 0.586617
vt 0.164515 0.799388
vt 0.150139 0.799388
vt 0.150137 0.768204
vt 0.164515 0.768204
vt 0.960808 0.689436
vt 0.929690 0.687415
vt 0.929690 0.390911
vt 0.960808 0.388890
vt 0.945882 0.298272
vt 0.931507 0.298318
vt 0.931507 0.001720
vt 0.945882 0.001767
vt 0.390891 0.584597
vt 0.390891 0.885235
vt 0.376514 0.885188
vt 0.376514 0.584643
vt 0.213516 0.800256
vt 0.193511 0.800256
vt 0.193511 0.767403
vt 0.213516 0.767403
vt 0.140846 0.001720
vt 0.141068 0.764763
vt 0.121063 0.764763
vt 0.121287 0.004671
vt 0.034504 0.001720
vt 0.034504 0.764763
vt 0.001720 0.766904
vt 0.001720 0.003861
vt 0.200739 0.003869
vt 0.200739 0.763962
vt 0.167956 0.761813
vt 0.167956 0.001720
vt 0.204180 0.003869
vt 0.236963 0.001720
vt 0.236963 0.761813
vt 0.204180 0.763962
vt 0.074394 0.004671
vt 0.093953 0.001720
vt 0.094175 0.764763
vt 0.074170 0.764763
vt 0.037945 0.001720
vt 0.070729 0.003861
vt 0.070729 0.766904
vt 0.037945 0.764763
vt 0.097616 0.001720
vt 0.117177 0.004665
vt 0.117622 0.764757
vt 0.097616 0.764763
vt 0.216957 0.800256
vt 0.216957 0.767403
vt 0.236963 0.767403
vt 0.236963 0.800256
vt 0.164292 0.004671
vt 0.164515 0.764763
vt 0.144509 0.764763
vt 0.144732 0.001720
vt 0.362072 0.580849
vt 0.341490 0.580849
vt 0.341005 0.001720
vt 0.362556 0.001720
vt 0.408050 0.578342
vt 0.387515 0.578342
vt 0.387032 0.001720
vt 0.408533 0.001720
vt 0.383451 0.580850
vt 0.376514 0.581155
vt 0.376514 0.004533
vt 0.383591 0.001720
vt 0.365997 0.580850
vt 0.365997 0.001720
vt 0.373073 0.004534
vt 0.372934 0.581156
vt 0.687458 0.801293
vt 0.687458 0.746505
vt 0.701664 0.746458
vt 0.701664 0.801340
vt 0.735451 0.746458
vt 0.735451 0.782369
vt 0.714565 0.782369
vt 0.714565 0.746458
vt 0.767958 0.782368
vt 0.767958 0.746458
vt 0.774426 0.746458
vt 0.774426 0.782368
vt 0.735452 0.788836
vt 0.714565 0.788836
vt 0.676156 0.791857
vt 0.676156 0.755947
vt 0.684017 0.746505
vt 0.684017 0.801299
vt 0.705105 0.801250
vt 0.705105 0.746461
vt 0.711124 0.746458
vt 0.711124 0.801252
vt 0.556248 0.785315
vt 0.550229 0.785315
vt 0.550229 0.771109
vt 0.556248 0.771109
vt 0.669688 0.791857
vt 0.669811 0.801346
vt 0.645360 0.791858
vt 0.645341 0.801348
vt 0.639322 0.801344
vt 0.140229 0.768204
vt 0.146697 0.768205
vt 0.146697 0.789091
vt 0.140229 0.789091
vt 0.645360 0.755948
vt 0.666247 0.755948
vt 0.666247 0.791858
vt 0.639322 0.746462
vt 0.009598 0.770345
vt 0.009598 0.784551
vt 0.003579 0.784551
vt 0.003579 0.770345
vt 0.645341 0.746458
vt 0.669688 0.755947
vt 0.669811 0.746458
vt 0.279755 0.001720
vt 0.315665 0.001720
vt 0.314912 0.723224
vt 0.280508 0.723224
vt 0.337564 0.001721
vt 0.337564 0.723224
vt 0.330055 0.723224
vt 0.330074 0.001720
vt 0.785375 0.746458
vt 0.785375 0.780911
vt 0.777867 0.780887
vt 0.777867 0.746483
vt 0.319125 0.001720
vt 0.326615 0.001720
vt 0.326615 0.723224
vt 0.319106 0.723224
vt 0.275585 0.723224
vt 0.241132 0.723224
vt 0.240404 0.001720
vt 0.276314 0.001720
vt 0.394590 0.581783
vt 0.408533 0.581782
vt 0.402847 0.926318
vt 0.394590 0.926318
vt 0.852804 0.001720
vt 0.888714 0.001720
vt 0.888714 0.346303
vt 0.852804 0.346303
vt 0.926249 0.388891
vt 0.926249 0.733426
vt 0.917991 0.733426
vt 0.912306 0.388890
vt 0.756277 0.746458
vt 0.764517 0.746983
vt 0.764517 0.781844
vt 0.756277 0.782368
vt 0.927541 0.346255
vt 0.892680 0.346255
vt 0.892155 0.001720
vt 0.928066 0.001720
vt 0.752836 0.746458
vt 0.752836 0.782369
vt 0.738893 0.782369
vt 0.738893 0.746458
vt 0.044516 0.770384
vt 0.044516 0.799696
vt 0.037393 0.799647
vt 0.037393 0.770345
vt 0.052738 0.799754
vt 0.052738 0.770441
vt 0.077340 0.783312
vt 0.075975 0.776321
vt 0.076737 0.776311
vt 0.078103 0.783303
vt 0.280920 0.788720
vt 0.280920 0.759418
vt 0.281683 0.759418
vt 0.281683 0.788720
vt 0.280920 0.755977
vt 0.280920 0.726665
vt 0.281683 0.726665
vt 0.281683 0.755977
vt 0.136026 0.783303
vt 0.134660 0.775195
vt 0.135422 0.775205
vt 0.136788 0.783313
vt 0.077340 0.768214
vt 0.078103 0.768204
vt 0.136026 0.768204
vt 0.136788 0.768214
vt 0.026829 0.770384
vt 0.033952 0.770345
vt 0.033952 0.799647
vt 0.026829 0.799696
vt 0.018608 0.799754
vt 0.018608 0.770441
vt 0.014405 0.770345
vt 0.015167 0.770355
vt 0.013801 0.777346
vt 0.013039 0.777336
vt 0.240404 0.759418
vt 0.241166 0.759418
vt 0.241166 0.788720
vt 0.240404 0.788720
vt 0.241166 0.755977
vt 0.240404 0.755977
vt 0.240404 0.726665
vt 0.241166 0.726665
vt 0.171489 0.767413
vt 0.172251 0.767403
vt 0.170886 0.775510
vt 0.170123 0.775520
vt 0.015167 0.785453
vt 0.014405 0.785443
vt 0.172251 0.782502
vt 0.171489 0.782512
s 0
usemtl 
f 11/1/1 3/2/2 4/3/2 10/4/3
f 10/5/4 4/6/5 1/7/4 8/8/4
f 13/9/6 6/10/6 7/11/6 14/12/6
f 2/13/7 1/14/7 4/15/7 3/16/7
f 6/17/8 13/18/8 11/19/8 3/20/8
f 12/21/9 14/22/10 7/23/11 5/24/12
f 3/25/13 5/26/13 7/27/13 6/28/13
f 11/29/14 12/30/15 5/31/16 3/32/16
f 8/33/17 1/34/18 2/35/18 9/36/19
f 9/37/20 11/38/20 10/39/20 8/40/20
f 11/41/21 13/42/21 14/43/21 12/44/21
f 9/45/22 2/46/23 3/47/24 11/48/22
s 1
f 25/49/25 29/50/25 30/51/25 26/52/25
f 20/53/26 28/54/26 27/55/26 19/56/26
f 21/57/26 29/58/26 28/59/26 20/60/26
f 19/61/26 27/62/26 30/63/26 22/64/26
f 22/65/26 30/66/26 29/67/26 21/68/26
f 24/69/27 28/70/27 29/71/27 25/72/27
f 26/73/28 30/74/28 27/75/28 23/76/28
f 23/77/29 27/78/29 28/79/29 24/80/29
f 22/81/30 21/82/30 15/83/30 16/84/30
f 20/85/31 17/86/31 15/87/31 21/88/31
f 24/89/26 25/90/26 26/91/26 23/92/26
f 22/93/32 16/94/32 18/95/32 19/96/32
f 19/97/33 18/98/33 17/99/33 20/100/33
f 18/101/34 16/102/34 15/103/34 17/104/34
s 0
f 42/105/35 34/106/18 33/107/18 41/108/36
f 41/109/37 33/110/38 31/111/39 39/112/37
f 32/113/40 31/114/40 33/115/40 34/116/40
f 37/117/41 45/118/42 43/119/42 35/120/41
f 32/121/43 40/122/44 39/123/44 31/124/43
f 35/125/4 43/126/4 40/127/4 32/128/4
f 32/113/45 34/116/45 36/129/45 35/130/45
f 44/131/22 36/132/22 34/133/22 42/134/22
f 46/135/22 45/136/46 37/137/47 38/138/47
f 46/139/48 38/140/2 36/141/2 44/142/48
f 35/130/49 36/129/49 38/143/49 37/144/49
f 40/145/50 42/146/50 41/147/50 39/148/50
f 40/145/51 43/149/51 44/150/51 42/146/51
f 43/149/52 45/151/52 46/152/52 44/150/52
f 48/153/53 47/154/53 50/155/53 49/156/53
f 49/157/54 50/158/54 54/159/54 53/160/54
f 52/161/55 53/162/55 54/163/55 51/164/55
f 47/165/56 48/166/56 52/167/56 51/168/56
f 48/169/22 49/170/22 53/171/22 52/172/22
f 54/173/4 50/174/4 47/175/4 51/176/4
f 62/177/47 58/178/47 56/179/47 60/180/47
f 59/181/57 60/182/58 56/183/58 55/184/57
f 61/185/59 62/186/60 60/187/60 59/188/59
f 55/189/61 56/190/62 58/191/62 57/192/61
f 63/193/63 65/194/63 66/195/63 64/196/63
f 65/197/64 69/198/64 70/199/64 66/200/64
f 69/201/65 67/202/65 68/203/65 70/204/65
f 67/205/66 63/206/66 64/207/66 68/208/66
f 70/209/67 68/210/67 64/211/67 66/212/67
f 57/213/68 58/214/69 62/215/70 61/216/68
f 76/217/71 72/218/71 74/219/71 78/220/71
f 71/221/72 75/222/72 77/223/72 73/224/72
f 72/225/73 71/226/73 73/227/73 74/228/73
f 76/229/74 78/230/74 77/231/74 75/232/74
f 86/233/4 94/234/4 92/235/4 84/236/4
f 90/237/75 82/238/75 80/239/75 87/240/75
f 79/241/22 88/242/22 87/243/22 80/244/22
f 81/245/76 79/246/76 80/239/76 82/238/76
f 82/247/77 90/248/78 93/249/79 85/250/80
f 94/251/81 86/252/81 85/253/81 93/254/81
f 84/255/82 83/256/82 85/257/82 86/258/82
f 81/259/83 82/247/83 85/250/83 83/260/83
f 81/261/84 83/262/84 84/263/84
f 89/264/85 90/265/85 87/266/85 88/267/85
f 81/261/86 89/268/87 88/269/88 79/270/89
f 84/263/90 92/271/91 89/268/92 81/261/93
f 92/272/94 94/273/94 93/274/94 91/275/94
f 92/271/95 91/276/95 89/268/95
f 89/277/96 91/278/96 93/249/96 90/248/96
f 100/279/81 96/280/81 98/281/81 102/282/81
f 95/283/97 97/284/97 98/285/97 96/286/97
f 97/287/22 101/288/22 102/289/22 98/290/22
f 99/291/98 100/292/98 102/293/98 101/294/98
f 101/295/99 97/296/99 95/297/99 99/298/99
f 105/299/100 104/300/100 107/301/100 106/302/100
f 104/303/101 108/304/101 103/305/101 107/306/101
f 109/307/102 110/308/102 103/309/102 108/310/102
f 103/311/103 110/312/103 106/313/103 107/314/103
f 106/315/81 110/316/81 109/317/81 105/318/81
f 105/319/4 109/320/4 108/321/4 104/322/4
f 118/323/104 120/324/104 122/325/104 121/326/104
f 117/327/105 120/324/105 118/323/105 119/328/105
f 115/329/106 114/330/106 118/331/106 121/332/106
f 113/333/107 115/334/107 121/335/107 122/336/107
f 116/337/108 111/338/108 117/339/108 119/340/108
f 111/341/109 112/342/109 120/343/109 117/344/109
f 114/330/110 116/345/110 119/346/110 118/331/110
f 112/342/111 113/347/111 122/348/111 120/343/111
f 131/349/112 133/350/112 134/351/112 129/352/112
f 130/353/113 132/354/113 131/349/113 129/352/113
f 127/355/114 133/356/114 131/357/114 126/358/114
f 125/359/115 134/360/115 133/361/115 127/362/115
f 128/363/116 132/364/116 130/365/116 123/366/116
f 123/367/117 130/368/117 129/369/117 124/370/117
f 126/358/118 131/357/118 132/371/118 128/372/118
f 124/370/119 129/369/119 134/373/119 125/374/119
