# Blender 3.6.1
# www.blender.org
mtllib раковина.mtl
o Circle.002
v 0.082350 0.073882 -0.001749
v 0.076731 0.073882 -0.011482
v 0.065492 0.073882 -0.011482
v 0.059873 0.073882 -0.001749
v 0.065492 0.073882 0.007983
v 0.076731 0.073882 0.007983
v 0.082350 0.156112 -0.001749
v 0.076731 0.156112 -0.011482
v 0.065492 0.156112 -0.011482
v 0.059873 0.156112 -0.001749
v 0.065492 0.156112 0.007983
v 0.076731 0.156112 0.007983
v 0.076216 0.179004 -0.001749
v 0.071350 0.176194 -0.011482
v 0.061617 0.170575 -0.011482
v 0.056751 0.167765 -0.001749
v 0.061617 0.170575 0.007983
v 0.071350 0.176194 0.007983
v 0.059458 0.195762 -0.001749
v 0.056649 0.190895 -0.011482
v 0.051029 0.181163 -0.011482
v 0.048220 0.176296 -0.001749
v 0.051029 0.181163 0.007983
v 0.056649 0.190895 0.007983
v 0.036567 0.201895 -0.001749
v 0.036567 0.196276 -0.011482
v 0.036567 0.185038 -0.011482
v 0.036566 0.179419 -0.001749
v 0.036567 0.185038 0.007983
v 0.036567 0.196276 0.007983
v 0.013675 0.195762 -0.001749
v 0.016485 0.190895 -0.011482
v 0.022104 0.181162 -0.011482
v 0.024913 0.176296 -0.001749
v 0.022104 0.181162 0.007983
v 0.016485 0.190895 0.007983
v -0.003083 0.179004 -0.001749
v 0.001783 0.176194 -0.011482
v 0.011516 0.170575 -0.011482
v 0.016382 0.167765 -0.001749
v 0.011516 0.170575 0.007983
v 0.001783 0.176194 0.007983
v -0.009217 0.156112 -0.001749
v -0.003598 0.156112 -0.011482
v 0.007641 0.156112 -0.011482
v 0.013260 0.156112 -0.001749
v 0.007641 0.156112 0.007983
v -0.003598 0.156112 0.007983
v 0.080917 0.092949 -0.001749
v 0.076014 0.101441 -0.001749
v 0.066209 0.101441 -0.001749
v 0.061306 0.092949 -0.001749
v 0.066209 0.084456 -0.001749
v 0.076014 0.084456 -0.001749
v 0.080917 0.092949 0.015522
v 0.076014 0.101441 0.015522
v 0.066209 0.101441 0.015522
v 0.061306 0.092949 0.015522
v 0.066209 0.084456 0.015522
v 0.076014 0.084456 0.015522
v 0.080917 0.092949 0.019833
v 0.061306 0.092949 0.019833
v 0.066209 0.084456 0.019833
v 0.076014 0.084456 0.019833
v 0.076706 0.131834 0.015522
v 0.065517 0.131834 0.015522
v 0.076706 0.131834 0.019833
v 0.065517 0.131834 0.019833
v 0.125726 -1.008521 0.156957
v 0.125726 -0.080441 0.141146
v -0.083469 -1.008521 0.031010
v -0.062626 -0.080441 0.027745
v -0.162365 -0.042340 0.044769
v 0.125726 0.001947 0.286184
v -0.216030 0.001947 0.054070
v 0.125726 0.081032 0.315226
v 0.125726 -0.042340 0.234221
v -0.243181 0.081032 0.058992
v -0.002426 -1.008521 0.134003
v -0.051658 -1.008521 0.089474
v 0.010345 -0.080441 0.120477
v -0.033978 -0.080441 0.080380
v -0.054135 -0.042340 0.194789
v -0.121376 -0.042340 0.129520
v -0.089236 0.001947 0.235836
v -0.168701 0.001947 0.156557
v -0.193074 0.081032 0.171111
v -0.107554 0.081032 0.258135
v -0.055638 -0.035985 0.026057
v -0.144849 -0.002032 0.040761
v -0.106649 -0.002258 0.118906
v -0.028286 -0.035985 0.076111
v 0.014277 -0.035985 0.114359
v -0.043970 -0.002332 0.179581
v 0.036161 -0.035985 0.122649
v -0.184425 0.030628 0.047175
v -0.070974 0.030493 0.209471
v 0.036161 0.030397 0.251467
v -0.142291 0.030452 0.138214
v -0.201719 0.081032 0.050253
v -0.082834 0.081032 0.223665
v 0.036161 0.081032 0.269444
v -0.157991 0.081032 0.147465
v 0.125726 0.081032 0.273303
v 0.059344 -1.008521 0.157726
v 0.013782 0.001947 0.282221
v 0.036161 -0.002488 0.214000
v 0.032214 -0.042340 0.232178
v 0.065958 -0.080441 0.141839
v 0.004093 0.081032 0.309732
v 0.125726 0.081032 -0.276801
v -0.216030 0.001947 -0.057569
v -0.083469 -1.008521 -0.034509
v -0.144849 -0.002032 -0.044259
v -0.243181 0.081032 -0.062490
v 0.036161 -0.035985 -0.126147
v -0.062626 -0.080441 -0.031244
v -0.055638 -0.035985 -0.029556
v 0.036161 0.081032 -0.272943
v -0.162365 -0.042340 -0.048268
v -0.184425 0.030628 -0.050674
v -0.201719 0.081032 -0.053752
v 0.125726 -1.008521 -0.160456
v 0.125726 -0.080441 -0.144645
v 0.125726 0.001947 -0.289682
v 0.125726 0.081032 -0.318725
v 0.125726 -0.042340 -0.237720
v -0.002426 -1.008521 -0.137502
v -0.051658 -1.008521 -0.092973
v 0.010345 -0.080441 -0.123975
v -0.033978 -0.080441 -0.083879
v -0.054136 -0.042340 -0.198288
v -0.121376 -0.042340 -0.133019
v -0.089236 0.001947 -0.239335
v -0.168701 0.001947 -0.160056
v -0.193074 0.081032 -0.174610
v -0.107554 0.081032 -0.261634
v -0.106649 -0.002258 -0.122404
v -0.028286 -0.035985 -0.079610
v 0.014277 -0.035985 -0.117858
v -0.043970 -0.002332 -0.183080
v -0.070974 0.030493 -0.212970
v 0.036161 0.030397 -0.254966
v -0.142292 0.030452 -0.141713
v -0.082834 0.081032 -0.227164
v -0.157991 0.081032 -0.150964
v 0.036161 -0.035985 -0.001749
v 0.059344 -1.008521 -0.161225
v 0.013782 0.001947 -0.285720
v 0.036161 -0.002488 -0.217499
v 0.032214 -0.042340 -0.235677
v 0.065958 -0.080441 -0.145338
v 0.004093 0.081032 -0.313231
vn -0.5000 -0.0000 0.8660
vn 0.5000 -0.0000 0.8660
vn 0.5268 0.0725 0.8469
vn -0.4652 -0.0588 0.8832
vn -0.5000 -0.0000 -0.8660
vn -1.0000 -0.0000 -0.0000
vn -0.9907 -0.1363 -0.0000
vn -0.4652 -0.0588 -0.8832
vn 1.0000 -0.0000 -0.0000
vn 0.5000 -0.0000 -0.8660
vn 0.5268 0.0725 -0.8469
vn 0.9921 0.1255 -0.0000
vn 0.4827 0.2787 0.8303
vn -0.3745 -0.2162 0.9016
vn -0.8660 -0.5000 -0.0000
vn -0.3745 -0.2162 -0.9016
vn 0.4827 0.2787 -0.8303
vn 0.8660 0.5000 -0.0000
vn 0.5000 0.8660 -0.0000
vn 0.2787 0.4827 0.8303
vn -0.2162 -0.3745 0.9016
vn -0.5000 -0.8660 -0.0000
vn -0.2162 -0.3745 -0.9016
vn 0.2787 0.4827 -0.8303
vn -0.0000 0.5573 0.8303
vn -0.0000 -0.4325 0.9016
vn -0.0000 -1.0000 -0.0000
vn -0.0000 -0.4325 -0.9016
vn -0.0000 0.5573 -0.8303
vn -0.0000 1.0000 -0.0000
vn -0.5000 0.8660 -0.0000
vn -0.2787 0.4827 0.8303
vn 0.2162 -0.3745 0.9016
vn 0.5000 -0.8660 -0.0000
vn 0.2162 -0.3745 -0.9016
vn -0.2787 0.4827 -0.8303
vn -0.4827 0.2787 0.8303
vn 0.3745 -0.2162 0.9016
vn 0.8660 -0.5000 -0.0000
vn 0.3745 -0.2162 -0.9016
vn -0.4827 0.2787 -0.8303
vn -0.8660 0.5000 -0.0000
vn -0.9659 0.2588 -0.0000
vn -0.5512 0.1477 0.8212
vn 0.4296 -0.1151 0.8957
vn 0.9659 -0.2588 -0.0000
vn 0.4296 -0.1151 -0.8957
vn -0.5512 0.1477 -0.8212
vn 0.6547 -0.7559 -0.0000
vn 0.9941 -0.1086 -0.0000
vn -0.0000 -0.0000 1.0000
vn 0.9785 -0.2064 -0.0000
vn -0.9785 -0.2064 -0.0000
vn -0.0000 -0.0000 -1.0000
vn -0.9942 0.1077 -0.0000
vn 0.9942 0.1077 -0.0000
vn -0.9689 0.0226 0.2462
vn -0.9688 0.0226 0.2469
vn -0.9688 0.0226 -0.2469
vn -0.9689 0.0226 -0.2462
vn 0.0116 0.0170 0.9998
vn 0.0050 -0.5464 0.8375
vn -0.1433 -0.5863 0.7974
vn -0.1771 0.0181 0.9840
vn -0.4241 -0.5888 0.6881
vn -0.5239 0.0196 0.8516
vn -0.3399 -0.9366 0.0853
vn -0.6369 -0.5878 0.4988
vn -0.4173 -0.8571 0.3022
vn -0.4994 -0.8587 0.1149
vn -0.4994 -0.8587 -0.1149
vn -0.3399 -0.9366 -0.0853
vn -0.1109 -0.8495 0.5157
vn -0.2879 -0.8544 0.4326
vn -0.7858 0.0210 0.6181
vn -0.8091 -0.5606 0.1765
vn -0.8091 -0.5606 -0.1765
vn -0.1901 -0.5605 0.8060
vn -0.4707 -0.5633 0.6791
vn -0.6791 -0.5625 0.4716
vn -0.9218 -0.3332 0.1980
vn -0.9218 -0.3332 -0.1980
vn -0.2220 -0.3443 0.9122
vn -0.5399 -0.3418 0.7692
vn -0.7766 -0.3364 0.5327
vn 0.1984 0.9789 -0.0499
vn 0.4989 0.8590 -0.1150
vn 0.4159 0.8579 -0.3018
vn 0.1586 0.9797 -0.1228
vn 0.1984 0.9789 0.0499
vn 0.4989 0.8590 0.1150
vn 0.1092 0.9785 -0.1749
vn 0.2862 0.8498 -0.4427
vn 0.2152 0.8260 -0.5209
vn 0.0906 0.9726 -0.2143
vn 0.8090 0.5607 0.1765
vn 0.8090 0.5607 -0.1765
vn 0.4578 0.5530 -0.6961
vn 0.3145 0.5194 -0.7946
vn 0.6785 0.5635 -0.4712
vn 0.9217 0.3333 0.1984
vn 0.9217 0.3333 -0.1984
vn 0.5198 0.3352 -0.7858
vn 0.3428 0.3209 -0.8829
vn 0.7760 0.3369 -0.5331
vn -0.0115 -0.8500 0.5266
vn -0.0297 -0.5634 0.8257
vn -0.0381 -0.3385 0.9402
vn 0.0906 0.9726 0.2143
vn 0.1092 0.9785 0.1749
vn 0.0116 0.0170 -0.9998
vn -0.1771 0.0181 -0.9840
vn -0.1433 -0.5863 -0.7974
vn 0.0050 -0.5464 -0.8375
vn -0.4241 -0.5888 -0.6881
vn -0.5239 0.0196 -0.8516
vn -0.4173 -0.8571 -0.3022
vn -0.6369 -0.5878 -0.4988
vn -0.2879 -0.8544 -0.4326
vn -0.1109 -0.8495 -0.5157
vn -0.7858 0.0210 -0.6181
vn -0.4707 -0.5633 -0.6791
vn -0.1901 -0.5605 -0.8060
vn -0.6791 -0.5625 -0.4716
vn -0.5399 -0.3418 -0.7692
vn -0.2220 -0.3443 -0.9122
vn -0.7766 -0.3364 -0.5327
vn 0.1586 0.9797 0.1228
vn 0.4159 0.8579 0.3018
vn 0.2152 0.8260 0.5209
vn 0.2862 0.8498 0.4427
vn 0.3145 0.5194 0.7946
vn 0.4578 0.5530 0.6961
vn 0.6785 0.5635 0.4712
vn 0.3428 0.3209 0.8829
vn 0.5198 0.3352 0.7858
vn 0.7760 0.3369 0.5331
vn -0.0115 -0.8500 -0.5266
vn -0.0297 -0.5634 -0.8257
vn -0.0381 -0.3385 -0.9402
vt 0.504291 0.213595
vt 0.496678 0.217288
vt 0.469163 0.160818
vt 0.476880 0.156584
vt 0.499026 0.165053
vt 0.491417 0.161366
vt 0.518804 0.104605
vt 0.526594 0.108108
vt 0.514687 0.172623
vt 0.506929 0.168881
vt 0.534293 0.112321
vt 0.542060 0.115859
vt 0.488779 0.221112
vt 0.461399 0.164340
vt 0.512049 0.209851
vt 0.484655 0.153083
vt 0.464913 0.145938
vt 0.473529 0.145171
vt 0.521223 0.095828
vt 0.529937 0.096690
vt 0.538550 0.097455
vt 0.546961 0.098438
vt 0.456502 0.146920
vt 0.482239 0.144310
vt 0.457722 0.128863
vt 0.466034 0.130818
vt 0.474332 0.133082
vt 0.482865 0.135199
vt 0.529133 0.084601
vt 0.537431 0.082336
vt 0.520598 0.086717
vt 0.545743 0.080381
vt 0.472295 0.117092
vt 0.479233 0.121971
vt 0.516946 0.078360
vt 0.524231 0.073489
vt 0.531170 0.068610
vt 0.538355 0.063727
vt 0.465110 0.112209
vt 0.486519 0.126843
vt 0.477774 0.099412
vt 0.482682 0.106333
vt 0.487545 0.113038
vt 0.492767 0.120299
vt 0.515920 0.064555
vt 0.520784 0.057850
vt 0.510698 0.071816
vt 0.525692 0.050929
vt 0.496188 0.099475
vt 0.498650 0.107839
vt 0.502419 0.067968
vt 0.504815 0.059356
vt 0.507277 0.050991
vt 0.509709 0.042916
vt 0.493757 0.091399
vt 0.501045 0.116452
vt 0.512049 0.088947
vt 0.511992 0.097864
vt 0.510526 0.106726
vt 0.510343 0.115437
vt 0.492939 0.058242
vt 0.491474 0.049379
vt 0.493122 0.066952
vt 0.491417 0.040463
vt 0.454194 0.231765
vt 0.467439 0.231765
vt 0.467439 0.239284
vt 0.454194 0.239284
vt 0.454194 0.246804
vt 0.467439 0.246804
vt 0.467439 0.254324
vt 0.454194 0.254324
vt 0.454194 0.216725
vt 0.467439 0.216725
vt 0.467439 0.224245
vt 0.454194 0.224245
vt 0.467439 0.261843
vt 0.454194 0.261843
vt 0.469378 0.270815
vt 0.454339 0.270815
vt 0.458099 0.264303
vt 0.465618 0.264303
vt 0.005819 0.222151
vt 0.002512 0.222151
vt 0.002512 0.214632
vt 0.005819 0.214632
vt 0.002512 0.259242
vt 0.005819 0.259242
vt 0.005819 0.266762
vt 0.002512 0.266762
vt 0.473257 0.093100
vt 0.469497 0.086587
vt 0.470028 0.063280
vt 0.002512 0.322209
vt 0.005819 0.322209
vt 0.005819 0.329728
vt 0.002512 0.329728
vt 0.461978 0.086587
vt 0.461447 0.063280
vt 0.005819 0.296756
vt 0.002512 0.296756
vt 0.005819 0.252145
vt 0.002512 0.252145
vt 0.002512 0.305631
vt 0.005819 0.305631
vt 0.005819 0.314212
vt 0.002512 0.314212
vt 0.466149 0.300635
vt 0.457568 0.300635
vt 0.458218 0.093100
vt 0.465794 0.209475
vt 0.458330 0.205165
vt 0.458330 0.196547
vt 0.465794 0.192238
vt 0.473257 0.196547
vt 0.473257 0.205165
vt 0.255165 0.001767
vt 0.252662 0.713660
vt 0.207424 0.713660
vt 0.204921 0.001767
vt 0.458711 0.006192
vt 0.435925 0.717644
vt 0.390112 0.716168
vt 0.407828 0.004553
vt 0.344441 0.715008
vt 0.357101 0.003264
vt 0.643948 0.449635
vt 0.661385 0.494731
vt 0.583899 0.523925
vt 0.561468 0.459539
vt 0.561159 0.392308
vt 0.644737 0.402091
vt 0.689096 0.534236
vt 0.726634 0.564438
vt 0.675446 0.627493
vt 0.622161 0.581239
vt 0.306203 0.002336
vt 0.298614 0.714173
vt 0.511401 0.465422
vt 0.510433 0.386102
vt 0.641825 0.667694
vt 0.580025 0.611195
vt 0.536059 0.542354
vt 0.448590 0.473298
vt 0.449074 0.377655
vt 0.599920 0.719826
vt 0.527931 0.650749
vt 0.476488 0.567221
vt 0.520612 0.860668
vt 0.531105 0.790767
vt 0.589208 0.815106
vt 0.559040 0.879837
vt 0.479244 0.860095
vt 0.470325 0.790015
vt 0.591104 0.910708
vt 0.639714 0.856417
vt 0.679375 0.913050
vt 0.599591 0.927754
vt 0.465513 0.752446
vt 0.536222 0.753595
vt 0.665021 0.826171
vt 0.718412 0.899329
vt 0.605125 0.779677
vt 0.459458 0.712615
vt 0.542513 0.712615
vt 0.694828 0.794349
vt 0.756436 0.877777
vt 0.624240 0.741564
vt 0.754407 0.291576
vt 0.819989 0.224840
vt 0.838946 0.251274
vt 0.781311 0.309710
vt 0.715981 0.377557
vt 0.747777 0.384258
vt 0.905607 0.185273
vt 0.930199 0.216168
vt 0.998883 0.213209
vt 0.998883 0.635066
vt 0.930199 0.632106
vt 0.771953 0.581426
vt 0.742553 0.657369
vt 0.719952 0.708193
vt 0.998883 0.181059
vt 0.687080 0.770013
vt 0.498988 0.932938
vt 0.398929 0.924995
vt 0.407800 0.908262
vt 0.747777 0.464017
vt 0.715981 0.470717
vt 0.001375 0.006192
vt 0.052258 0.004553
vt 0.069974 0.716168
vt 0.024161 0.717644
vt 0.115645 0.715008
vt 0.102985 0.003264
vt 0.583744 0.327591
vt 0.661909 0.356507
vt 0.689380 0.316646
vt 0.621911 0.269980
vt 0.675000 0.223346
vt 0.726731 0.286104
vt 0.161472 0.714173
vt 0.153883 0.002336
vt 0.579597 0.240195
vt 0.641110 0.183344
vt 0.535751 0.309171
vt 0.527421 0.200960
vt 0.598908 0.131508
vt 0.476538 0.284492
vt 0.440477 0.878330
vt 0.411918 0.813214
vt 0.320175 0.908370
vt 0.360855 0.853138
vt 0.281832 0.893840
vt 0.336460 0.822589
vt 0.396778 0.777724
vt 0.244693 0.871596
vt 0.307679 0.790449
vt 0.378582 0.739799
vt 0.754407 0.556698
vt 0.781311 0.538565
vt 0.838946 0.597000
vt 0.819989 0.623434
vt 0.905607 0.663002
vt 0.741937 0.192977
vt 0.771953 0.268749
vt 0.718969 0.142319
vt 0.998883 0.667215
vt 0.685689 0.080753
vt 0.306377 0.909147
vt 0.376431 0.934835
vt 0.418949 0.998883
vt 0.405164 0.960053
vt 0.003011 0.998883
vt 0.210980 0.909147
vt 0.016796 0.960053
vt 0.045529 0.934835
vt 0.115583 0.909147
s 1
f 5/1/1 6/2/2 12/3/3 11/4/4
f 3/5/5 4/6/6 10/7/7 9/8/8
f 1/9/9 2/10/10 8/11/11 7/12/12
f 6/2/2 1/13/9 7/14/12 12/3/3
f 4/15/6 5/1/1 11/4/4 10/16/7
f 2/10/10 3/5/5 9/8/8 8/11/11
f 11/4/4 12/3/3 18/17/13 17/18/14
f 9/8/8 10/7/7 16/19/15 15/20/16
f 7/12/12 8/11/11 14/21/17 13/22/18
f 12/3/3 7/14/12 13/23/18 18/17/13
f 10/16/7 11/4/4 17/18/14 16/24/15
f 8/11/11 9/8/8 15/20/16 14/21/17
f 18/17/13 13/23/18 19/25/19 24/26/20
f 16/24/15 17/18/14 23/27/21 22/28/22
f 14/21/17 15/20/16 21/29/23 20/30/24
f 17/18/14 18/17/13 24/26/20 23/27/21
f 15/20/16 16/19/15 22/31/22 21/29/23
f 13/22/18 14/21/17 20/30/24 19/32/19
f 23/27/21 24/26/20 30/33/25 29/34/26
f 21/29/23 22/31/22 28/35/27 27/36/28
f 19/32/19 20/30/24 26/37/29 25/38/30
f 24/26/20 19/25/19 25/39/30 30/33/25
f 22/28/22 23/27/21 29/34/26 28/40/27
f 20/30/24 21/29/23 27/36/28 26/37/29
f 30/33/25 25/39/30 31/41/31 36/42/32
f 28/40/27 29/34/26 35/43/33 34/44/34
f 26/37/29 27/36/28 33/45/35 32/46/36
f 29/34/26 30/33/25 36/42/32 35/43/33
f 27/36/28 28/35/27 34/47/34 33/45/35
f 25/38/30 26/37/29 32/46/36 31/48/31
f 35/43/33 36/42/32 42/49/37 41/50/38
f 33/45/35 34/47/34 40/51/39 39/52/40
f 31/48/31 32/46/36 38/53/41 37/54/42
f 36/42/32 31/41/31 37/55/42 42/49/37
f 34/44/34 35/43/33 41/50/38 40/56/39
f 32/46/36 33/45/35 39/52/40 38/53/41
f 42/49/37 37/55/42 43/57/43 48/58/44
f 40/56/39 41/50/38 47/59/45 46/60/46
f 38/53/41 39/52/40 45/61/47 44/62/48
f 41/50/38 42/49/37 48/58/44 47/59/45
f 39/52/40 40/51/39 46/63/46 45/61/47
f 37/54/42 38/53/41 44/62/48 43/64/43
f 54/65/34 60/66/49 59/67/22 53/68/22
f 52/69/6 58/70/6 57/71/31 51/72/31
f 50/73/18 56/74/18 55/75/50 49/76/9
f 49/76/9 55/75/50 60/66/49 54/65/34
f 53/68/22 59/67/22 58/70/6 52/69/6
f 51/72/31 57/71/31 56/77/30 50/78/30
f 61/79/51 62/80/51 63/81/51 64/82/51
f 55/83/50 61/84/52 64/85/39 60/86/49
f 59/87/15 63/88/15 62/89/53 58/90/53
f 55/91/54 56/92/54 65/93/54
f 60/94/27 64/95/27 63/96/27 59/97/27
f 57/98/54 66/99/54 65/93/54 56/92/54
f 58/90/53 62/89/53 68/100/55 66/101/55
f 55/83/50 65/102/56 67/103/56 61/84/52
f 67/104/30 65/105/30 66/106/30 68/107/30
f 62/80/51 61/79/51 67/108/51 68/109/51
f 66/99/54 57/98/54 58/110/54
f 44/111/27 45/112/27 46/113/27 47/114/27 48/115/27 43/116/27
f 71/117/57 72/118/58 117/119/59 113/120/60
f 69/121/61 70/122/62 109/123/63 105/124/64
f 81/125/65 79/126/66 105/124/64 109/123/63
f 72/127/67 82/128/68 84/129/69 73/130/70
f 72/127/67 73/130/70 120/131/71 117/132/72
f 81/133/65 109/134/63 108/135/73 83/136/74
f 72/118/58 71/117/57 80/137/75 82/138/68
f 73/130/70 75/139/76 112/140/77 120/131/71
f 83/136/74 108/135/73 106/141/78 85/142/79
f 73/130/70 84/129/69 86/143/80 75/139/76
f 75/139/76 78/144/81 115/145/82 112/140/77
f 85/142/79 106/141/78 110/146/83 88/147/84
f 75/139/76 86/143/80 87/148/85 78/144/81
f 79/126/66 81/125/65 82/138/68 80/137/75
f 84/129/69 82/128/68 81/133/65 83/136/74
f 83/136/74 85/142/79 86/143/80 84/129/69
f 85/142/79 88/147/84 87/148/85 86/143/80
f 89/149/86 90/150/87 91/151/88 92/152/89
f 89/149/86 118/153/90 114/154/91 90/150/87
f 93/155/92 94/156/93 107/157/94 95/158/95
f 90/150/87 114/154/91 121/159/96 96/160/97
f 94/156/93 97/161/98 98/162/99 107/157/94
f 90/150/87 96/160/97 99/163/100 91/151/88
f 96/160/97 121/159/96 122/164/101 100/165/102
f 97/161/98 101/166/103 102/167/104 98/162/99
f 96/160/97 100/165/102 103/168/105 99/163/100
f 91/151/88 94/156/93 93/155/92 92/152/89
f 94/156/93 91/151/88 99/163/100 97/161/98
f 97/161/98 99/163/100 103/168/105 101/166/103
f 87/169/30 88/170/30 101/171/30 103/172/30
f 78/173/30 87/169/30 103/172/30 100/174/30
f 88/170/30 110/175/30 102/176/30 101/171/30
f 104/177/30 111/178/30 119/179/30 102/176/30
f 108/135/73 109/134/63 70/180/62 77/181/106
f 106/141/78 108/135/73 77/181/106 74/182/107
f 102/176/30 110/175/30 76/183/30 104/177/30
f 110/146/83 106/141/78 74/182/107 76/184/108
f 147/185/30 116/186/109 140/187/110
f 122/188/30 115/189/30 78/173/30 100/174/30
f 123/190/111 148/191/112 152/192/113 124/193/114
f 130/194/115 152/192/113 148/191/112 128/195/116
f 117/132/72 120/131/71 133/196/117 131/197/118
f 130/198/115 132/199/119 151/200/120 152/201/113
f 117/119/59 131/202/118 129/203/121 113/120/60
f 132/199/119 134/204/122 149/205/123 151/200/120
f 120/131/71 112/140/77 135/206/124 133/196/117
f 134/204/122 137/207/125 153/208/126 149/205/123
f 112/140/77 115/145/82 136/209/127 135/206/124
f 128/195/116 129/203/121 131/202/118 130/194/115
f 133/196/117 132/199/119 130/198/115 131/197/118
f 132/199/119 133/196/117 135/206/124 134/204/122
f 134/204/122 135/206/124 136/209/127 137/207/125
f 118/153/90 139/210/128 138/211/129 114/154/91
f 140/187/110 116/186/109 150/212/130 141/213/131
f 141/213/131 150/212/130 143/214/132 142/215/133
f 114/154/91 138/211/129 144/216/134 121/159/96
f 142/215/133 143/214/132 119/217/135 145/218/136
f 121/159/96 144/216/134 146/219/137 122/164/101
f 138/211/129 139/210/128 140/187/110 141/213/131
f 141/213/131 142/215/133 144/216/134 138/211/129
f 142/215/133 145/218/136 146/219/137 144/216/134
f 136/220/30 146/221/30 145/222/30 137/223/30
f 115/189/30 122/188/30 146/221/30 136/220/30
f 137/223/30 145/222/30 119/179/30 153/224/30
f 151/200/120 127/225/138 124/226/114 152/201/113
f 149/205/123 125/227/139 127/225/138 151/200/120
f 119/179/30 111/178/30 126/228/30 153/224/30
f 153/208/126 126/229/140 125/227/139 149/205/123
f 140/187/110 139/210/128 147/185/30
f 118/153/90 89/149/86 147/185/30
f 89/149/86 92/152/89 147/185/30
f 92/152/89 93/155/92 147/185/30
f 93/155/92 95/158/95 147/185/30
f 147/185/30 139/210/128 118/153/90
f 95/230/6 107/231/6 102/232/6
f 107/231/6 98/233/6 102/232/6
f 102/232/6 119/234/6 147/235/6
f 119/234/6 143/236/6 150/237/6
f 147/235/6 119/234/6 116/238/6
f 150/237/6 116/238/6 119/234/6
f 147/235/6 95/230/6 102/232/6
